<?xml version="1.0" encoding="utf-8"?>
<!-- Generator: Adobe Illustrator 28.2.0, SVG Export Plug-In . SVG Version: 6.00 Build 0)  -->
<svg version="1.1" id="Layer_1" xmlns="http://www.w3.org/2000/svg" xmlns:xlink="http://www.w3.org/1999/xlink" x="0px" y="0px"
	 viewBox="0 0 350 350" style="enable-background:new 0 0 350 350;" xml:space="preserve">
<style type="text/css">
	.st0{fill:url(#SVGID_1_);}
	.st1{opacity:0.11;fill:url(#SVGID_00000096777060661017645690000008552644107877106055_);enable-background:new    ;}
	.st2{fill:url(#SVGID_00000075156237385862009140000011871611021580051842_);}
	.st3{fill:url(#SVGID_00000175292052982337013060000013419617767503083938_);}
	.st4{fill:url(#SVGID_00000109721174723350471860000002361092266038607240_);}
	.st5{fill:url(#SVGID_00000122718004406122089090000017076421414490144129_);}
	.st6{fill:url(#SVGID_00000026868644450502475590000004035108628616033444_);}
	.st7{opacity:0.11;fill:url(#SVGID_00000031924858116950474460000011461342317195619253_);enable-background:new    ;}
	.st8{fill:url(#SVGID_00000176736919143469399940000010366487085283696002_);}
	.st9{opacity:0.11;fill:url(#SVGID_00000044176617196052366510000001896521931423740342_);enable-background:new    ;}
	.st10{fill:url(#SVGID_00000106844277087360437910000016861649400453824697_);}
	.st11{fill:url(#SVGID_00000049204835492373805670000008432494388401722009_);}
	.st12{fill:url(#SVGID_00000013909910337961515900000012746535626243638915_);}
	.st13{fill:url(#SVGID_00000023264916896332609500000000367393136665959066_);}
	.st14{opacity:0.11;fill:url(#SVGID_00000094588375011089203670000012031983968869292961_);enable-background:new    ;}
	.st15{fill:url(#SVGID_00000175291403903507822560000017626213226083131057_);}
	.st16{fill:url(#SVGID_00000011748245908280925380000012997037997536521881_);}
	.st17{fill:url(#SVGID_00000037673100904709464750000013157734706888585862_);}
	.st18{fill:url(#SVGID_00000029756293275604189320000000662712295932549296_);}
	.st19{fill:url(#SVGID_00000073000850956468758520000014237230701466979480_);}
	.st20{opacity:0.11;fill:url(#SVGID_00000052805640118446511450000017863665698020852905_);enable-background:new    ;}
	.st21{fill:url(#SVGID_00000083783608192285553070000006061018916254924187_);}
	.st22{opacity:0.11;fill:url(#SVGID_00000008850793431632126420000017226608796490887303_);enable-background:new    ;}
	.st23{fill:url(#SVGID_00000115474516819376625750000009465653452898059155_);}
	.st24{fill:url(#SVGID_00000072960408061564885530000013399239464792073362_);}
	.st25{fill:url(#SVGID_00000092429113705695725780000014613189616736870799_);}
</style>
<g>
	
		<linearGradient id="SVGID_1_" gradientUnits="userSpaceOnUse" x1="119.8721" y1="323.7859" x2="238.0449" y2="9.134" gradientTransform="matrix(1 0 0 -1 0 352)">
		<stop  offset="0" style="stop-color:#F64C50"/>
		<stop  offset="0.3441" style="stop-color:#B94451"/>
		<stop  offset="1" style="stop-color:#3A3352"/>
	</linearGradient>
	<circle class="st0" cx="175" cy="175" r="168"/>
	
		<linearGradient id="SVGID_00000043433153315571079040000014168581767506377653_" gradientUnits="userSpaceOnUse" x1="-76.5002" y1="1055.7335" x2="338.6984" y2="-706.0491" gradientTransform="matrix(1 0 0 -1 0 352)">
		<stop  offset="0" style="stop-color:#FF625E"/>
		<stop  offset="0.3293" style="stop-color:#C1535A"/>
		<stop  offset="1" style="stop-color:#3A3352"/>
	</linearGradient>
	<path style="opacity:0.11;fill:url(#SVGID_00000043433153315571079040000014168581767506377653_);enable-background:new    ;" d="
		M288.1,299.2c-4.2-3.1-16.2,3.7-25.7,8.7c-14.9,7.9-25.3,5.2-43.7,10.5c-18.3,5.2-27.9-1.8-47.2-9.6s-28.8,2.6-34.1-15.7
		c-5.2-18.3-10.5-14.9,3.5-35.8s31.4-25.3,32.3-53.3c0.9-27.9-19.2-38.4-59.4-59.4S93.8,123.7,79,94c-8.8-17.6-24.7-22-36.2-22.7
		C20.4,99.9,7,135.9,7,175c0,92.8,75.2,168,168,168C218.6,343,258.3,326.4,288.1,299.2z"/>
	<g>
		
			<linearGradient id="SVGID_00000096774060781787490360000010280933503986406067_" gradientUnits="userSpaceOnUse" x1="41.9755" y1="256.1521" x2="146.3669" y2="-21.8049" gradientTransform="matrix(1 0 0 -1 0 352)">
			<stop  offset="0" style="stop-color:#FF625E"/>
			<stop  offset="0.3293" style="stop-color:#C1535A"/>
			<stop  offset="1" style="stop-color:#3A3352"/>
		</linearGradient>
		<path style="fill:url(#SVGID_00000096774060781787490360000010280933503986406067_);" d="M209.7,339.4c-1.4-3.5-4.5-5.8-8.4-6.1
			c-10.5-0.9-4.4,1.8-4.4,1.8s-14.9,0-28.8-8.7c-14-8.7-20.1,0-43.7-3.5s-27.1-8.7-27.9-18.3s11.4-8.7,14.9-24.5
			c3.5-15.7-1.8-18.3,15.7-32.3s27.1-26.2,27.1-46.3s-22.7-27.1-51.5-41.9c-28.8-14.9-25.3-27.1-39.3-52.4
			C55.7,93.5,41.7,90,30.3,89.6C15.5,114.7,7,143.8,7,175c0,92.8,75.2,168,168,168C186.9,343,198.5,341.8,209.7,339.4z"/>
		
			<linearGradient id="SVGID_00000098932112642700536870000009474932629318459583_" gradientUnits="userSpaceOnUse" x1="30.0142" y1="259.6635" x2="49.2292" y2="177.5637" gradientTransform="matrix(1 0 0 -1 0 352)">
			<stop  offset="0" style="stop-color:#FF625E"/>
			<stop  offset="0.3293" style="stop-color:#C1535A"/>
			<stop  offset="1" style="stop-color:#3A3352"/>
		</linearGradient>
		<circle style="fill:url(#SVGID_00000098932112642700536870000009474932629318459583_);" cx="38.8" cy="129.8" r="14"/>
		
			<linearGradient id="SVGID_00000109026113665541639350000013361567064984664713_" gradientUnits="userSpaceOnUse" x1="-18.9952" y1="162.2877" x2="49.6255" y2="93.667" gradientTransform="matrix(1 0 0 -1 0 352)">
			<stop  offset="0" style="stop-color:#FF625E"/>
			<stop  offset="0.3293" style="stop-color:#C1535A"/>
			<stop  offset="1" style="stop-color:#3A3352"/>
		</linearGradient>
		<path style="fill:url(#SVGID_00000109026113665541639350000013361567064984664713_);" d="M23.1,218.9c-3.5,0-6.7,0.8-9.7,2.2
			c4.2,14.8,10.4,28.7,18.2,41.5c8.3-3.4,14.2-11.5,14.2-21C45.8,229,35.6,218.9,23.1,218.9z"/>
		
			<linearGradient id="SVGID_00000048486361831107552500000007319181374604976828_" gradientUnits="userSpaceOnUse" x1="62.6273" y1="216.7424" x2="69.2325" y2="188.5203" gradientTransform="matrix(1 0 0 -1 0 352)">
			<stop  offset="0" style="stop-color:#FF625E"/>
			<stop  offset="0.3293" style="stop-color:#C1535A"/>
			<stop  offset="1" style="stop-color:#3A3352"/>
		</linearGradient>
		<path style="fill:url(#SVGID_00000048486361831107552500000007319181374604976828_);" d="M70.4,148.1c0,2.6-2.2,4.8-4.8,4.8
			s-4.8-2.1-4.8-4.8c0-2.6,2.2-4.8,4.8-4.8S70.4,145.5,70.4,148.1z"/>
		
			<linearGradient id="SVGID_00000137813861042294210370000006465642127388480674_" gradientUnits="userSpaceOnUse" x1="93.5678" y1="193.9023" x2="117.805" y2="91.0586" gradientTransform="matrix(1 0 0 -1 0 352)">
			<stop  offset="0" style="stop-color:#FF625E"/>
			<stop  offset="0.3293" style="stop-color:#C1535A"/>
			<stop  offset="1" style="stop-color:#3A3352"/>
		</linearGradient>
		<path style="fill:url(#SVGID_00000137813861042294210370000006465642127388480674_);" d="M114.8,211c0,4.8-3.9,8.7-8.7,8.7
			s-8.7-3.9-8.7-8.7s3.9-8.7,8.7-8.7S114.8,206.2,114.8,211z"/>
	</g>
	
		<linearGradient id="SVGID_00000117661256299855583500000011164473970947505806_" gradientUnits="userSpaceOnUse" x1="188.8329" y1="366.2016" x2="185.791" y2="20.4723" gradientTransform="matrix(1 0 0 -1 0 352)">
		<stop  offset="0" style="stop-color:#FF625E"/>
		<stop  offset="0.3293" style="stop-color:#C1535A"/>
		<stop  offset="1" style="stop-color:#3A3352"/>
	</linearGradient>
	<path style="opacity:0.11;fill:url(#SVGID_00000117661256299855583500000011164473970947505806_);enable-background:new    ;" d="
		M309.5,90.5c3-1,5.8-2.4,8.2-4.1C288.1,38.7,235.3,7,175,7C129.7,7,88.6,24.9,58.4,54.1c5.4,6.9,16.6,16.4,35.4,14.6
		c27.1-2.6,32.3-13.1,50.7-4.4s26.2,17.5,54.1,14.8c28-2.6,34.9,9.6,42.8,19.2s14,0,29.7-7C286.8,84.4,291.2,96.6,309.5,90.5z"/>
	
		<linearGradient id="SVGID_00000072981801464909732700000017911358116064430503_" gradientUnits="userSpaceOnUse" x1="190.1061" y1="363.2389" x2="187.4856" y2="65.408" gradientTransform="matrix(1 0 0 -1 0 352)">
		<stop  offset="0" style="stop-color:#FF7F4B"/>
		<stop  offset="0.3293" style="stop-color:#C1674D"/>
		<stop  offset="1" style="stop-color:#3A3352"/>
	</linearGradient>
	<path style="fill:url(#SVGID_00000072981801464909732700000017911358116064430503_);" d="M310.6,75.8C280,34.1,230.7,7,175,7
		C134.5,7,97.4,21.3,68.3,45.2c4.6,5.7,14,12.1,33.3,12.1c34.9,0,27.1-21.8,63.8,0.9s50.7,0,63.8,6.1s7,18.3,16.6,23.6
		c9.6,5.2,1.8-5.2,22.7-13.1C283.5,69.1,300,80.2,310.6,75.8z"/>
	
		<linearGradient id="SVGID_00000046333676232974459480000003810242425213462200_" gradientUnits="userSpaceOnUse" x1="314.7737" y1="256.7476" x2="276.1319" y2="6.5418" gradientTransform="matrix(1 0 0 -1 0 352)">
		<stop  offset="0" style="stop-color:#FF625E"/>
		<stop  offset="0.3293" style="stop-color:#C1535A"/>
		<stop  offset="1" style="stop-color:#3A3352"/>
	</linearGradient>
	<path style="opacity:0.11;fill:url(#SVGID_00000046333676232974459480000003810242425213462200_);enable-background:new    ;" d="
		M343,175c0-30.6-8.2-59.3-22.5-84.1c-8.5,3.2-28.6,12.2-35.4,29.2c-8.7,21.8,6.1,40.2-3.5,62.9c-9.6,22.7-8.7,21-14.9,45.4
		c-6.1,24.5-25.3,21.8-19.2,42.8c6.1,21,9.6,26.2,27.1,21.8c6.3-1.6,13.3-1.1,19.7,0.2C324.4,262.9,343,221.1,343,175z"/>
	
		<linearGradient id="SVGID_00000103974506002860849430000011338694830613536654_" gradientUnits="userSpaceOnUse" x1="321.2395" y1="248.5752" x2="286.3034" y2="22.3637" gradientTransform="matrix(1 0 0 -1 0 352)">
		<stop  offset="0" style="stop-color:#FF625E"/>
		<stop  offset="0.3293" style="stop-color:#C1535A"/>
		<stop  offset="1" style="stop-color:#3A3352"/>
	</linearGradient>
	<path style="fill:url(#SVGID_00000103974506002860849430000011338694830613536654_);" d="M325,99.3c-3.1,2.9-7.9,7.1-15.5,13
		c-20.1,15.7-21.8,27.1-16.6,53.3c5.2,26.2,6.1,21-2.6,42.8c-8.7,21.8-6.1,14-12.2,36.7c-6.1,22.7-23.6,14.9-14.9,31.4
		c8.7,16.6,18.3-4.4,34.9-6.1c5.6-0.6,8,3.1,10.3,6.6C330.1,248.8,343,213.4,343,175C343,147.8,336.5,122.1,325,99.3z"/>
	
		<linearGradient id="SVGID_00000063600309547008749810000016672736058937503678_" gradientUnits="userSpaceOnUse" x1="184.9947" y1="284.8408" x2="181.5011" y2="95.3117" gradientTransform="matrix(1 0 0 -1 0 352)">
		<stop  offset="0" style="stop-color:#FF625E"/>
		<stop  offset="0.3293" style="stop-color:#C1535A"/>
		<stop  offset="1" style="stop-color:#3A3352"/>
	</linearGradient>
	<path style="fill:url(#SVGID_00000063600309547008749810000016672736058937503678_);" d="M145.3,89.6c0,0-18.3,9.6-9.6,25.3
		s17.5,0,29.7,4.4s0,12.2,22.7,15.7s19.2,14,34.1,19.2c14.9,5.2,10.5-22.7,12.2-30.6c1.8-7.9-0.9-24.5-9.6-26.2
		c-8.7-1.8-17.5,8.7-34.1,3.5c-16.6-5.2-39.3,3.5-43.7-0.9C142.7,95.7,145.3,89.6,145.3,89.6z"/>
	
		<linearGradient id="SVGID_00000181071662236408865550000001790105437297810818_" gradientUnits="userSpaceOnUse" x1="255.8336" y1="343.9121" x2="178.5373" y2="-115.9366" gradientTransform="matrix(1 0 0 -1 0 352)">
		<stop  offset="0" style="stop-color:#F64C50"/>
		<stop  offset="0.3441" style="stop-color:#B94451"/>
		<stop  offset="1" style="stop-color:#3A3352"/>
	</linearGradient>
	<path style="fill:url(#SVGID_00000181071662236408865550000001790105437297810818_);" d="M232.7,193.6c0,0-19.2,2.6-18.3,14.8
		c0.9,12.2,4.4,14-5.2,23.6s-15.7,10.5-21,22.7c-5.2,12.2-18.3,13.1-15.7,23.6c2.6,10.5,8.7,1.8,21,0s16.6,0,31.4-8.7
		s6.1-23.6,17.5-34.9c11.4-11.4,20.1-25.3,20.1-35.8s0-33.2-8.7-26.2S232.7,193.6,232.7,193.6z"/>
</g>
<g>
	
		<linearGradient id="SVGID_00000008139929123748846440000016037156406480412606_" gradientUnits="userSpaceOnUse" x1="117.5817" y1="329.8844" x2="240.6638" y2="2.1606" gradientTransform="matrix(1 0 0 -1 0 352)">
		<stop  offset="0" style="stop-color:#F64C50"/>
		<stop  offset="0.3441" style="stop-color:#B94451"/>
		<stop  offset="1" style="stop-color:#3A3352"/>
	</linearGradient>
	<circle style="fill:url(#SVGID_00000008139929123748846440000016037156406480412606_);" cx="175" cy="175" r="175"/>
	
		<linearGradient id="SVGID_00000025414056761589053200000006985281219064376208_" gradientUnits="userSpaceOnUse" x1="-86.9487" y1="1092.24" x2="345.4988" y2="-742.7341" gradientTransform="matrix(1 0 0 -1 0 352)">
		<stop  offset="0" style="stop-color:#FF625E"/>
		<stop  offset="0.3293" style="stop-color:#C1535A"/>
		<stop  offset="1" style="stop-color:#3A3352"/>
	</linearGradient>
	<path style="opacity:0.11;fill:url(#SVGID_00000025414056761589053200000006985281219064376208_);enable-background:new    ;" d="
		M292.8,304.4c-4.3-3.3-16.9,3.8-26.8,9.1c-15.5,8.2-26.4,5.5-45.5,10.9c-19.1,5.5-29.1-1.8-49.1-10c-20-8.2-30,2.7-35.5-16.4
		c-5.5-19.1-10.9-15.5,3.6-37.3c14.6-21.8,32.7-26.4,33.7-55.5c0.9-29.1-20-40-61.9-61.9S90.4,121.5,75,90.6
		C65.8,72.3,49.2,67.7,37.3,67C13.9,96.7,0,134.2,0,175c0,96.6,78.3,175,175,175C220.4,350,261.7,332.7,292.8,304.4z"/>
	<g>
		
			<linearGradient id="SVGID_00000021109301601083059270000009933078749264953530_" gradientUnits="userSpaceOnUse" x1="36.449" y1="259.4408" x2="145.1772" y2="-30.0636" gradientTransform="matrix(1 0 0 -1 0 352)">
			<stop  offset="0" style="stop-color:#FF625E"/>
			<stop  offset="0.3293" style="stop-color:#C1535A"/>
			<stop  offset="1" style="stop-color:#3A3352"/>
		</linearGradient>
		<path style="fill:url(#SVGID_00000021109301601083059270000009933078749264953530_);" d="M211.1,346.3c-1.4-3.7-4.7-6-8.8-6.4
			c-10.9-0.9-4.6,1.8-4.6,1.8s-15.5,0-30-9.1c-14.6-9.1-20.9,0-45.5-3.6s-28.2-9.1-29.1-19.1s11.8-9.1,15.5-25.5
			c3.6-16.4-1.8-19.1,16.4-33.7c18.2-14.6,28.2-27.3,28.2-48.2s-23.7-28.2-53.7-43.7c-30-15.5-26.4-28.2-40.9-54.6
			c-7.8-14.2-22.4-17.8-34.3-18.2C8.9,112.1,0,142.5,0,175c0,96.6,78.3,175,175,175C187.4,350,199.5,348.7,211.1,346.3z"/>
		
			<linearGradient id="SVGID_00000050660250650883359280000014307888569015028355_" gradientUnits="userSpaceOnUse" x1="23.9907" y1="263.0981" x2="44.004" y2="177.5875" gradientTransform="matrix(1 0 0 -1 0 352)">
			<stop  offset="0" style="stop-color:#FF625E"/>
			<stop  offset="0.3293" style="stop-color:#C1535A"/>
			<stop  offset="1" style="stop-color:#3A3352"/>
		</linearGradient>
		<circle style="fill:url(#SVGID_00000050660250650883359280000014307888569015028355_);" cx="33.1" cy="127.9" r="14.6"/>
		
			<linearGradient id="SVGID_00000063599646015376858020000006354793620387675278_" gradientUnits="userSpaceOnUse" x1="-27.0547" y1="161.6769" x2="44.4167" y2="90.2054" gradientTransform="matrix(1 0 0 -1 0 352)">
			<stop  offset="0" style="stop-color:#FF625E"/>
			<stop  offset="0.3293" style="stop-color:#C1535A"/>
			<stop  offset="1" style="stop-color:#3A3352"/>
		</linearGradient>
		<path style="fill:url(#SVGID_00000063599646015376858020000006354793620387675278_);" d="M16.7,220.7c-3.6,0-7,0.8-10.1,2.3
			c4.4,15.4,10.8,29.9,19,43.3c8.6-3.5,14.7-12,14.7-21.9C40.4,231.3,29.8,220.7,16.7,220.7z"/>
		
			<linearGradient id="SVGID_00000094576722587891090070000017664226393525428405_" gradientUnits="userSpaceOnUse" x1="57.9587" y1="218.3938" x2="64.8383" y2="188.9993" gradientTransform="matrix(1 0 0 -1 0 352)">
			<stop  offset="0" style="stop-color:#FF625E"/>
			<stop  offset="0.3293" style="stop-color:#C1535A"/>
			<stop  offset="1" style="stop-color:#3A3352"/>
		</linearGradient>
		<path style="fill:url(#SVGID_00000094576722587891090070000017664226393525428405_);" d="M66.1,147c0,2.8-2.2,5-5,5s-5-2.2-5-5
			c0-2.8,2.2-5,5-5S66.1,144.3,66.1,147z"/>
		
			<linearGradient id="SVGID_00000107588594324775444010000006900408472895365760_" gradientUnits="userSpaceOnUse" x1="90.1846" y1="194.6049" x2="115.4287" y2="87.4887" gradientTransform="matrix(1 0 0 -1 0 352)">
			<stop  offset="0" style="stop-color:#FF625E"/>
			<stop  offset="0.3293" style="stop-color:#C1535A"/>
			<stop  offset="1" style="stop-color:#3A3352"/>
		</linearGradient>
		<path style="fill:url(#SVGID_00000107588594324775444010000006900408472895365760_);" d="M112.3,212.5c0,5-4.1,9.1-9.1,9.1
			s-9.1-4.1-9.1-9.1s4.1-9.1,9.1-9.1S112.3,207.5,112.3,212.5z"/>
	</g>
	
		<linearGradient id="SVGID_00000055664983792823821870000011090986989211633067_" gradientUnits="userSpaceOnUse" x1="189.4074" y1="374.0622" x2="186.2391" y2="13.9699" gradientTransform="matrix(1 0 0 -1 0 352)">
		<stop  offset="0" style="stop-color:#FF625E"/>
		<stop  offset="0.3293" style="stop-color:#C1535A"/>
		<stop  offset="1" style="stop-color:#3A3352"/>
	</linearGradient>
	<path style="opacity:0.11;fill:url(#SVGID_00000055664983792823821870000011090986989211633067_);enable-background:new    ;" d="
		M315.1,87c3.2-1.1,6-2.5,8.6-4.2C292.8,33.1,237.8,0,175,0C127.8,0,85,18.7,53.6,49c5.6,7.2,17.3,17.1,36.9,15.2
		c28.2-2.7,33.7-13.6,52.8-4.6c19.1,9.1,27.3,18.2,56.4,15.5c29.1-2.7,36.4,10,44.6,20s14.6,0,30.9-7.3
		C291.5,80.6,296,93.3,315.1,87z"/>
	
		<linearGradient id="SVGID_00000077299856859257091230000013321517160305259702_" gradientUnits="userSpaceOnUse" x1="190.7335" y1="370.9764" x2="188.0041" y2="60.7724" gradientTransform="matrix(1 0 0 -1 0 352)">
		<stop  offset="0" style="stop-color:#FF7F4B"/>
		<stop  offset="0.3293" style="stop-color:#C1674D"/>
		<stop  offset="1" style="stop-color:#3A3352"/>
	</linearGradient>
	<path style="fill:url(#SVGID_00000077299856859257091230000013321517160305259702_);" d="M316.2,71.7C284.4,28.2,233,0,175,0
		C132.8,0,94.1,14.9,63.9,39.8c4.8,6,14.6,12.6,34.7,12.6c36.4,0,28.2-22.7,66.4,0.9s52.8,0,66.4,6.4c13.6,6.4,7.3,19.1,17.3,24.6
		c10,5.5,1.8-5.5,23.7-13.6C288.1,64.7,305.2,76.2,316.2,71.7z"/>
	
		<linearGradient id="SVGID_00000031929102581108628460000003119893791960463767_" gradientUnits="userSpaceOnUse" x1="320.5802" y1="260.061" x2="280.3331" y2="-0.5393" gradientTransform="matrix(1 0 0 -1 0 352)">
		<stop  offset="0" style="stop-color:#FF625E"/>
		<stop  offset="0.3293" style="stop-color:#C1535A"/>
		<stop  offset="1" style="stop-color:#3A3352"/>
	</linearGradient>
	<path style="opacity:0.11;fill:url(#SVGID_00000031929102581108628460000003119893791960463767_);enable-background:new    ;" d="
		M350,175c0-31.9-8.5-61.8-23.5-87.6c-8.9,3.3-29.8,12.7-36.9,30.5c-9.1,22.7,6.4,41.8-3.6,65.5c-10,23.7-9.1,21.8-15.5,47.3
		c-6.4,25.5-26.4,22.7-20,44.6c6.4,21.8,10,27.3,28.2,22.7c6.6-1.6,13.9-1.1,20.5,0.2C330.6,266.6,350,223,350,175z"/>
	
		<linearGradient id="SVGID_00000150804722776541830250000014692544360257578371_" gradientUnits="userSpaceOnUse" x1="327.3147" y1="251.5492" x2="290.9272" y2="15.9399" gradientTransform="matrix(1 0 0 -1 0 352)">
		<stop  offset="0" style="stop-color:#FF625E"/>
		<stop  offset="0.3293" style="stop-color:#C1535A"/>
		<stop  offset="1" style="stop-color:#3A3352"/>
	</linearGradient>
	<path style="fill:url(#SVGID_00000150804722776541830250000014692544360257578371_);" d="M331.3,96.2c-3.2,3-8.3,7.4-16.1,13.6
		c-20.9,16.4-22.7,28.2-17.3,55.5c5.5,27.3,6.4,21.8-2.7,44.6s-6.4,14.6-12.7,38.2c-6.4,23.7-24.6,15.5-15.5,32.7
		c9.1,17.3,19.1-4.6,36.4-6.4c5.9-0.6,8.4,3.3,10.7,6.9c22.6-29.5,36-66.3,36-106.3C350,146.6,343.2,119.8,331.3,96.2z"/>
	
		<linearGradient id="SVGID_00000104676094478689295000000008994754270308924806_" gradientUnits="userSpaceOnUse" x1="185.4097" y1="289.3214" x2="181.771" y2="91.9185" gradientTransform="matrix(1 0 0 -1 0 352)">
		<stop  offset="0" style="stop-color:#FF625E"/>
		<stop  offset="0.3293" style="stop-color:#C1535A"/>
		<stop  offset="1" style="stop-color:#3A3352"/>
	</linearGradient>
	<path style="fill:url(#SVGID_00000104676094478689295000000008994754270308924806_);" d="M144.1,86.1c0,0-19.1,10-10,26.4
		s18.2,0,30.9,4.6s0,12.7,23.7,16.4s20,14.6,35.5,20c15.5,5.5,10.9-23.7,12.7-31.8s-0.9-25.5-10-27.3c-9.1-1.8-18.2,9.1-35.5,3.6
		c-17.3-5.5-40.9,3.6-45.5-0.9C141.4,92.4,144.1,86.1,144.1,86.1z"/>
	
		<linearGradient id="SVGID_00000176027735229913446700000005185244044493300113_" gradientUnits="userSpaceOnUse" x1="259.1915" y1="350.8467" x2="178.684" y2="-128.106" gradientTransform="matrix(1 0 0 -1 0 352)">
		<stop  offset="0" style="stop-color:#F64C50"/>
		<stop  offset="0.3441" style="stop-color:#B94451"/>
		<stop  offset="1" style="stop-color:#3A3352"/>
	</linearGradient>
	<path style="fill:url(#SVGID_00000176027735229913446700000005185244044493300113_);" d="M235.1,194.3c0,0-20,2.7-19.1,15.5
		c0.9,12.7,4.6,14.6-5.5,24.6s-16.4,10.9-21.8,23.7c-5.5,12.7-19.1,13.6-16.4,24.6c2.7,10.9,9.1,1.8,21.8,0
		c12.7-1.8,17.3,0,32.7-9.1s6.4-24.6,18.2-36.4c11.8-11.8,20.9-26.4,20.9-37.3s0-34.6-9.1-27.3C247.8,179.8,235.1,194.3,235.1,194.3
		z"/>
</g>
</svg>
