
<svg version="1.1" id="Layer_1" xmlns="http://www.w3.org/2000/svg" xmlns:xlink="http://www.w3.org/1999/xlink" x="0px" y="0px"
	 viewBox="0 0 780 160" style="enable-background:new 0 0 780 160;" xml:space="preserve">
<style type="text/css">
	.st0{fill:#FFFFFF;}
</style>
<g>
	<g>
		<g>
			<path class="st0" d="M75.77,39.24c-20.1-0.09-32.83,15.19-32.83,41.7c0,26.7,12.17,42.08,32.83,42.08
				c18.21,0,28.4-9.53,28.87-24.34H77.09V75.09h58.49v17.93c0,36.42-25,58.31-60,58.31c-39.06,0-65.48-26.79-65.48-70
				c0-44.63,28.59-70.38,64.91-70.38c31.51,0,55.76,19.15,59.25,46.42h-32.64C98.5,45.94,89.26,39.15,75.77,39.24z"/>
			<path class="st0" d="M211.45,151.33c-36.79,0-64.91-25.38-64.91-70.19c0-45.1,28.11-70.19,64.91-70.19
				c36.61,0,65,25.1,64.91,70.19C276.46,126.14,248.06,151.33,211.45,151.33z M211.45,123.02c20,0,32.17-14.72,32.08-41.89
				c0.09-27.17-12.08-41.98-32.08-41.89c-19.91-0.09-32.08,14.72-32.08,41.89S191.55,123.02,211.45,123.02z"/>
			<path class="st0" d="M328.46,12.83l35.29,86.04h1.51l35.28-86.04h39.81v136.61h-31.32V64.53h-1.13l-33.21,84.16h-20.38
				L321.1,64.15h-1.13v85.29h-31.32V12.83H328.46z"/>
			<path class="st0" d="M454.34,149.44V12.83h50c41.7,0,67.36,25.57,67.36,68.31c0,42.64-25.66,68.31-67.36,68.31H454.34z
				 M503.21,121.89c23.4,0.09,36.23-11.13,36.23-40.76c0-29.72-12.83-40.85-36.61-40.95h-16.42v81.7H503.21z"/>
			<path class="st0" d="M581.73,98.68c0-31.98,18.87-53.02,46.79-53.02c27.83,0,46.51,21.04,46.42,53.02
				c0.09,31.79-18.59,52.93-46.42,52.83C600.59,151.61,581.73,130.48,581.73,98.68z M628.52,137.17c20.66,0,30.19-18.02,30.19-38.49
				c0-20.38-9.53-38.68-30.19-38.68c-20.85,0-30.47,18.3-30.57,38.68C598.05,119.15,607.67,137.17,628.52,137.17z"/>
			<path class="st0" d="M689.49,46.98h15.66v15.66h1.13c3.68-10.38,14.34-17.27,26.42-17.36c2.45,0.09,6.6,0.19,8.49,0.38v16.42
				c-1.23-0.28-5.57-1.13-9.81-1.13c-14.72,0-25.66,10.19-25.66,23.96v64.53h-16.23V46.98z"/>
			<path class="st0" d="M758.39,8.49c6.23-0.09,11.42,4.72,11.51,10.76C769.8,25.19,764.62,30,758.39,30s-11.42-4.81-11.32-10.76
				C746.97,13.2,752.16,8.39,758.39,8.49z M750.27,46.98h16.23v102.46h-16.23V46.98z"/>
		</g>
	</g>
</g>
</svg>
