<?xml version="1.0" encoding="utf-8"?>
<!-- Generator: Adobe Illustrator 28.2.0, SVG Export Plug-In . SVG Version: 6.00 Build 0)  -->
<svg version="1.1" id="Layer_1" xmlns="http://www.w3.org/2000/svg" xmlns:xlink="http://www.w3.org/1999/xlink" x="0px" y="0px"
	 viewBox="0 0 260 300" style="enable-background:new 0 0 260 300;" xml:space="preserve">
<style type="text/css">
	.st0{fill:none;stroke:#000000;stroke-width:0.2491;stroke-miterlimit:10;}
	.st1{fill:url(#SVGID_1_);}
	.st2{fill:#FBE692;}
	.st3{fill:#9C784A;}
	.st4{fill:url(#SVGID_00000109709811876629899100000000164168393784306336_);}
	.st5{fill:url(#SVGID_00000085933338287533199370000015659654535067476671_);}
	.st6{fill:#FFFEE1;}
	.st7{fill:none;stroke:#000000;stroke-width:0.1692;stroke-miterlimit:10;}
	.st8{fill:none;stroke:#000000;stroke-width:0.0846;stroke-miterlimit:10;}
	.st9{fill:url(#SVGID_00000110469121978058730530000003892461527553831573_);}
	
		.st10{fill:url(#SVGID_00000078734003569731166960000018323510733359152826_);stroke:#2D1E0F;stroke-width:1.3285;stroke-miterlimit:10;}
	.st11{fill:none;stroke:#000000;stroke-width:0.3384;stroke-miterlimit:10;}
	.st12{fill:url(#SVGID_00000089564447338126648950000010971299200273464217_);}
	.st13{fill:url(#SVGID_00000041287429366024152670000015803987504792474779_);}
	.st14{fill:#FFFFFF;}
	.st15{fill:#FF7761;}
	.st16{opacity:0.5;}
	.st17{fill:none;stroke:#000000;stroke-width:0.3321;stroke-miterlimit:10;}
	.st18{opacity:0.59;}
	.st19{opacity:0.53;}
	.st20{opacity:0.81;}
	.st21{fill:#F5F5EE;}
	.st22{opacity:0.3;}
	.st23{fill:#EDD1AA;}
	.st24{fill:#2D1E0F;}
	.st25{fill:#FF5C51;}
	.st26{fill:#FFE58C;}
	.st27{fill:#39B54A;}
	.st28{opacity:0.3;fill:#2A0B0B;}
	.st29{opacity:0.15;fill:#2D1E0F;}
	.st30{opacity:0.3;fill:#2D1E0F;}
	.st31{opacity:0.35;fill:#2D1E0F;}
	.st32{opacity:0.9;}
</style>
<g>
	<g>
		<g>
			<g>
				<g>
					<path d="M82.52,260.36C82.52,260.36,82.52,260.36,82.52,260.36C82.39,260.32,82.43,260.33,82.52,260.36z"/>
					<line class="st0" x1="35.9" y1="150.12" x2="35.9" y2="150.11"/>
					<linearGradient id="SVGID_1_" gradientUnits="userSpaceOnUse" x1="202.6161" y1="127.4487" x2="224.4579" y2="127.4487">
						<stop  offset="0.0282" style="stop-color:#6F53C8"/>
						<stop  offset="0.0524" style="stop-color:#7657C8"/>
						<stop  offset="0.1354" style="stop-color:#8762CB"/>
						<stop  offset="0.2388" style="stop-color:#9269CD"/>
						<stop  offset="0.3839" style="stop-color:#996ECE"/>
						<stop  offset="0.7868" style="stop-color:#9B6FCE"/>
						<stop  offset="0.8381" style="stop-color:#976ECC"/>
						<stop  offset="0.8909" style="stop-color:#8B6BC8"/>
						<stop  offset="0.9441" style="stop-color:#7665C0"/>
						<stop  offset="0.976" style="stop-color:#6661BA"/>
					</linearGradient>
					<path class="st1" d="M210.22,141.34c0,0,2.05-1.61,4.19-4.59c2.15-2.99,4.2-4.47,4.2-4.47s4.18-3.38,5.85-6.3
						c0,0-2.41-5.44-12.3-9l-9.54-3.42C202.62,113.56,208.47,123.66,210.22,141.34z"/>
					<path class="st2" d="M243.95,83.95c0.41,0.29,0.55,0.84,0.32,1.29c-3.9,7.51-7.71,15.06-11.42,22.67
						c-1.83,3.75-3.64,7.52-5.42,11.3c-0.7,1.48-1.4,2.97-2.2,4.39c-0.36,0.63-0.96,2.07-1.4,1.49c-0.84-1.11-2.37-2.68-3.44-3.45
						c-5.41-3.94-11.54-5.66-17.56-8.51c-0.21-0.1-0.62-1.02-0.72-1.22c-1.38-2.83-2.83-5.65-3.62-8.67v0
						c-0.25-0.66-0.53-1.29-0.84-1.88v0c-2.07-3.97-4.71-6.81-6.85-10.79c-0.14-0.26-0.18-0.58-0.05-0.85
						c0.01-0.01,0.02-0.03,0.03-0.04c0.07-0.09,0.13-0.18,0.17-0.28c1.95-5.32,3.89-10.63,5.84-15.95c0.49-1.34,0.98-2.68,1.47-4.02
						c0.99-2.72,2.22-4.98,3.54-7.48c0.23-0.43,0.74-0.64,1.2-0.49c0.34,0.11,0.67,0.21,1,0.3c1.1,0.31,2.16,0.54,3.33,1.01
						c6.1,2.44,12.24,4.91,17.88,8.35c1.99,1.21,3.91,2.55,5.84,3.88c2.07,1.44,4.14,2.88,6.21,4.31v0
						c0.01,0.02,0.02,0.02,0.03,0.02l0.82,0.57C240.06,81.25,242,82.6,243.95,83.95z"/>
					<path class="st3" d="M83.7,259.82c0,0,12.63,4.27,23.2,3.25c0,0,10.68-2.48,18.02-4.78c0,0-3.77,14.22-5.11,18.92
						c0,0,0.46,3.64-16,5.32c0,0-5.24,0.7-13.67-4.37c0,0-1.17-2.15-1.78-4.3c-0.61-2.15-2.9-10.16-2.9-10.16L83.7,259.82z"/>
					<path class="st3" d="M142.07,264.43c0,0,12.32,0.35,22.89-0.6c0,0,9.9-0.28,15.97-3.03c0,0,1.72,0.21,0.67,1.76
						c-2.18,3.2-3.6,11.33-3.81,13.82c0,0-0.76,3.86-3.36,4.03c0,0-7.42,5.52-19.55,2.3c0,0-6.62-1.19-8.7-4.82
						c0,0-1.17-2.06-1.78-4.08s-1.6-5.7-1.6-5.7L142.07,264.43z"/>
					
						<linearGradient id="SVGID_00000078738028533345147150000003040023100125597589_" gradientUnits="userSpaceOnUse" x1="68.761" y1="33.7387" x2="190.7812" y2="111.7174">
						<stop  offset="0.0282" style="stop-color:#6A2C00"/>
						<stop  offset="0.0657" style="stop-color:#753D10"/>
						<stop  offset="0.129" style="stop-color:#835326"/>
						<stop  offset="0.2039" style="stop-color:#8F6436"/>
						<stop  offset="0.2964" style="stop-color:#966F42"/>
						<stop  offset="0.4263" style="stop-color:#9B7648"/>
						<stop  offset="0.7868" style="stop-color:#9C784A"/>
						<stop  offset="0.8241" style="stop-color:#A07B4D"/>
						<stop  offset="0.8624" style="stop-color:#AC8455"/>
						<stop  offset="0.9013" style="stop-color:#C19363"/>
						<stop  offset="0.9402" style="stop-color:#DEA776"/>
						<stop  offset="0.976" style="stop-color:#FFBF8C"/>
					</linearGradient>
					<path style="fill:url(#SVGID_00000078738028533345147150000003040023100125597589_);" d="M68.7,100.01
						c-0.38-3.99-4.13-40.55,3.53-50.27c0.02-0.02,0.03-0.05,0.05-0.07c0.56-1,12.49-21.57,39.53-25.94c0.02,0,0.03-0.01,0.05-0.01
						c0.94-0.24,31.31-7.88,50.54,3.74c0.06,0.03,0.12,0.06,0.18,0.07c1.16,0.28,13.72,4.08,22.26,41.32l4.59,20.55
						c0.01,0.05,0.03,0.11,0.06,0.15l0.17,0.34c0.14,0.27,0.07,0.59-0.16,0.78c-2.49,2.07-17.32,13.88-56.64,36.72
						c-0.14,0.08-0.3,0.11-0.46,0.07c-1.79-0.39-13.67-3.32-63.35-26.95C68.86,100.43,68.72,100.23,68.7,100.01z"/>
					
						<linearGradient id="SVGID_00000114035312116679293490000001774847876492991644_" gradientUnits="userSpaceOnUse" x1="63.9148" y1="170.496" x2="224.3019" y2="272.9936">
						<stop  offset="0.0282" style="stop-color:#6F53C8"/>
						<stop  offset="0.0524" style="stop-color:#7657C8"/>
						<stop  offset="0.1354" style="stop-color:#8762CB"/>
						<stop  offset="0.2388" style="stop-color:#9269CD"/>
						<stop  offset="0.3839" style="stop-color:#996ECE"/>
						<stop  offset="0.7868" style="stop-color:#9B6FCE"/>
						<stop  offset="0.8381" style="stop-color:#976ECC"/>
						<stop  offset="0.8909" style="stop-color:#8B6BC8"/>
						<stop  offset="0.9441" style="stop-color:#7665C0"/>
						<stop  offset="0.976" style="stop-color:#6661BA"/>
					</linearGradient>
					<path style="fill:url(#SVGID_00000114035312116679293490000001774847876492991644_);" d="M216.62,172.25
						c0,0-2.24,26.75,4.99,47.15c0,0,24.03,32.57,12.89,35.72c0,0-2.52,1.94-8.57,2.47c0,0-0.06,0.48-12.86,2.06
						c-8.07,0.99-16.82-0.45-27.94,1.26c-10.19,1.57-19.79,7.29-31.87,8.04c-8.13,0.51-14.76-9.79-23.54-10.49
						c-7.14-0.56-25.94,5.37-30.12,5.51c0,0-4.01-1.05-35.45-8.27c0,0-13.89,2.74-17.77-0.63c0,0-3.08-4.22-0.75-20.2
						c0,0,7.63-34.05,8.48-48.99c0,0,4.44-8.83,12.98-3.97c0,0,23.44,9.89,58.96,6.65c0,0,12.84-0.54,16.46-0.91
						c3.62-0.37,16.35-1.31,24.29-3.88S216.62,172.25,216.62,172.25z"/>
					<path class="st2" d="M68.33,179.46c0,0-4.63,4.11-5.19,16.76c0,0-0.04,5.26,0.74,11.52c0.78,6.26,0.78,19.75,0.78,19.75
						s0.8,11.12,3.34,22.96c0,0,0.82,2.9-6.89,3.84c0,0-2.64-0.06-3.81-0.64c0,0,3.03,0.91,3.01-1.61c0,0-2.32-12.48-2.13-26.63
						c0,0-0.67-12.17,0.11-14.69c0,0,2.08-18.26,3.55-23.56C61.85,187.15,62.69,179.96,68.33,179.46z"/>
					<path class="st6" d="M68.33,179.46c0,0-3.54-0.79-4.58-4.28c0,0-6.92,0.61-8.79,7.4c0,0-1.33,2.12-2.53,12.53l-5.93,34.85
						c0,0,1.28,4.67,0,9.53c0,0-0.91,5.67-0.94,11.3c0,0,7.52,3.51,11.83,3.45c0,0,3.6,0.15,2.82-2.76c0,0-2.5-16.32-1.92-21.58
						c0,0,0.03-10.99-0.38-13.83c0,0,0.01-3.24,1.66-15.58c0,0,1.14-9.34,2.17-12.97C61.75,187.53,62.19,180.27,68.33,179.46z"/>
					<path class="st7" d="M190.93,89.53c-0.02,0.01-0.03,0.03-0.05,0.04"/>
					<path class="st7" d="M132.84,127.4c-0.06,0.04-0.13,0.08-0.19,0.12"/>
					<line class="st7" x1="68.18" y1="100.01" x2="68.18" y2="100.01"/>
					<path class="st7" d="M59.51,112.23"/>
					<path class="st7" d="M125.62,141.79c-1.1,0.48,0.09-0.26,0.06-0.27"/>
					<path class="st7" d="M197.68,101.31c-0.01,0.01-0.02,0.02-0.04,0.03"/>
					<path class="st8" d="M58.47,157.72c-0.13,0.02-0.26,0.03-0.39,0.04"/>
					<path class="st8" d="M52.23,198.54c-0.05,0.01-0.1,0.03-0.15,0.04c-0.02,0.01-0.04,0.01-0.07,0.02"/>
					<line class="st8" x1="224.39" y1="124.97" x2="224.39" y2="124.97"/>
					<path class="st8" d="M202.27,112.22c-0.02-0.01-0.04-0.02-0.06-0.03"/>
					<path class="st7" d="M126.04,141.52C126.03,141.52,126.05,141.51,126.04,141.52"/>
					<path class="st7" d="M68.17,181.12"/>
					
						<linearGradient id="SVGID_00000106870313484493828660000013275219921924502693_" gradientUnits="userSpaceOnUse" x1="101.1282" y1="117.859" x2="42.3416" y2="183.8988">
						<stop  offset="0" style="stop-color:#FF6A47"/>
						<stop  offset="0.0206" style="stop-color:#F86A53"/>
						<stop  offset="0.0544" style="stop-color:#F06A5E"/>
						<stop  offset="0.102" style="stop-color:#EC6A65"/>
						<stop  offset="0.2342" style="stop-color:#EB6A67"/>
						<stop  offset="0.4015" style="stop-color:#E96664"/>
						<stop  offset="0.5736" style="stop-color:#E15A5A"/>
						<stop  offset="0.7479" style="stop-color:#D5454B"/>
						<stop  offset="0.9227" style="stop-color:#C42835"/>
						<stop  offset="0.976" style="stop-color:#BE1E2D"/>
					</linearGradient>
					<path style="fill:url(#SVGID_00000106870313484493828660000013275219921924502693_);" d="M126.13,142.2
						c-3.48,1.02-6.26,2.21-9.39,4.07c-11.87,7.05-23.33,15.29-35.52,21.58c-5.82,3-11.8,5.56-18.07,7.34
						c-0.39,0.03-0.77,0.16-1.14,0.31c-0.12,0.04-0.23,0.09-0.34,0.14c-1.88,0.82-3.86,1.71-5.07,3.42
						c-0.55,0.78-0.91,1.69-1.27,2.59c-0.45,1.14-0.9,2.29-1.35,3.44c1.53-9.1,3.28-18.17,4.1-27.33c0.25-2.72,0.41-5.45,0.45-8.19
						c0.09-5.13-0.22-10.26-0.38-15.39c-0.14-4.26-0.17-8.53-0.2-12.79c-0.02-2.86-0.32-6.73,1.36-8.99
						c0.07-0.06,0.13-0.11,0.2-0.17c1.61,1.7,3.59,3.37,5.55,4.63c1.79,1.14,3.69,2.08,5.62,2.95c4,1.81,8.1,3.36,12.2,4.91
						c13.33,5.04,26.39,10.84,39.72,15.88C123.83,141.07,124.91,141.74,126.13,142.2z"/>
					
						<linearGradient id="SVGID_00000010304629152300829050000013926379230877072830_" gradientUnits="userSpaceOnUse" x1="123.0605" y1="111.6324" x2="66.9172" y2="172.4963">
						<stop  offset="0" style="stop-color:#FFFEE1"/>
						<stop  offset="0.2228" style="stop-color:#FFFDDF"/>
						<stop  offset="0.3409" style="stop-color:#FEFBD7"/>
						<stop  offset="0.4343" style="stop-color:#FEF7C9"/>
						<stop  offset="0.5149" style="stop-color:#FDF1B6"/>
						<stop  offset="0.5865" style="stop-color:#FCE99E"/>
						<stop  offset="0.6137" style="stop-color:#FBE692"/>
						<stop  offset="0.6596" style="stop-color:#FCEDB2"/>
						<stop  offset="0.7114" style="stop-color:#FDF4CE"/>
						<stop  offset="0.7673" style="stop-color:#FEF9E4"/>
						<stop  offset="0.8285" style="stop-color:#FFFCF3"/>
						<stop  offset="0.899" style="stop-color:#FFFEFC"/>
						<stop  offset="1" style="stop-color:#FFFFFF"/>
					</linearGradient>
					
						<path style="fill:url(#SVGID_00000010304629152300829050000013926379230877072830_);stroke:#2D1E0F;stroke-width:1.3285;stroke-miterlimit:10;" d="
						M189.89,90.34c-1.44,1.13-2.87,2.26-4.31,3.39c-2.07,1.62-4.13,3.25-6.28,4.77c-2.76,1.95-5.63,3.72-8.49,5.49
						c-4.34,2.68-8.68,5.35-13.03,8.03c-8.31,5.13-16.63,10.26-24.94,15.38h0c-10.86-3.15-21.87-7.29-32.07-12.29
						c-10.74-5.26-20.76-11.99-32.31-14.86c-0.15,0.77-0.76,1.36-1.19,2.02c-2.3,3.49-4.96,6.71-7.71,9.83
						c-0.08,0.1-0.16,0.19-0.24,0.3c0.07-0.06,0.13-0.11,0.2-0.17c1.61,1.7,3.59,3.37,5.55,4.63c1.79,1.14,3.69,2.08,5.62,2.95
						c4,1.81,8.1,3.36,12.2,4.91c13.33,5.04,26.28,10.87,39.61,15.91c1.22,0.46,2.21,1.24,3.43,1.7c-3.48,1.02-6.04,2.07-9.18,3.93
						c-11.87,7.05-23.33,15.29-35.52,21.58c-5.82,3-11.8,5.56-18.07,7.34c0.21-0.02-0.07,0.24,0.14,0.29
						c0.38,1.28,2.21,2.89,3.32,3.54c1.13,0.66,2.38,0.66,3.63,1c1.7,0.46,3.51,0.92,5.18,0.36c0.86-0.29,1.62-0.84,2.37-1.38
						c0.55-0.4,1.11-0.81,1.61-1.28c2.76-0.31,5.56,0.52,8.34,0.9c6.99,0.95,14.73-1.65,21.78-1.76c1.87-0.03,3.62,0.53,4.54-1.14
						c0.63-1.41,0.89-3.34,0.52-4.83c-0.15-0.63-0.11-1.6-0.43-2.16c-0.33-0.57-0.55-0.94-0.82-1.39c-0.1-0.17-0.2-0.34-0.32-0.54
						c-0.01-0.01-0.01-0.02-0.02-0.04c-0.91-1.37-2.42-1.61-4.06-2.13c14.03-8.89,28.31-18.36,42.62-26.73
						c2.04-1.2,4.08-2.38,6.05-3.69c2.15-1.41,4.21-2.95,6.25-4.51c11.69-8.88,22.97-18.35,33.79-28.35v0
						C195.51,97.24,192.07,94.55,189.89,90.34z"/>
					<path class="st8" d="M114.06,175.69c0,0.01-0.01,0.02-0.01,0.02"/>
					<path class="st8" d="M112.98,166.76c0-0.01-0.01-0.01-0.01-0.02"/>
					<path class="st8" d="M114.05,175.72c-0.01,0.03-0.02,0.06-0.04,0.08"/>
					<path class="st7" d="M45.99,253.43"/>
					<path class="st3" d="M173.34,38.54c-1.16-1.96-2.33-3.2-3.9-4.84c2.05-3.85,0.84-7.55-2.45-10.33
						c-3.17-2.69-8.03-1.8-11.27,0.77c-1.91-0.64-4.52-1.41-6.5-1.81c1.53-5.06,7.87-7.62,12.75-6.59c5.17,1.09,10,3.55,12.9,9.1
						c0.54,1.04,1.05,3.57,1.14,5.05C176.16,32.66,175.01,36.37,173.34,38.54z"/>
					<path class="st8" d="M134.46,79.97"/>
					<path class="st11" d="M68.35,94.86"/>
					<path class="st11" d="M68.46,96.23"/>
					<path class="st11" d="M68.67,97.86"/>
					<path class="st11" d="M68.67,97.34"/>
					<path class="st11" d="M69.22,97.84"/>
					<path class="st11" d="M68.7,92.99"/>
					<path class="st11" d="M69.27,96.49"/>
					<path class="st3" d="M89.85,31.95c-2.28,1.43-4.45,3.04-6.5,4.8c-1.21-1.11-2.89-1.57-4.5-1.49c-1.53,0.08-3.01,0.59-4.4,1.28
						c-2.16,1.06-3.9,2.91-4.74,5.23c-0.34,0.92-0.72,1.91-0.68,2.81c0.06,1.58,1.8,6.82,1.85,7.64c-0.02,0.03,0.23-0.69,0.22-0.66
						c0,0-0.27,0.77-0.27,0.77c-0.24,0.46-0.2,0.15-0.41,0.62c0,0.01-0.01,0.01-0.01,0.02c-0.52,0.99-1.18,3-1.63,4.02
						c-3-2.02-5.36-7.42-5.86-11.06c-0.31-2.25-0.25-3.72,0.16-5.95c1.09-5.93,5.97-11.17,11.61-12.64
						C80.25,25.89,86.17,27.37,89.85,31.95z"/>
					<path class="st6" d="M83.35,36.76c-5.01,4.3-9.3,9.51-12.5,15.37c0.07-0.18,0.15-0.37,0.23-0.55c0,0,0-0.01,0.01-0.01
						c0.01-0.03-0.25,0.03-0.24,0c-0.86-1.94-1.61-5.43-1.67-7.01c-0.04-0.9,0.19-1.87,0.53-2.79c0.85-2.32,2.58-4.17,4.74-5.23
						c1.39-0.68,2.87-1.2,4.4-1.28C80.46,35.18,82.14,35.64,83.35,36.76z"/>
					<path class="st6" d="M169.16,33.31c-3.19-3.35-11.82-8.65-12.94-9.03c3.24-2.57,7.74-3.26,10.9-0.58
						C170.4,26.48,171.21,29.46,169.16,33.31z"/>
					
						<linearGradient id="SVGID_00000075883257600163978550000006508140924806564239_" gradientUnits="userSpaceOnUse" x1="126.1183" y1="114.7926" x2="147.8231" y2="190.8762">
						<stop  offset="0" style="stop-color:#ED1C24"/>
						<stop  offset="0.0272" style="stop-color:#ED2F34"/>
						<stop  offset="0.0688" style="stop-color:#EC4547"/>
						<stop  offset="0.1179" style="stop-color:#EC5655"/>
						<stop  offset="0.1786" style="stop-color:#EB6160"/>
						<stop  offset="0.2639" style="stop-color:#EB6865"/>
						<stop  offset="0.5005" style="stop-color:#EB6A67"/>
						<stop  offset="0.6381" style="stop-color:#E96765"/>
						<stop  offset="0.7381" style="stop-color:#E45E5E"/>
						<stop  offset="0.8262" style="stop-color:#DA4E52"/>
						<stop  offset="0.907" style="stop-color:#CD3841"/>
						<stop  offset="0.976" style="stop-color:#BE1E2D"/>
					</linearGradient>
					<path style="fill:url(#SVGID_00000075883257600163978550000006508140924806564239_);" d="M197.68,101.31
						c0,0,3.5,9.07,4.91,11.57c0,0,6.12,13.04,7.63,28.45c1.51,15.41,5.34,30.57,5.34,30.57s-20.87,4.14-30.7,6.52
						s-28.52,8.23-47.22,8.57c-18.7,0.33-41.14,4.56-70.55-5.87l1.24-1.66c0,0,6.35,4.66,11.27-1.76c0,0,4.46-0.34,8.37,0.89
						s13.35-0.36,13.35-0.36s6.54-1.57,10.26-1.14c0,0,4.37,0.89,2.15-8.12c0,0-0.85-2.24-4.81-4.41c0,0,39.08-24.97,47.38-29.52
						C164.6,130.49,192.38,106.67,197.68,101.31z"/>
					
						<linearGradient id="SVGID_00000165945046279669359460000000355307992956579502_" gradientUnits="userSpaceOnUse" x1="35.704" y1="136.7065" x2="57.6318" y2="136.7065">
						<stop  offset="0.0282" style="stop-color:#6F53C8"/>
						<stop  offset="0.0524" style="stop-color:#7657C8"/>
						<stop  offset="0.1354" style="stop-color:#8762CB"/>
						<stop  offset="0.2388" style="stop-color:#9269CD"/>
						<stop  offset="0.3839" style="stop-color:#996ECE"/>
						<stop  offset="0.7868" style="stop-color:#9B6FCE"/>
						<stop  offset="0.8381" style="stop-color:#976ECC"/>
						<stop  offset="0.8909" style="stop-color:#8B6BC8"/>
						<stop  offset="0.9441" style="stop-color:#7665C0"/>
						<stop  offset="0.976" style="stop-color:#6661BA"/>
					</linearGradient>
					<path style="fill:url(#SVGID_00000165945046279669359460000000355307992956579502_);" d="M57.21,134.94
						c0.16,5.13,0.46,10.26,0.38,15.39c-0.05,2.74-0.21,5.47-0.45,8.19c-2.89,0.21-5.78-0.96-8.52-2.05
						c-2.17-0.86-4.46-1.31-6.67-2.05c-2.21-0.73-4.71-1.94-6.24-3.74c2-3.53,4.09-7.69,5.74-11.41c1.22-2.75,2.3-5.57,3.62-8.28
						c3.17-6.51,7.11-11.54,12.57-16.15c0,2.19-0.04,4.26-0.02,7.13C57.65,126.24,57.08,130.68,57.21,134.94z"/>
					<path class="st2" d="M57.13,158.53c-0.82,9.16-2.57,18.23-4.1,27.33c-0.76,4.49-1.46,8.99-1.97,13.5
						c-4.56,1.18-8.59-0.02-13.13-1.45c-7.85-2.47-15.33-6.21-22.09-11.03c1.86-3.32,3.3-6.87,4.94-10.3
						c0.01-0.03,0.03-0.06,0.04-0.09c2.33-4.88,5.03-9.55,7.81-14.18c2.43-4.05,4.92-8.08,7.26-12.19c1.53,1.8,4.03,3.01,6.24,3.74
						c2.21,0.73,4.5,1.19,6.67,2.05C51.55,156.99,54.24,158.74,57.13,158.53z"/>
					<path class="st3" d="M35.38,197.35c0,0,2.54,13.26,14.73,11.55l0.79-9.17C50.9,199.72,48.11,202.15,35.38,197.35z"/>
					<g>
						<g>
							<path class="st14" d="M179.16,47.16c0.04,0,0.04-0.34-0.01-0.34C179.11,46.82,179.11,47.16,179.16,47.16L179.16,47.16z"/>
						</g>
					</g>
					<g>
						<g>
							<g>
								<path class="st15" d="M100.5,69.33c-0.5-2.36-3.2-3.34-5.51-3.63c-0.82-0.1-1.66-0.17-2.45,0.07
									c-0.64,0.19-1.21,0.58-1.7,1.05c-1.81,1.75-2.29,4.73-1.33,7.1c0.96,2.36,3.22,4.04,5.66,4.46c2.44,0.41,5-0.37,6.99-1.89
									c0.8-0.61,1.57-1.48,1.52-2.5c-0.04-0.79-0.55-1.46-1.06-2.05c-1.71-1.97-3.67-3.72-5.82-5.17"/>
							</g>
							<g class="st16">
								<g>
									<path class="st14" d="M96.91,76.52c-0.22-0.08-0.45-0.16-0.67-0.24c0.01,0.33,0.02,0.65,0.02,0.98
										c2.5,0.04,5.42-0.08,6.86-2.48c-0.05-0.34-0.11-0.69-0.16-1.03c-0.31,1.95-4.33,2.4-5.85,2.71
										c-0.2,0.04-0.17,1.1,0.03,1.15c1.79,0.43,3.67,0.06,4.98-1.28c0.14-0.14,0.03-1.02-0.08-0.94
										c-1.55,1.02-3.08,1.53-4.92,1.07c0.01,0.38,0.02,0.76,0.03,1.15c1.85-0.38,5.57-0.69,6.04-2.99
										c0.03-0.13-0.07-1.15-0.16-1.03c-1.61,2.24-4.21,2.55-6.78,2.69c-0.15,0.01-0.15,0.93,0.02,0.98
										c0.22,0.06,0.45,0.13,0.67,0.19C97,77.47,97.12,76.59,96.91,76.52L96.91,76.52z"/>
								</g>
							</g>
						</g>
						<g>
							<g>
								<path class="st15" d="M157.59,62.22c-3.79-0.24-7.61,2.2-9.12,5.82c-0.39,0.94-0.64,1.99-0.41,2.98
									c0.31,1.38,1.5,2.42,2.82,2.78s2.72,0.16,4.02-0.29c3.77-1.29,6.85-4.61,7.94-8.57c0.2-0.73,0.33-1.52,0.06-2.22
									c-0.4-1.05-1.62-1.55-2.7-1.45s-2.07,0.67-3.01,1.22"/>
							</g>
							<g class="st16">
								<g>
									<path class="st14" d="M148.53,70.16c-0.01-0.04-0.02-0.07-0.03-0.11c-0.01-0.02-0.02-0.09-0.05-0.09
										c-0.03-0.01-0.07-0.02-0.1-0.03c-0.08-0.02-0.07,0.48-0.07,0.49c0.08,1.08,1.66,1.86,2.48,2.35
										c1.61,0.96,3.5,1.37,5.02,0.06c0.11-0.09,0.02-0.86-0.04-0.84c-1.2,0.44-2.42,0.55-3.65,0.18
										c-0.78-0.24-1.49-0.65-2.17-1.1c-0.35-0.24-1.34-0.72-1.52-1.09c0,0.24,0,0.47,0,0.71c0.03-0.02,0.06-0.04,0.09-0.07
										C148.55,70.68,148.54,70.2,148.53,70.16L148.53,70.16z"/>
								</g>
							</g>
						</g>
					</g>
					<path class="st17" d="M237.71,78.42c0.17,0.02-0.28,0.88-0.41,0.92"/>
					<path class="st3" d="M238.12,79.9l-0.82-0.57c-0.01-0.01-0.02-0.01-0.03-0.02v0c-2.07-1.43-4.33-2.35-6.4-3.78
						c-1.92-1.33-3.82-2.74-5.81-3.95c-5.64-3.44-11.78-5.91-17.88-8.35c-1.18-0.47-2.07-1.16-3.16-1.47
						c2.66-7.06,10.32-11.71,17.55-10.6c2.19,0.33,4.29,1.13,6.24,2.19c0.58,0.31,1.15,0.65,1.71,1.02
						c0.01,0.01,0.03,0.01,0.04,0.02c0.42,0.27,0.82,0.55,1.22,0.85c2.92,2.18,5.37,5.03,6.95,8.38
						C239.79,68.05,239.73,75.27,238.12,79.9z"/>
					<g>
						<g>
							<path class="st14" d="M81.59,132.79c4.38,1.96,8.88,3.61,13.51,4.9c0.03,0.01,0.07-0.28-0.01-0.3
								c-4.62-1.33-9.11-2.94-13.51-4.89C81.57,132.49,81.51,132.75,81.59,132.79L81.59,132.79z"/>
						</g>
					</g>
					<g class="st18">
						<g>
							<path class="st14" d="M98.37,136.17c6.41,1.97,12.82,3.96,19.25,5.89c0.03,0.01,0.07-0.26-0.01-0.29
								c-6.4-2-12.83-3.94-19.25-5.9C98.33,135.86,98.29,136.15,98.37,136.17L98.37,136.17z"/>
						</g>
					</g>
					<g>
						<g>
							<path class="st14" d="M85.9,255.54c-9.79-1.92-11.51-18.17-12.72-26.03c-1.61-10.42-1.84-20.97-2.12-31.5
								c-0.01-0.54-0.27-0.55-0.26,0.01c0.21,12.22,0.52,24.55,2.89,36.57c1.42,7.19,3.39,20.3,12.23,21.97
								C86.08,256.59,86.16,255.59,85.9,255.54L85.9,255.54z"/>
						</g>
					</g>
					<g class="st19">
						<g>
							<path class="st14" d="M89.24,241.69c-8.4-15.2-12.63-32.06-12.51-49.43c0-0.46-0.22-0.46-0.23,0.01
								c-0.18,17.54,4.11,34.69,12.65,50.02C89.24,242.45,89.32,241.83,89.24,241.69L89.24,241.69z"/>
						</g>
					</g>
					<g class="st20">
						<g>
							<path class="st21" d="M202.57,188.38c2.1,8.97,7.44,16.6,10.16,25.33c3.42,10.97,1.69,21.02-2.17,31.53
								c-0.24,0.65,0.21,4.5,1.2,3.01c5.44-8.13,6.14-19.64,4.62-29.04c-1.92-11.84-9.89-20.86-12.74-32.27
								C203.2,185.18,202.36,187.48,202.57,188.38L202.57,188.38z"/>
						</g>
					</g>
					<path d="M46.6,193.28c-1.88-0.38-3.74-0.92-5.52-1.61l-0.09,0.23c1.8,0.7,3.68,1.24,5.57,1.62L46.6,193.28z"/>
					<path d="M207.63,79.94c0.05,0,0.05-0.17,0-0.17c-2.81-0.05-5.48-0.55-8.07-1.65c-0.07-0.03-0.08,0.21-0.02,0.23
						C202.13,79.46,204.81,80.04,207.63,79.94z"/>
					<path d="M231,92.74c0.05,0.01,0.06-0.2,0.01-0.22c-4.83-1.52-9.43-3.33-13.92-5.67c-0.05-0.03-0.06,0.15-0.02,0.18
						C221.41,89.51,226.15,91.52,231,92.74z"/>
					<g class="st22">
						<path class="st21" d="M176.49,199.91L176.49,199.91c-0.45,0.18-0.96-0.04-1.14-0.49l-1.51-3.74
							c-0.18-0.45,0.04-0.96,0.49-1.14h0c0.45-0.18,0.96,0.04,1.14,0.49l1.51,3.74C177.16,199.22,176.94,199.73,176.49,199.91z"/>
						<path class="st21" d="M178.45,199.44L178.45,199.44c-0.46-0.15-0.71-0.64-0.56-1.1l1.24-3.84c0.15-0.46,0.64-0.71,1.1-0.56
							l0,0c0.46,0.15,0.71,0.64,0.56,1.1l-1.24,3.84C179.4,199.34,178.91,199.59,178.45,199.44z"/>
						<path class="st21" d="M174.56,201.01L174.56,201.01c0.23-0.43,0.07-0.96-0.36-1.19l-3.56-1.9c-0.43-0.23-0.96-0.07-1.19,0.36
							l0,0c-0.23,0.43-0.07,0.96,0.36,1.19l3.56,1.9C173.8,201.6,174.33,201.43,174.56,201.01z"/>
						<path class="st21" d="M179.61,201.2L179.61,201.2c-0.18-0.45,0.04-0.96,0.49-1.14l3.74-1.51c0.45-0.18,0.96,0.04,1.14,0.49
							l0,0c0.18,0.45-0.04,0.96-0.49,1.14l-3.74,1.51C180.3,201.87,179.79,201.65,179.61,201.2z"/>
						<path class="st21" d="M169.46,205.3L169.46,205.3c-0.18-0.45,0.04-0.96,0.49-1.14l3.74-1.51c0.45-0.18,0.96,0.04,1.14,0.49
							l0,0c0.18,0.45-0.04,0.96-0.49,1.14l-3.74,1.51C170.15,205.96,169.64,205.75,169.46,205.3z"/>
						<path class="st21" d="M179.97,203.41L179.97,203.41c0.15-0.46,0.64-0.71,1.1-0.56l3.84,1.24c0.46,0.15,0.71,0.64,0.56,1.1l0,0
							c-0.15,0.46-0.64,0.71-1.1,0.56l-3.84-1.24C180.07,204.37,179.82,203.87,179.97,203.41z"/>
						<path class="st21" d="M176.3,204.89L176.3,204.89c-0.43-0.23-0.96-0.07-1.19,0.36l-1.9,3.56c-0.23,0.43-0.07,0.96,0.36,1.19
							l0,0c0.43,0.23,0.96,0.07,1.19-0.36l1.9-3.56C176.89,205.65,176.73,205.12,176.3,204.89z"/>
						<path class="st21" d="M178.34,204.51L178.34,204.51c0.45-0.18,0.96,0.04,1.14,0.49l1.51,3.74c0.18,0.45-0.04,0.96-0.49,1.14
							l0,0c-0.45,0.18-0.96-0.04-1.14-0.49l-1.51-3.74C177.68,205.2,177.89,204.69,178.34,204.51z"/>
					</g>
					<g class="st22">
						<path class="st21" d="M140.09,231.86L140.09,231.86c-0.48,0.2-1.03-0.04-1.23-0.52l-1.62-4.03c-0.2-0.48,0.04-1.03,0.52-1.23
							l0,0c0.48-0.2,1.03,0.04,1.23,0.52l1.62,4.03C140.81,231.12,140.58,231.67,140.09,231.86z"/>
						<path class="st21" d="M142.2,231.36L142.2,231.36c-0.5-0.16-0.77-0.69-0.61-1.19l1.34-4.13c0.16-0.5,0.69-0.77,1.19-0.61l0,0
							c0.5,0.16,0.77,0.69,0.61,1.19l-1.34,4.13C143.23,231.25,142.7,231.52,142.2,231.36z"/>
						<path class="st21" d="M138.02,233.04L138.02,233.04c0.25-0.46,0.07-1.03-0.39-1.28l-3.83-2.05c-0.46-0.25-1.03-0.07-1.28,0.39
							l0,0c-0.25,0.46-0.07,1.03,0.39,1.28l3.83,2.05C137.2,233.68,137.77,233.5,138.02,233.04z"/>
						<path class="st21" d="M143.45,233.26L143.45,233.26c-0.2-0.48,0.04-1.03,0.52-1.23l4.03-1.62c0.48-0.2,1.03,0.04,1.23,0.52
							l0,0c0.2,0.48-0.04,1.03-0.52,1.23l-4.03,1.62C144.2,233.97,143.64,233.74,143.45,233.26z"/>
						<path class="st21" d="M132.52,237.66L132.52,237.66c-0.2-0.48,0.04-1.03,0.52-1.23l4.03-1.62c0.48-0.2,1.03,0.04,1.23,0.52
							l0,0c0.2,0.48-0.04,1.03-0.52,1.23l-4.03,1.62C133.26,238.38,132.71,238.15,132.52,237.66z"/>
						<path class="st21" d="M143.84,235.63L143.84,235.63c0.16-0.5,0.69-0.77,1.19-0.61l4.13,1.34c0.5,0.16,0.77,0.69,0.61,1.19l0,0
							c-0.16,0.5-0.69,0.77-1.19,0.61l-4.13-1.34C143.95,236.66,143.68,236.13,143.84,235.63z"/>
						<path class="st21" d="M139.89,237.22L139.89,237.22c-0.46-0.25-1.03-0.07-1.28,0.39l-2.05,3.83
							c-0.25,0.46-0.07,1.03,0.39,1.28h0c0.46,0.25,1.03,0.07,1.28-0.39l2.05-3.83C140.52,238.04,140.35,237.47,139.89,237.22z"/>
						<path class="st21" d="M142.09,236.81L142.09,236.81c0.48-0.2,1.03,0.04,1.23,0.52l1.62,4.03c0.2,0.48-0.04,1.03-0.52,1.23l0,0
							c-0.48,0.2-1.03-0.04-1.23-0.52l-1.62-4.03C141.37,237.56,141.61,237.01,142.09,236.81z"/>
					</g>
					<g class="st22">
						<path class="st21" d="M196.63,228.02L196.63,228.02c-0.48,0.2-1.03-0.04-1.23-0.52l-1.62-4.03c-0.2-0.48,0.04-1.03,0.52-1.23
							l0,0c0.48-0.2,1.03,0.04,1.23,0.52l1.62,4.03C197.34,227.27,197.11,227.82,196.63,228.02z"/>
						<path class="st21" d="M198.73,227.52L198.73,227.52c-0.5-0.16-0.77-0.69-0.61-1.19l1.34-4.13c0.16-0.5,0.69-0.77,1.19-0.61
							l0,0c0.5,0.16,0.77,0.69,0.61,1.19l-1.34,4.13C199.76,227.4,199.23,227.68,198.73,227.52z"/>
						<path class="st21" d="M194.55,229.2L194.55,229.2c0.25-0.46,0.07-1.03-0.39-1.28l-3.83-2.05c-0.46-0.25-1.03-0.07-1.28,0.39
							l0,0c-0.25,0.46-0.07,1.03,0.39,1.28l3.83,2.05C193.73,229.84,194.31,229.66,194.55,229.2z"/>
						<path class="st21" d="M199.98,229.41L199.98,229.41c-0.2-0.48,0.04-1.03,0.52-1.23l4.03-1.62c0.48-0.2,1.03,0.04,1.23,0.52
							l0,0c0.2,0.48-0.04,1.03-0.52,1.23l-4.03,1.62C200.73,230.13,200.18,229.9,199.98,229.41z"/>
						<path class="st21" d="M189.05,233.82L189.05,233.82c-0.2-0.48,0.04-1.03,0.52-1.23l4.03-1.62c0.48-0.2,1.03,0.04,1.23,0.52
							l0,0c0.2,0.48-0.04,1.03-0.52,1.23l-4.03,1.62C189.8,234.54,189.25,234.31,189.05,233.82z"/>
						<path class="st21" d="M200.37,231.79L200.37,231.79c0.16-0.5,0.69-0.77,1.19-0.61l4.13,1.34c0.5,0.16,0.77,0.69,0.61,1.19l0,0
							c-0.16,0.5-0.69,0.77-1.19,0.61l-4.13-1.34C200.48,232.82,200.21,232.29,200.37,231.79z"/>
						<path class="st21" d="M196.42,233.38L196.42,233.38c-0.46-0.25-1.03-0.07-1.28,0.39l-2.05,3.83
							c-0.25,0.46-0.07,1.03,0.39,1.28l0,0c0.46,0.25,1.03,0.07,1.28-0.39l2.05-3.83C197.05,234.2,196.88,233.63,196.42,233.38z"/>
						<path class="st21" d="M198.62,232.97L198.62,232.97c0.48-0.2,1.03,0.04,1.23,0.52l1.62,4.03c0.2,0.48-0.04,1.03-0.52,1.23l0,0
							c-0.48,0.2-1.03-0.04-1.23-0.52l-1.62-4.03C197.91,233.72,198.14,233.17,198.62,232.97z"/>
					</g>
					<g class="st22">
						<path class="st21" d="M89.4,206.59L89.4,206.59c-0.48,0.2-1.03-0.04-1.23-0.52l-1.62-4.03c-0.2-0.48,0.04-1.03,0.52-1.23l0,0
							c0.48-0.2,1.03,0.04,1.23,0.52l1.62,4.03C90.12,205.84,89.89,206.39,89.4,206.59z"/>
						<path class="st21" d="M91.51,206.08L91.51,206.08c-0.5-0.16-0.77-0.69-0.61-1.19l1.34-4.13c0.16-0.5,0.69-0.77,1.19-0.61l0,0
							c0.5,0.16,0.77,0.69,0.61,1.19l-1.34,4.13C92.54,205.97,92.01,206.24,91.51,206.08z"/>
						<path class="st21" d="M87.33,207.77L87.33,207.77c0.25-0.46,0.07-1.03-0.39-1.28l-3.83-2.05c-0.46-0.25-1.03-0.07-1.28,0.39
							l0,0c-0.25,0.46-0.07,1.03,0.39,1.28l3.83,2.05C86.51,208.4,87.08,208.23,87.33,207.77z"/>
						<path class="st21" d="M92.76,207.98L92.76,207.98c-0.2-0.48,0.04-1.03,0.52-1.23l4.03-1.62c0.48-0.2,1.03,0.04,1.23,0.52l0,0
							c0.2,0.48-0.04,1.03-0.52,1.23l-4.03,1.62C93.5,208.7,92.95,208.47,92.76,207.98z"/>
						<path class="st21" d="M81.83,212.39L81.83,212.39c-0.2-0.48,0.04-1.03,0.52-1.23l4.03-1.62c0.48-0.2,1.03,0.04,1.23,0.52l0,0
							c0.2,0.48-0.04,1.03-0.52,1.23l-4.03,1.62C82.57,213.11,82.02,212.87,81.83,212.39z"/>
						<path class="st21" d="M93.14,210.36L93.14,210.36c0.16-0.5,0.69-0.77,1.19-0.61l4.13,1.34c0.5,0.16,0.77,0.69,0.61,1.19l0,0
							c-0.16,0.5-0.69,0.77-1.19,0.61l-4.13-1.34C93.26,211.39,92.98,210.85,93.14,210.36z"/>
						<path class="st21" d="M89.2,211.95L89.2,211.95c-0.46-0.25-1.03-0.07-1.28,0.39l-2.05,3.83c-0.25,0.46-0.07,1.03,0.39,1.28
							l0,0c0.46,0.25,1.03,0.07,1.28-0.39l2.05-3.83C89.83,212.77,89.66,212.2,89.2,211.95z"/>
						<path class="st21" d="M91.4,211.54L91.4,211.54c0.48-0.2,1.03,0.04,1.23,0.52l1.62,4.03c0.2,0.48-0.04,1.03-0.52,1.23l0,0
							c-0.48,0.2-1.03-0.04-1.23-0.52l-1.62-4.03C90.68,212.28,90.91,211.73,91.4,211.54z"/>
					</g>
					<g>
						<path class="st23" d="M127.05,86.76c8.1-0.78,13.59-6.58,15.05-16.58c1.67-11.5-7.93-14.49-17.65-13.55
							c-9.72,0.94-18.65,5.72-15.04,16.71C112.55,82.9,118.95,87.55,127.05,86.76z"/>
						<path d="M107.1,57.25c-0.02-1.29-1.34-1.93-2.47-1.6c-1.25,0.36-2.17,1.52-2.4,2.77c-0.6,3.31,3.11,5.52,5.88,3.86
							c2.87-1.72,2.33-5.89-0.67-7.13c-1.41-0.58-3.03-0.28-4.15,0.77c-1.02,0.96-1.86,2.87-0.95,4.15c0.74,1.05,2.43,1.28,3.12,0
							c0.21-0.38,0.27-0.71,0.34-1.12c-0.03,0.19,0.07-0.11,0.07-0.11c0.07-0.11,0.07-0.12,0.02-0.02c-0.1,0.06-0.1,0.05,0.02-0.02
							c0.12-0.07,0.12-0.07,0-0.01c-0.06,0.02-0.11,0.01-0.15-0.02c-0.13-0.04,0.33,0.14,0.06-0.04c0.08,0.05,0.27,0.24,0.23,0.3
							c-0.02,0.02-0.05-0.25-0.04-0.29c0.1-0.29-0.09,0.2-0.13,0.27c0.17-0.24,0.14,0-0.04-0.02c0.28,0.02-0.31-0.08,0,0.01
							c0.11,0.03-0.16-0.03-0.21-0.17c-0.07-0.19-0.07-0.24,0.05-0.46c0.14-0.23,0.19-0.13,0.31-0.28c0.22-0.28,0.41,0-0.03-0.2
							C106.45,58.14,107.1,57.89,107.1,57.25L107.1,57.25z"/>
						<g>
							<path d="M140.58,50.85c-1.69,0.62-3.33,3.14-3.35,4.92c0,0.12,0.18,0.18,0.23,0.06c0.42-0.84,0.66-1.74,1.19-2.53
								c0.58-0.87,1.39-1.47,2.03-2.27C140.74,50.95,140.69,50.81,140.58,50.85z"/>
							<path d="M147.49,53.47c-1.59,0.15-3.23-0.44-4.79,0c-0.4,0.11-0.77,0.29-1.11,0.51c0.66-1.18,1.71-2.13,2.95-2.82
								c0.26-0.15,0.08-0.53-0.2-0.47c-2.69,0.54-4.33,2.96-4.6,5.59c-0.06,0.56,0.83,0.79,1.07,0.29c0.77-1.6,2.22-2.26,3.94-2.03
								c1.03,0.14,2.07,0.45,2.99-0.19C148.07,54.11,148,53.42,147.49,53.47z"/>
						</g>
						<path d="M134.82,68.18c0.02-0.41-0.64-0.48-0.88-0.12c-0.36,0.55-0.43,1.18-0.77,1.74c-0.41,0.66-1.03,1.19-1.67,1.61
							c-1.41,0.93-3.12,1.42-4.77,1.71c-0.1,0.02-0.1,0.02-0.2,0.03c0-0.38-0.24-2.67-0.42-3.97c-0.17-1.2-0.19-2.64-0.37-3.69
							c0,0,0.75-0.4,1.09-0.61c1.46-0.92,1.92-2.04,1.97-3.62c0.02-0.67-0.58-0.9-0.79-0.95c-2-0.43-3.61-0.09-5.93,0.46
							c-0.76,0.24-1.07,0.2-1.49,0.75c-0.85,1.1,0.03,2.42,1.1,2.94c0.85,0.41,2,0.85,2.91,1.07c0.08,0.02,0.15,0.03,0.23,0.04
							c0.02,1.25,0.19,2.51,0.32,3.75c0.13,1.31,0.31,2.95,0.53,3.96c-1.59,0.22-3.24,0.31-4.7-0.21c-1.72-0.61-2.89-2.16-4.16-3.39
							c-0.34-0.33-0.93,0.1-0.67,0.51c1.05,1.69,2.43,3.3,4.32,4.06c2.05,0.83,4.52,0.6,6.65,0.23c2.02-0.35,4.13-0.99,5.77-2.28
							C133.94,71.34,134.74,69.89,134.82,68.18z"/>
						
							<ellipse transform="matrix(0.9842 -0.1773 0.1773 0.9842 -8.7368 20.0004)" class="st14" cx="107.56" cy="58.9" rx="1.09" ry="1.61"/>
					</g>
					<path class="st24" d="M244.71,84.48l0-0.01l0-0.01c0.01-0.35-0.37-0.82-0.52-0.98c-1.89-1.38-3.54-2.33-5.47-3.5l-0.22-0.13
						l0.07-0.24c1.75-5.99,1.76-15.55-3.81-21.43c-5.01-5.28-10.92-7.68-16.27-7.68c-2.06,0-4.49,0.45-6.38,1.33
						c-3.42,1.6-6.6,4.03-8.39,8.8c-0.04,0.09-0.27,0.86-0.27,0.86l-0.15-0.1c-0.45-0.14-0.96-0.26-1.34-0.32c-0.01,0-0.02,0-0.03,0
						c-0.05,0-0.09,0.01-0.12,0.04c-1.05,0.94-1.78,2.72-2.37,4.16l-0.12,0.3c-0.97,2.35-1.86,4.67-2.66,6.89
						c-0.68,1.9-1.41,3.82-2.12,5.68c-1.36,3.57-3.45,7.34-4.55,11.04c0,0-0.08-0.36-0.08-0.36c-1.31-9.25-4.05-18.36-6.56-26.05
						c-2.86-8.75-5.54-16.57-9.49-23.66l-0.09-0.16l0.09-0.16c1.57-2.76,2.65-7.93,2.21-10.63c-0.6-3.71-2.71-7.29-6.14-10.01
						c-2.71-2.15-6.7-3.07-10.4-3.07c-0.53,0-1.06,0.03-1.56,0.09c-3.29,0.38-7.78,3.09-8.96,6.39l-0.1,0.27l-0.28-0.06
						c-3.59-0.72-7.52-1.09-11.69-1.09c-5.1,0-10.7,0.54-17.13,1.65c-2.88,0.5-5.78,1.08-8.61,1.72c-0.59,0.13-1.2,0.25-1.84,0.38
						c-0.63,0.12-1.27,0.25-1.91,0.39l-0.01,0l-0.01,0c-4.01,0.59-7.96,2.11-11.3,3.51c-2.43,1.02-4.33,1.97-6.37,3.16l-0.23,0.13
						l-0.18-0.19c-0.01-0.02-0.36-0.38-0.5-0.55c-2.49-3.11-6.09-4.82-10.15-4.82c-5.28,0-10.46,2.81-13.5,7.33
						c-2.42,3.6-3.19,7.3-2.65,12.76c0.45,4.62,2.44,9.29,5.6,11.69l0.16,0.12l-0.04,0.2c-0.22,1.24-0.3,1.87-0.45,2.99
						c-0.49,3.81-0.53,7.74-0.58,11.53l0,0.4c-0.06,4.79,0.01,9.16,0.21,13.35c0.05,1.12,0.13,2.63,0.21,4.23
						c0.22,4.49,0.37,9.28,0.35,9.78l0,0.09l-0.05,0.08c-0.34,0.5-0.54,1.21-0.97,1.76l-0.11,0.14c-0.63,0.83-1.26,1.68-1.86,2.51
						c-0.34,0.46-0.68,0.92-1.02,1.38c-1.06,1.42-2.19,2.94-3.36,4.38c-0.28,0.34-2.8,3.17-2.8,3.17c-3.65,3.8-6.94,6.41-9.59,10.45
						c-2.35,3.56-4.06,7.51-5.71,11.32c-0.47,1.09-0.96,2.22-1.46,3.33c-3.03,6.72-6.9,13.11-10.64,19.29
						c-1.97,3.26-4.02,6.63-5.91,10.01c-1.5,2.68-2.87,5.47-4.2,8.17l-0.22,0.44c-0.68,1.39-1.44,2.75-2.18,4.08
						c-0.76,1.37-1.54,2.78-2.24,4.21c-0.01,0.02-0.03,0.05-0.05,0.09c-0.19,0.36-0.78,1.47-0.01,2.23
						c4.25,4.25,9.98,6.96,15.97,9.58c0.89,0.39,1.83,0.77,2.85,1.16l0.17,0.06l0,0.01l0.36,0.13l0,0c0.62,2.02,1.66,5.05,3.08,6.66
						c1.33,1.51,2.97,2.73,4.74,3.54c1.62,0.74,3.45,1.18,4.88,1.18c0.63,0,1.2-0.08,1.69-0.24l0.52-0.17L49.84,210l-0.03,0.18
						c-0.06,0.32-0.11,0.64-0.17,0.96c-0.97,5.24-1.94,10.02-2.96,14.61c-0.16,0.7-0.31,1.4-0.47,2.11
						c-0.97,4.25-1.64,8.25-2.06,13.07c-1.15,13.24,1.49,14.33,1.69,14.41c0.04,0.01,0.06,0.03,0.08,0.04
						c1.82,1.07,3.9,1.57,6.56,1.57c1.74,0,3.56-0.21,5.31-0.42c1.76-0.21,3.58-0.42,5.33-0.42c0.32,0,0.64,0.01,0.94,0.02
						c6.24,0.3,12.25,2.27,18.06,4.18l0.58,0.19c0.1,0.03,1.16,3,1.87,4.17c0.72,1.19,3.05,9.03,3.78,11.63
						c0.04,0.14,0.53,2.15,1.39,2.64c0.61,0.35,5.75,3.08,7.57,3.64c1.82,0.57,3.74,0.84,5.85,0.84c1.58,0,3.23-0.15,5.05-0.47
						c2.77-0.48,5.44-1.21,7.46-1.79c0.26-0.07,0.51-0.14,0.75-0.21c1.92-0.53,3.31-0.91,3.99-2.97c0.76-2.31,1.45-4.69,1.87-7.04
						c0.63-3.58,1.39-6.62,2.87-10.7c0.1-0.26,0.54-1.24,0.54-1.24c0.62-0.06,1.23-0.09,1.82-0.09c0.63,0,1.25,0.03,1.84,0.1
						c2.71,0.31,5.37,1.41,8.39,3.47c0.75,0.51,1.5,1.04,2.22,1.56c0.64,0.46,1.31,0.93,1.97,1.38l0.15,0.1l0,0.18
						c0,0.04,0,0.08,0,0.11c0.28,4.17,1.67,8.55,4.01,12.68c0.98,1.73,2.32,2.34,4.01,3.11c0.22,0.1,0.45,0.21,0.69,0.32
						c2.23,1.05,4.12,1.76,5.94,2.26c1.87,0.51,3.77,0.76,5.65,0.76c2.55,0,5.06-0.47,7.46-1.4c0.52-0.2,5.76-1.57,7.04-3.68
						c0.93-1.54,2.02-5.55,2.16-6.49c0.59-3.88,4.18-11.43,4.18-11.43s7.32-0.88,10.96-0.94c1.17-0.02,2.32-0.04,3.46-0.06
						c7.06-0.11,13.73-0.21,20.9-1.1c0.65-0.08,1.31-0.16,1.97-0.24c2.91-0.34,5.92-0.69,8.78-1.39c2.69-0.66,4.08-1.05,6.07-2.82
						c0.59-0.62,0.88-0.94,1.04-1.23c0.5-0.9,0.61-1.38,0.82-2.64c0.45-3.74-1.52-7.68-3.25-11.15l-0.3-0.6
						c-1.55-3.12-3.22-6.07-4.84-8.92c-1.16-2.04-2.35-4.15-3.51-6.33c-6.33-11.91-9.15-22.97-8.62-33.82
						c0.06-1.16,0.13-2.32,0.2-3.45c0.3-4.7,0.58-9.15-0.23-13.69l-0.02-0.12c-0.08-0.38-0.36-1.6-0.41-1.8l-0.01-0.01l-0.01-0.04
						c-0.96-3.82-1.76-7.27-2.45-10.55c-1.35-6.35-2.27-12.77-3-18.22l-0.02-0.15l0.1-0.11c1.33-1.46,12.14-13.68,13.53-15.95
						c1.17-1.91,2.14-3.99,3.07-6.01c0.26-0.57,0.52-1.13,0.79-1.69c2.61-5.51,5.28-11,7.93-16.33c1.01-2.02,2.08-4.07,3.13-6.04
						c1.8-3.42,3.67-6.95,5.23-10.52C244.66,85.6,244.75,85.02,244.71,84.48z M204.62,61.31c0.06-0.12,0.12-0.24,0.18-0.36
						c0.19-0.39,0.39-0.8,0.62-1.17c0.51-0.82,1.29-1.97,2.08-2.78c1.38-1.43,2.62-2.49,4.5-3.34c2.09-0.95,4.34-1.43,6.67-1.43
						c2.16,0,4.31,0.41,6.4,1.22c10.06,3.9,15.06,12.75,13.07,24.11c-0.09,0.52-0.53,1.71-0.53,1.71c-1.17-0.71-2.15-1.35-3.31-2.08
						c-1.38-0.88-2.75-1.81-4.08-2.71c-2.02-1.37-4.1-2.79-6.25-4.03c-2.91-1.68-6.24-3.29-10.49-5.08
						c-1.95-0.82-3.89-1.59-5.71-2.31c-0.48-0.19-0.91-0.39-1.32-0.58c-0.5-0.24-1.02-0.48-1.65-0.71l-0.35-0.13L204.62,61.31z
						 M150.22,21.34c0.51-0.9,0.81-1.25,1.4-1.81c3.32-3.11,5.89-3.3,9.07-3.3c1.81,0,3.44,0.31,4.83,0.91
						c5.23,2.28,6.2,3.96,8.07,7.16c3.59,6.14-0.56,13.28-0.56,13.28s-2.51-3.09-3.16-3.84l-0.16-0.18l0.12-0.21
						c1.91-3.18,1.31-6.34-1.81-9.38c-1.71-1.67-3.94-2.62-6.29-2.67c-0.05,0-0.1,0-0.14,0c-1.99,0-3.98,0.85-5.61,2.39l-0.15,0.14
						l-0.2-0.08c-0.9-0.35-2.27-0.83-3.41-1.16c-0.48-0.14-2.38-0.58-2.38-0.58L150.22,21.34z M169.33,32.49l-0.19,0.37
						c0,0-0.23-0.19-0.7-0.57c-6.18-4.99-9.45-6.96-11.1-7.74l-0.51-0.24l0.46-0.33c1.14-0.82,2.77-1.41,4.73-1.41
						c0.77,0,1.51,0.15,2.21,0.46c1.47,0.64,2.81,1.39,4.08,2.74c0.51,0.54,1.26,1.81,1.56,2.53
						C170.56,29.98,169.91,31.39,169.33,32.49z M67.94,55.75c-3.01-4.56-4.23-7.2-4.4-11.57c-0.16-3.83,1.06-9.28,5.18-12.76
						c2.74-2.32,6.2-3.59,9.73-3.59c3.74,0,7.29,1.4,10.02,3.95l0.31,0.29l-0.36,0.23c-0.76,0.48-2.67,1.71-4.02,2.75
						c-0.17,0.13-0.26,0.2-0.33,0.24c-0.03,0.03-0.1,0.08-0.22,0.19l-0.18,0.15l-0.2-0.11c-1.23-0.69-2.66-1.03-4.25-1.03
						c-4.55,0-9.09,2.81-10.33,6.41c-1,2.9-0.51,6.65,1.37,10.56l0.08,0.16l-0.09,0.15c-0.65,1.11-1.2,3.05-1.51,4.19l-0.17,0.61
						L67.94,55.75z M82.63,36.59l-0.64,0.45c-5.48,5.04-7.81,8.24-9.67,10.83c-0.79,1.11-1.24,2.34-1.24,2.34
						c-0.76-1.95-2.65-6.59-0.62-10.01c1.55-2.6,4.57-4.1,8.29-4.1c1.04,0,2.13,0.12,3.24,0.35L82.63,36.59z M68.11,72.89
						c0.01-2.85,0.04-5.6,0.33-8.49c0.25-2.44,0.52-4.63,1.02-6.92c0.32-1.47,1.01-3.11,1.01-3.11c3.56-7.32,8.18-13.04,14.13-17.48
						c3.51-2.62,7.4-4.86,11.57-6.65c2.63-1.14,5.38-1.97,8.04-2.79c0.5-0.15,1-0.3,1.5-0.46l0.02-0.01l0.02,0
						c0.74-0.14,1.49-0.34,2.22-0.54c0.67-0.18,1.31-0.35,1.93-0.47c2.58-0.53,5.19-1.01,7.77-1.45c4.35-0.73,9.51-1.51,14.84-1.68
						c1.05-0.03,2.08-0.05,3.08-0.05c12.17,0,21.6,2.59,28.83,7.93c3.62,2.67,6.74,6.03,9.27,9.97l0.02,0.03l0.01,0.04
						c0.01,0.03,0.02,0.05,0.02,0.08c0,0.01,0.01,0.02,0.01,0.03c0.83,2.1,1.69,4.22,2.52,6.28c2.42,5.98,4.93,12.17,6.96,18.45
						c1.65,5.08,2.84,10.47,3.99,15.68c0.64,2.91,1.31,5.91,2.04,8.8l0.06,0.22l-0.19,0.13c-2.12,1.49-48.47,31.27-50.47,32.5
						c-1.05,0.64-6.41,3.8-6.99,3.8h-0.05l-0.06-0.02c-5.39-1.63-17.23-7.03-29.77-12.75c-13.26-6.05-26.98-12.31-32.5-13.77
						l-0.25-0.07l0.01-0.26c0-0.07-0.02-1.58-0.03-1.86c-0.04-2.22-0.49-10.2-0.58-11.91c-0.19-3.57-0.37-7.75-0.35-12.18
						L68.11,72.89z M60.62,112.66c0.12-0.17,0.22-0.3,0.28-0.38c1.32-1.68,2.6-3.45,3.83-5.16l0.45-0.63
						c0.25-0.35,0.52-0.71,0.78-1.05c0.83-1.1,2.02-2.22,2.56-3.43l0.13-0.29l0.29,0.11c8.5,3.23,39.76,17.12,54.95,23.81
						c3.76,1.66,6.48,2.85,7.49,3.29c0.09,0.04,0.18,0.06,0.27,0.06c0.11,0,0.22-0.03,0.32-0.08c4.78-2.64,48.96-30.48,51.39-32.38
						c1.24-0.97,2.45-1.81,3.72-2.7c0.86-0.6,2.9-2.06,2.9-2.06l0.26-0.2l0.63,1.07c1.66,2.72,3.58,5.88,5.37,9.04l0.13,0.23
						l-0.2,0.18c-9.87,9.04-20.12,17.66-30.45,25.6c-7.96,6.12-16.73,11.34-25.22,16.39c-3.54,2.11-7.2,4.29-10.75,6.5
						c-3.32,2.07-6.67,4.33-9.91,6.51c-3.42,2.31-6.96,4.69-10.48,6.87c-0.11,0.07-0.11,0.07-1.33,0.09
						c-2.1,0.05-6.48,0.14-8.88,0.75c-2.27,0.58-4.6,0.89-6.84,1.18c-0.97,0.13-1.98,0.26-2.97,0.41c-0.73,0.11-1.38,0.23-1.99,0.37
						l-2.13,0.48l1.9-1.09c5.67-3.26,11.27-6.85,16.69-10.33c2.4-1.54,4.89-3.14,7.35-4.68c5.19-3.26,10.51-5.84,15.03-7.93
						c0.44-0.2,0.65-0.5,0.64-0.91c-0.02-0.63-0.53-1.25-0.86-1.39c-4.2-1.7-8.58-3.32-12.82-4.88c-1.49-0.55-2.98-1.1-4.46-1.65
						c-4.06-1.52-8.18-3.07-12.17-4.57c-1.79-0.67-3.58-1.35-5.36-2.02c-1.44-0.54-2.88-1.08-4.32-1.61
						c-4.2-1.56-8.55-3.18-12.78-4.9c-4.26-1.73-8.96-4.37-13.48-8.05l-0.25-0.2C60.33,113.06,60.51,112.81,60.62,112.66z
						 M112.35,167.86l0.02,0.03l0.01,0.03c0.11,0.22,0.22,0.43,0.35,0.66c0.62,1.13,1.39,2.55,1.2,5.79
						c-0.07,1.28-1.15,2.37-2.55,2.61c-0.9,0.15-1.84,0.16-2.75,0.17c-0.47,0-0.92,0.01-1.35,0.03c-2.07,0.12-4.16,0.36-6.18,0.6
						c-1.11,0.13-2.26,0.26-3.4,0.37c-1.58,0.16-3.66,0.33-5.76,0.33c-1.38,0-2.65-0.07-3.86-0.23c-0.72-0.09-1.51-0.25-2.34-0.42
						c-1.4-0.29-2.84-0.59-4.18-0.59c-0.21,0-0.42,0.01-0.62,0.02l-0.46,0.04c0,0,1.55-3.68,0.97-5.06
						c-0.15,0.71-1.14,3.2-1.56,4.02c-0.9,1.75-2.98,3.26-4.69,3.85c-0.59,0.2-1.21,0.3-1.92,0.3c-1.42,0-2.89-0.42-4.18-0.78
						l-0.35-0.1c-2.11-0.59-3.46-1.37-4.37-2.53l-0.3-0.38l0.47-0.14c3.3-0.98,6.55-2.33,9.29-3.53c2.18-0.95,4.38-2,6.72-3.2
						l0.46-0.24c0,0,4.89-1.82,8.01-2.26c1.05-0.15,2.11-0.26,3.13-0.37c1.97-0.21,4.01-0.43,5.98-0.89
						c0.51-0.12,2.38-0.61,2.9-0.69c2.28-0.34,2.77-0.22,4.77-0.32c2.58-0.13,3.86,0.46,3.86,0.46l0,0.01
						C110.88,166.03,111.66,166.96,112.35,167.86z M58.51,141.07c-0.12-2.66-0.24-5.42-0.25-8.13c0-0.1,0-0.32,0.01-0.56
						c0-0.25,0-0.51,0.01-0.63c0.01-0.63,0.02-1.25,0.02-1.88c0.01-0.97,0.03-1.95,0.06-2.89c0.01-0.42,0.02-0.84,0.03-1.25
						c0.06-2.66,0.1-5.8-0.08-8.94l0-0.04c-0.01-0.18-0.03-0.61-0.09-1.1l-0.02-0.19c0,0,0.64-0.54,0.9-0.82l0.47-0.58
						c0,0,9.15,6.97,13.67,8.9c4.38,1.87,8.93,3.58,13.32,5.23c1.43,0.54,2.87,1.08,4.3,1.62c1.87,0.71,3.73,1.42,5.6,2.13
						c4.02,1.53,8.17,3.1,12.25,4.67l5.95,2.28l2.97,1.14c0.83,0.32,1.67,0.66,2.49,0.98c0.96,0.38,1.94,0.78,2.92,1.15l0.81,0.31
						l-0.81,0.31c-3.48,1.35-6.73,3.33-9.87,5.24c-3.88,2.36-7.76,4.84-11.53,7.24l-0.65,0.41c-8.3,5.3-16.47,10.38-25.13,14.35
						c-4.74,2.17-9.68,3.75-14.03,5.15l-0.01,0l-0.01,0c-0.26,0.07-0.84,0.27-0.84,0.27s-2.74,1.37-3.15,1.69
						c-0.61,0.48-1.14,1.13-1.62,1.97l-0.95,1.67l0.33-1.89c0.41-2.31,0.84-4.78,1.23-7.25c1.2-7.51,1.82-13.79,1.94-19.77
						C58.82,148.24,58.66,144.6,58.51,141.07z M42.04,138.89c1.28-2.99,2.6-6.08,4.26-8.96c2.76-4.79,6.29-9.1,10.48-12.81l0.6-0.53
						c0,0,0.12,1.83,0.09,2.58c-0.03,0.74-0.06,1.49-0.1,2.23c-0.02,0.46-0.04,0.91-0.06,1.37l-0.07,1.46
						c-0.09,1.92-0.07,3.86-0.11,5.81c-0.08,3.48-0.08,7.1,0.01,10.53c0.06,2.25,0.23,4.6,0.25,6.89c0.02,3.39,0.03,6.38-0.38,10.35
						l-0.04,0.36l-0.35-0.06c-1.64-0.29-2.84-0.01-4.28-0.64c-0.33-0.14-1.13-0.51-1.46-0.65c-1.5-0.66-2.82-1.23-4.36-1.68
						c-0.61-0.18-1.33-0.38-1.93-0.55c-1.21-0.32-2.28-0.87-3.48-1.32c-1.43-0.53-3.46-2.12-4.61-2.91c0,0,0,0,0,0
						c1.11-2.02,2.08-3.86,2.94-5.63C40.36,142.82,41.22,140.82,42.04,138.89z M29.06,162.98c0.34-0.57,0.69-1.14,1.03-1.71
						c0.43-0.72,0.87-1.43,1.3-2.15c1.33-2.21,2.9-4.84,4.4-7.51l0.21-0.38l0.35,0.35c1.8,2.58,5.25,3.55,8.29,4.4
						c0.53,0.15,1.02,0.29,1.51,0.43c1.78,0.54,3.48,1.29,5.12,2.01l0.42,0.18c1.28,0.56,2.72,1.2,4.1,1.2c0.05,0,0.1,0,0.15,0
						l1.19,0.1l-0.04,0.38c-0.55,4.7-1.34,9.36-1.97,12.89l-0.04,0.21c0,0-2.51,0.25-3.32,0.25c-2.77,0-5.61-1.17-8.12-2.2
						c-0.35-0.14-0.7-0.29-1.03-0.42c-3.98-1.6-9.1-3.92-13.49-7.6l-0.22-0.18L29.06,162.98z M21.15,176.97
						c0.58-1.12,1.15-2.22,1.74-3.32c1.82-3.4,3.75-6.65,5.56-9.66l0.23-0.38l0.3,0.33c3.37,3.75,8.59,6.11,13.65,8.21
						c0.36,0.15,0.72,0.3,1.1,0.46c2.2,0.93,4.47,1.89,6.69,2.22c0.44,0.07,0.92,0.1,1.37,0.1c0.65,0,1.24-0.07,1.76-0.2l1.15-0.13
						l-0.09,0.51c-0.17,0.94-0.34,1.87-0.51,2.81c-0.35,1.94-0.72,3.94-1.06,5.9c-0.33,1.87-0.61,3.55-0.86,5.13l-0.05,0.34
						l-0.99-0.07c-4.99-0.98-10.29-2.1-15.54-4.13c-4.86-1.88-9.69-4.47-14.34-7.69l-0.24-0.17L21.15,176.97z M31.84,195.72
						c-6.11-2.52-11.46-5.85-15.89-8.79l-0.27-0.18l0.18-0.28c1.77-2.76,3.32-5.69,4.75-8.46l0.19-0.36l0.32,0.25
						c4.02,3.21,8.81,5.98,14.25,8.23c5.69,2.36,10.94,3.8,15.58,4.27l0.95,0.04l-0.05,0.35c-0.22,1.44-0.39,2.6-0.53,3.66
						c-0.05,0.38-0.1,0.76-0.16,1.15c-0.16,1.16-0.32,2.36-0.45,3.56l-0.03,0.26l-0.87,0.03l-0.35,0.04
						c-0.92,0.11-1.86,0.22-2.83,0.22c-0.23,0-0.46-0.01-0.68-0.02c-1.39-0.08-2.86-0.33-4.62-0.79
						C38.21,198.1,35.02,197.03,31.84,195.72z M49.8,208.41c0,0-2.9,0.06-4.52-0.23c-1.91-0.34-5.06-2.38-5.06-2.38
						c-1.39-1.05-2.05-2.3-2.88-3.65c-0.56-0.9-1.14-2.46-1.53-3.36c0,0-0.01-0.01-0.01-0.01c1.65,0.58,3.39,1.13,5.18,1.62
						c2.28,0.62,4.33,0.94,6.1,0.94c0.94,0,1.81-0.09,2.59-0.27l0.89-0.1l-0.03,0.44C50.42,203.25,49.8,208.41,49.8,208.41z
						 M45.04,249.53c-0.35-2.7-0.28-7.71,0.14-10.49c0.24-1.63,0.36-3.32,0.81-5.53l0.38-1.86c0,0,0.13-0.57,0.24-1.08
						c0.08,0.63,0.5,2.88,0.46,4.73c-0.03,1.19-0.05,1.09-0.74,4.57c-0.18,0.89-0.35,1.82-0.46,2.74
						C45.68,244.21,45.04,249.53,45.04,249.53z M55.28,255.07c-1.5,0.19-2.64,0.28-3.7,0.28c-2.1,0-3.88-0.36-5.46-1.1l-0.21-0.1
						l0.02-0.23c0.05-0.65,0.02-1.3-0.08-1.89l-0.11-0.63l0.6,0.28c1.46,0.84,3.18,1.32,4.83,1.77l0.15,0.04
						c1.44,0.4,2.74,0.7,3.97,0.91l2.16,0.38L55.28,255.07z M59.85,253.22l-0.26,0.3c-0.43,0.4-0.94,0.59-1.95,0.59
						c-1.44,0-3.15-0.4-4.17-0.64c-0.22-0.05-0.4-0.09-0.54-0.12c-1.15-0.24-2.28-0.6-3.38-0.95c-1.14-0.37-2.68-1.33-3.87-1.59
						l0-0.1c-0.08-1.84,0.21-3.67,0.38-5.57c0.12-1.38,0.27-2.76,0.51-4.08c0.1-0.55,0.18-1.12,0.3-1.68
						c1.2-5.44,0.24-8.57-0.13-9.37c0.31-1.45,0.64-2.96,0.94-4.44c1.14-5.71,4.37-24.91,4.46-25.69c0.35-2.76,0.79-5.74,1.39-9.37
						c0.39-2.32,0.8-4.63,1.18-6.8l0.01-0.03l0.01-0.03c0.65-1.67,1.47-3.37,3.06-4.51c0.75-0.54,1.62-0.9,2.45-1.25
						c0.14-0.06,0.28-0.12,0.41-0.17c0.28-0.12,2.72-0.91,2.87-0.96l0.41-0.11l0.08,0.34c0.02,0.07,0.03,0.14,0.05,0.21
						c0.24,0.76,0.62,1.41,1.17,1.99l0.3,0.31l-0.38,0.21c-2.37,1.3-3.15,4.96-3.67,7.38c-0.85,4.02-1.47,8.17-2.07,12.18
						c-0.21,1.39-0.42,2.83-0.64,4.24c-0.88,5.66-1.25,10.64-1.16,15.66c0.02,0.95,0.03,1.91,0.05,2.86
						c0.08,4.41,0.15,8.97,0.31,13.45c0.22,6.05,0.85,11.67,1.9,17.39L59.85,253.22z M62.82,253.77c-0.89,0.04-1.78,0.03-2.74,0.1
						c0,0,0.4-0.97,0.21-2c-1.05-6-1.43-12.07-1.62-18.8c-0.05-1.73-0.12-3.49-0.18-5.2c-0.17-4.41-0.35-8.97-0.21-13.43
						c0.14-4.61,0.67-9.38,1.46-13.91c0.28-1.61,0.47-3.41,0.73-5.03c0.1-0.63,0.23-1.55,0.36-2.23c0.83-4.25,0.96-8.37,4.39-10.63
						l1.13-0.75l-0.65,1.18c-1.62,2.94-2.55,6.7-2.85,11.5c-0.26,4.21,0.07,8.5,0.4,12.64c0.19,2.41,0.38,4.89,0.46,7.35
						c0.36,11.57,0.72,24.47,3.87,37.05l-0.15,0.25C67.21,252.26,66.08,253.63,62.82,253.77z M124.03,259.74
						c-1.15,2.74-1.69,5.76-2.22,8.68c-0.16,0.91-0.33,1.85-0.52,2.77c-0.24,1.19-0.52,2.46-0.91,3.68
						c-0.57,1.78-1.36,3.67-2.82,4.09l-0.46,0.13c-2.28,0.65-4.63,1.33-6.99,1.83c-2.73,0.58-4.98,0.85-7.08,0.85
						c-1.52,0-2.92-0.14-4.27-0.43c-1.86-0.4-7.46-2.91-7.73-3.19c-1.19-1.23-1.39-2.18-1.79-3.66c-0.06-0.22-0.12-0.43-0.17-0.64
						c0,0-1.98-6.13-2.78-8.58c-0.35-1.07-0.72-2.18-1.16-3.4l-0.23-0.63l0.64,0.2c5.86,1.87,10.82,3.12,15.99,3.17
						c0.07,0,0.14,0,0.21,0c4.76,0,9.04-1.42,13.57-2.93c1.61-0.54,3.27-1.09,4.94-1.57c1.25-0.36,2.36-0.62,3.41-0.81l0.6-0.11
						L124.03,259.74z M181.46,262.76c-1.16,2.1-1.72,3.25-2.64,6.35c-0.12,0.4-1.72,7.12-2.33,8.4c-0.67,1.41-1.14,1.68-2.79,2.76
						c-0.8,0.52-1.79,0.67-2.65,1.02c-1.8,0.73-4.75,1.89-9.29,1.86c-1.09-0.01-7.17-0.71-11.44-2.65l-0.04-0.02
						c-1.18-0.54-1.9-1-2.85-1.93c-0.73-0.71-1.39-2.18-1.96-3.73c-0.24-0.64-0.58-1.37-0.7-1.75c-0.75-2.33-1.71-6.89-1.71-6.89
						c2.6,1.69,5.81,3.43,9.91,3.45l0.1,0c4.94,0,9.73-1.74,14.37-3.43c1.74-0.63,3.54-1.28,5.3-1.83c2.5-0.77,5.81-1.59,8.39-2.1
						l0.74-0.15L181.46,262.76z M215.42,174.12c0.75,4.46,0.44,9,0.14,13.39c-0.03,0.48-0.07,0.96-0.1,1.44
						c-0.38,5.79-0.04,11.07,1.04,16.15c2.03,9.48,5.93,18.56,12.64,29.44c1.64,2.66,3.21,5.65,4.81,9.14
						c0.09,0.19,0.18,0.38,0.27,0.58c1.04,2.25,2.23,4.8,1.41,7.75l-0.01,0.02l-0.01,0.02c-0.36,0.87-0.84,1.24-1.26,1.57
						l-0.09,0.07c-3.08,2.43-7.87,2.94-11.71,3.34c-0.85,0.09-1.66,0.18-2.41,0.28c-7.22,0.97-13.74,1.4-21.14,1.4h-0.02h-0.03
						c-6.47,0-14.09,0.25-21.58,2.14c-2.94,0.74-5.86,1.77-8.69,2.77c-3.58,1.27-7.28,2.58-11.07,3.31
						c-1.63,0.32-3.18,0.47-4.63,0.47c-1.93,0-3.74-0.28-5.38-0.84c-2.83-0.95-5.27-2.71-7.63-4.42l-0.07-0.05l-0.24-0.17
						c-1.99-1.43-4.04-2.92-6.31-3.89c-1.82-0.78-3.82-1.17-5.95-1.17c-0.84,0-1.71,0.06-2.59,0.18c-3.26,0.45-6.42,1.56-9.48,2.63
						c-2.69,0.95-5.48,1.92-8.35,2.46c-1.68,0.31-3.45,0.47-5.27,0.47c-5.31,0-10.5-1.35-14.43-2.52c-0.12-0.03-0.4-0.12-0.82-0.26
						c-9.72-3.09-16.36-4.85-19.73-5.24c-0.04,0-0.08-0.01-0.12-0.01c-0.04,0-0.08-0.01-0.12-0.01l-0.83-0.09l0.67-0.51
						c2.3-1.74,1.76-3.02,1.7-3.39c-2.07-12.2-3.08-23.4-3.41-34.2c-0.09-2.76-0.33-5.56-0.56-8.28c-0.28-3.24-0.57-6.58-0.6-9.88
						c-0.04-5.64,4.49-16.03,4.51-15.95c12.1,5.05,26.81,7.48,44.58,7.48c3.99,0,8.26-0.12,13.03-0.36c0.95-0.05,1.9-0.09,2.85-0.14
						c8.6-0.42,17.48-0.86,26.07-2.14c6.58-0.99,13.16-2.7,19.52-4.35c2.88-0.75,5.85-1.52,8.78-2.22
						c10.49-2.49,32.06-6.67,32.24-6.71l0.33-0.06L215.42,174.12z M215.07,171.46l0.09,0.37l-0.38,0.04
						c-0.58,0.07-19.45,3.74-28.45,5.81c-3.64,0.84-7.32,1.79-10.89,2.71c-5.78,1.49-11.76,3.03-17.73,4.15
						c-8.25,1.55-16.82,2.03-25.11,2.49c-1.29,0.07-2.58,0.15-3.87,0.22c-7.25,0.43-12.81,0.62-18.01,0.62
						c-3.82,0-7.35-0.11-10.77-0.32c-9.15-0.58-18.09-2.17-26.58-4.73l-1.98-0.6l2.06-0.05c1.17-0.03,2.21-0.36,3.18-1
						c1.28-0.84,2.59-1.77,3.36-3l0.1-0.16l0.19,0.01c0.34,0.01,0.7,0.01,1.04,0.02c0.82,0.01,1.66,0.01,2.49,0.14
						c0.71,0.11,1.43,0.24,2.12,0.38c0.94,0.18,1.91,0.36,2.88,0.48c1.21,0.15,2.47,0.22,3.84,0.22c1.63,0,3.43-0.1,5.65-0.32
						c0.92-0.09,1.86-0.2,2.77-0.3c2.24-0.25,4.55-0.5,6.84-0.6c0.36-0.01,0.72-0.02,1.1-0.02c1.88-0.01,3.83-0.02,5.13-1.51
						c0.93-1.15,0.71-3.86,0.61-4.66c-0.51-4.47-2.91-5.97-3.93-6.61c-0.09-0.06-0.17-0.11-0.24-0.15l-0.44-0.29l0.46-0.27
						c6-3.53,12-7.3,17.81-10.95c5.41-3.4,11.01-6.92,16.6-10.23c0.65-0.39,1.3-0.77,1.95-1.16c5.42-3.2,11.03-6.52,16.17-10.42
						c5.46-4.14,10.93-8.5,16.28-12.95c5.79-4.83,11.65-9.96,17.4-15.27l0.31-0.29l0.2,0.37c2.17,3.95,3.96,7.53,5.37,11
						c6.02,14.79,7.12,27.5,7.12,27.5S210.88,152.28,215.07,171.46z M223.41,125.25c-0.17,0.22-0.4,0.52-0.66,0.87
						c-1.51,1.98-4.32,5.67-5.56,6.74c-0.3,0.33-4.94,5.52-6.26,7.11l-0.49,0.59l-0.13-0.99c0,0-2.71-16.91-6.53-24.92l-0.3-0.76
						l0.75,0.34c1.58,0.73,3.23,1.39,4.82,2.03c1.58,0.64,3.21,1.3,4.79,2.02c2.4,1.09,4.29,2.13,5.94,3.27
						c1.17,0.8,2.11,1.76,3.02,2.69c0.19,0.19,0.38,0.39,0.57,0.58l0.21,0.21L223.41,125.25z M231.8,108.91
						c-1.2,2.47-2.26,4.67-3.25,6.74c-0.28,0.6-0.56,1.2-0.84,1.8c-0.89,1.92-1.81,3.9-2.91,5.75c-0.21,0.35-0.44,0.71-0.73,1.14
						c0,0-5.14-4.8-9.59-6.73c-2.49-1.08-4.66-2.04-6.91-2.9c-1.36-0.52-4.57-2.06-4.62-2.18c-3.75-9.18-7.45-16.02-11.66-21.53
						l0.43-0.49c3.25,1.93,6.93,3.41,10.64,4.3c1.66,0.39,3.37,0.71,5.02,1.02c2.43,0.45,4.93,0.92,7.35,1.64
						c3.61,1.07,6.98,2.67,10.02,4.75c2.21,1.51,4.04,3.35,5.81,5.13c0.39,0.39,0.78,0.78,1.17,1.17l0.17,0.17L231.8,108.91z
						 M237.77,96.84l-0.34,0.68c-0.26,0.53-0.53,1.05-0.79,1.58c-1.34,2.68-2.69,5.41-4.01,8.12l-0.25,0.51l-0.32-0.47
						c-4.1-5.99-11.48-9.93-17.03-11.62c-2.68-0.82-5.5-1.29-8.22-1.74c-1.33-0.22-2.7-0.45-4.04-0.72
						c-3.91-0.78-7.45-2.22-10.74-3.63l-0.3-0.13l0.12-0.3c0.92-2.31,1.74-4.72,2.54-7.04c0.52-1.51,1.05-3.06,1.6-4.57
						c0.21-0.58,0.42-1.17,0.63-1.75l0.27-0.75l0.1-0.28l0.29,0.07c1.09,0.26,2.21,0.5,3.29,0.73c2.73,0.59,5.56,1.21,8.28,2.1
						c3.62,1.19,7.32,2.89,11.31,5.2c3.39,1.95,6.68,4.18,9.78,6.6c1.6,1.26,3.17,2.58,4.66,3.93c0.44,0.4,0.87,0.85,1.32,1.34
						c0.57,0.61,1.16,1.23,1.77,1.74l0.2,0.17L237.77,96.84z M243.81,84.89c-0.69,1.25-1.34,2.56-1.96,3.83
						c-0.37,0.76-0.75,1.54-1.14,2.29c-0.68,1.32-1.37,2.67-2.11,4.14l-0.25,0.49l-0.32-0.45c-0.88-1.24-2.11-2.32-3.29-3.37
						c-0.25-0.22-0.51-0.45-0.75-0.67c-1.5-1.35-3.06-2.66-4.64-3.89c-3.12-2.43-6.43-4.63-9.85-6.55
						c-6.64-3.74-13.94-6.12-21.7-7.08l-0.42-0.05l0.15-0.39c0.41-1.09,0.77-1.99,1.13-2.81c0.25-0.57,0.54-1.21,0.85-1.9
						c0.96-2.13,2.05-4.54,2.61-6.33c0.05-0.15,0.19-0.25,0.35-0.25c0,0,0,0,0,0c0.25,0,0.81,0.24,2.73,1.13
						c0.97,0.45,2.06,0.96,2.86,1.28c1.64,0.67,3.56,1.44,5.44,2.25c4.48,1.91,7.83,3.56,10.86,5.34c2.07,1.22,4.08,2.6,6.01,3.94
						c1.33,0.91,2.7,1.86,4.07,2.74c3.33,2.13,6.69,4.25,9.25,5.86l0.27,0.17L243.81,84.89z"/>
					<g>
						<g>
							<g>
								<path class="st25" d="M89.95,32.03c0,0-4.4-2.27-1.93-6.77c2.36-4.29,7.07-1.94,7.84,0.41c0,0,0-5.08,4.47-4.95
									c4.47,0.13,5.63,4.91,2.33,8.16c0,0,6.59-0.87,5.56,4.86c-0.93,5.15-6.78,2.85-6.78,2.85s1.87,5.79-2.83,7.17
									c-5.53,1.62-5.35-4.79-5.35-4.79s-5.06,4.37-7.21-0.27C83.71,33.61,89.95,32.03,89.95,32.03z"/>
								<path class="st24" d="M96.95,44.58c-0.92,0-1.71-0.25-2.37-0.76c-1.27-0.98-1.69-2.66-1.83-3.77
									c-1.04,0.69-2.85,1.63-4.54,1.26c-1.16-0.25-2.07-1.06-2.68-2.39c-0.71-1.53-0.77-2.94-0.18-4.18
									c0.73-1.53,2.28-2.42,3.35-2.88c-0.65-0.54-1.44-1.41-1.81-2.6c-0.41-1.34-0.2-2.78,0.62-4.28c1.4-2.55,3.45-2.77,4.54-2.67
									c1.3,0.12,2.59,0.79,3.46,1.72c0.21-0.86,0.63-1.89,1.45-2.69c0.87-0.84,2.01-1.25,3.4-1.21c2.12,0.06,3.79,1.13,4.47,2.86
									c0.64,1.64,0.3,3.6-0.87,5.25c1.17,0.05,2.84,0.34,3.92,1.47c0.93,0.98,1.24,2.36,0.93,4.11c-0.28,1.54-0.98,2.63-2.11,3.26
									c-1.49,0.83-3.33,0.6-4.45,0.33c0.2,1.13,0.34,3-0.49,4.56c-0.6,1.14-1.6,1.92-2.98,2.32
									C98.12,44.49,97.51,44.58,96.95,44.58z M93.88,37.66l-0.04,1.31c0,0.03-0.06,2.78,1.45,3.94c0.75,0.58,1.81,0.67,3.16,0.28
									c1.06-0.31,1.83-0.9,2.28-1.75c1.03-1.95,0.18-4.66,0.17-4.68l-0.37-1.16l1.13,0.44c0.03,0.01,2.7,1.03,4.47,0.04
									c0.8-0.45,1.32-1.27,1.53-2.45c0.25-1.37,0.04-2.41-0.62-3.1c-1.37-1.44-4.26-1.08-4.29-1.08l-1.71,0.22l1.23-1.21
									c1.52-1.49,2.1-3.47,1.48-5.04c-0.51-1.3-1.76-2.08-3.42-2.13c-1.05-0.03-1.92,0.27-2.55,0.88c-1.3,1.26-1.33,3.47-1.33,3.5
									l-0.01,3.55l-1.11-3.37c-0.34-1.03-1.72-2.23-3.37-2.38c-0.99-0.09-2.39,0.19-3.42,2.07c-0.66,1.21-0.84,2.35-0.53,3.37
									c0.51,1.7,2.21,2.6,2.22,2.61l1.34,0.7l-1.46,0.37c-0.05,0.01-2.8,0.75-3.7,2.65c-0.43,0.92-0.37,1.99,0.18,3.2
									c0.46,1,1.08,1.57,1.88,1.74c1.97,0.43,4.41-1.65,4.43-1.67L93.88,37.66z"/>
							</g>
							<path class="st26" d="M99.43,29.33c1.44,1.58,1.37,4.06-0.15,5.55c-1.52,1.49-3.91,1.42-5.35-0.16
								c-1.44-1.58-1.37-4.06,0.15-5.55C95.6,27.68,98,27.75,99.43,29.33z"/>
						</g>
						<g>
							<path class="st27" d="M85.99,31.54c0,0-2.71,1.94-6.07,1.08c-3.94-1.01-5.58-4.29-5.58-4.29s4.37-1.84,7.28-0.86
								C84.52,28.45,85.99,31.54,85.99,31.54z"/>
							<path class="st24" d="M81.68,33.41c-0.6,0-1.25-0.07-1.91-0.24c-4.15-1.06-5.88-4.44-5.96-4.59l-0.28-0.55l0.57-0.24
								c0.19-0.08,4.6-1.92,7.69-0.88c3.11,1.05,4.65,4.24,4.72,4.37l0.21,0.44l-0.39,0.28C86.23,32.08,84.32,33.41,81.68,33.41z
								 M75.19,28.62c0.64,0.92,2.19,2.75,4.87,3.43c2.3,0.59,4.3-0.26,5.15-0.72c-0.51-0.85-1.8-2.65-3.79-3.32
								C79.38,27.32,76.46,28.18,75.19,28.62z"/>
						</g>
						<g>
							<path class="st27" d="M106.06,27.21c0,0-1.18-3.19,0.42-6.38c1.88-3.74,5.33-4.62,5.33-4.62s0.7,4.84-0.91,7.54
								C109.3,26.46,106.06,27.21,106.06,27.21z"/>
							<path class="st24" d="M105.7,27.89l-0.18-0.48c-0.05-0.14-1.25-3.46,0.45-6.84c1.97-3.93,5.55-4.88,5.7-4.92l0.62-0.16
								l0.09,0.64c0.03,0.21,0.71,5.07-0.98,7.92c-1.71,2.88-5.07,3.69-5.21,3.73L105.7,27.89z M111.32,17
								c-1.03,0.44-3.06,1.58-4.32,4.09c-1.1,2.19-0.78,4.41-0.55,5.4c0.93-0.33,2.87-1.2,3.95-3.03
								C111.54,21.55,111.44,18.41,111.32,17z"/>
						</g>
					</g>
				</g>
			</g>
			<path class="st0" d="M15.85,186.88c-0.01,0.02-0.03,0.05-0.04,0.08"/>
			<path d="M22.47,181.57c2.74,1.9,5.71,3.45,8.82,4.58l0.09-0.23c-3.09-1.13-6.04-2.66-8.76-4.55L22.47,181.57z"/>
		</g>
		<g>
			<path class="st28" d="M220.48,217.88c0,0,5.77,12.73,9.84,18.62c4.07,5.89,5.6,12.23,5.6,12.23s1.13,5.39-4.07,6.38
				c0,0-3.14,2.89-27.66,3.52c-24.52,0.62-30.59,3.32-30.59,3.32l-11.92,4c0,0-12.29,4.58-19.88-2.51s-14.95-6.55-14.95-6.55
				s-9.28,0.71,2.27-2.75c11.55-3.45,28.72,5.7,50.4-6.59c21.68-12.29,30.37-5.63,30.37-5.63s23.58,8.09,17.95-1.32
				C222.17,231.2,220.48,217.88,220.48,217.88z"/>
			<path class="st29" d="M68.67,97.34c0,0,40.93,14.12,51.81,22.03c10.95,7.96,14.69,1.7,31.57-11.94
				c14-11.3,36.45-19.15,36.45-19.15l0.84,2.02l-56.68,37.22L69.06,99.87L68.67,97.34z"/>
			<path class="st30" d="M204.6,116.52c0,0,7.32,12.85,7.95,21.52l-2.11,2.51C210.44,140.55,208.92,128.86,204.6,116.52z"/>
			<path class="st31" d="M57.39,116.59c0,0-0.43,44.8-6.82,68.5l-1.14,3.77l2.65,0.55c0,0,1.3-7.53,3.14-16.72
				c1.3-6.5,2.42-14.24,2.09-21.47L57.39,116.59z"/>
			<path class="st30" d="M73.38,182.82c0,0,5.51,0.69,8.77-2.18c3.27-2.87,10.51-1.39,10.51-1.39s-9.87-1.52-12.55-1.23
				c0,0-2.98,4.5-8.88,4.16L73.38,182.82z"/>
			<path class="st30" d="M197.33,103.63c0,0-47.85,46.35-86.5,61.6l-0.68-0.45c0,0,59.83-35.56,86.74-62.01L197.33,103.63z"/>
			<g class="st32">
				<g>
					<path class="st24" d="M61.28,187.76c-1.42,9.12-5.52,16.9-5.2,26.33c0.01,0.25,0.4,0.25,0.4,0c-0.32-9.5,3.77-17.09,5.18-26.23
						C61.7,187.62,61.32,187.51,61.28,187.76L61.28,187.76z"/>
				</g>
			</g>
		</g>
	</g>
	<g class="st16">
		<g>
			<path class="st6" d="M64.8,44.66c-0.05-2.95,1.01-5.62,2.84-7.91c0.52-0.65,0.03-3.48-0.72-2.55c-2.4,3.01-3.48,6.66-3.42,10.48
				C63.54,46.45,64.83,46.43,64.8,44.66L64.8,44.66z"/>
		</g>
	</g>
	<g class="st16">
		<g>
			<path class="st6" d="M162.5,19.11c4.2-0.97,8.27,1.39,9.18,5.69c0.2,0.93,0.64-0.3,0.54-0.76c-0.96-4.57-5.14-7.47-9.76-6.41
				C161.98,17.73,162.11,19.2,162.5,19.11L162.5,19.11z"/>
		</g>
	</g>
</g>
</svg>
