<?xml version="1.0" encoding="utf-8"?>
<!-- Generator: Adobe Illustrator 28.2.0, SVG Export Plug-In . SVG Version: 6.00 Build 0)  -->
<svg version="1.1" id="Layer_1" xmlns="http://www.w3.org/2000/svg" xmlns:xlink="http://www.w3.org/1999/xlink" x="0px" y="0px"
	 viewBox="0 0 1095.17 525.99" style="enable-background:new 0 0 1095.17 525.99;" xml:space="preserve">
<style type="text/css">
	.st0{fill:url(#SVGID_1_);}
	.st1{fill:#020100;}
	.st2{fill:#090302;}
	.st3{fill:#150704;}
	.st4{fill:#1F0D07;}
	.st5{fill:#29130C;}
	.st6{fill:#331910;}
	.st7{fill:#3E2015;}
	.st8{fill:#48261B;}
	.st9{fill:#512B1F;}
	.st10{fill:#5A3124;}
	.st11{fill:#643628;}
	.st12{fill:#6E3D2D;}
	.st13{fill:#774231;}
	.st14{fill:#804735;}
	.st15{fill:#894D3A;}
	.st16{fill:#94533E;}
	.st17{fill:#9C5942;}
	.st18{fill:#A55E46;}
	.st19{fill:#AE634B;}
	.st20{fill:#B8694F;}
	.st21{fill:#C16E53;}
	.st22{fill:#CA7457;}
	.st23{fill:#D2795B;}
	.st24{fill:#DB7E61;}
	.st25{fill:#E58465;}
	.st26{fill:#EE8969;}
	.st27{fill:#F68E6D;}
	.st28{fill:#FF9371;}
	.st29{fill:#FF9975;}
	.st30{fill:#FF9E79;}
	.st31{fill:#FFA37D;}
	.st32{opacity:0.43;}
	.st33{fill:url(#SVGID_00000150824357154414006310000017525821780681265539_);}
	.st34{fill:url(#SVGID_00000054226732723947068780000013189377129161787027_);}
	.st35{opacity:0.81;}
	.st36{fill:url(#SVGID_00000151520005767737380750000005859874538348259517_);}
	.st37{fill:url(#SVGID_00000005255026777557446880000011831472167000465836_);}
</style>
<g>
	<g>
		
			<radialGradient id="SVGID_1_" cx="1878.5635" cy="-421.1071" r="80.037" gradientTransform="matrix(-0.6778 0.7352 0.7352 0.6778 2587.5454 -1059.0938)" gradientUnits="userSpaceOnUse">
			<stop  offset="0" style="stop-color:#413EFF"/>
			<stop  offset="1" style="stop-color:#0F1217"/>
		</radialGradient>
		<line class="st0" x1="1092.82" y1="0.89" x2="941.99" y2="92.13"/>
		<g>
			<g>
				<path d="M941.95,92.06c-2.97-4.91-0.04-7.51,78.94-51.57c44.75-24.97,70.57-41.84,71.89-39.66
					c1.32,2.18-26.17,15.38-68.85,44.68C948.98,96.95,944.34,96.02,941.95,92.06z"/>
				<path class="st1" d="M942.07,92c-2.9-4.79,0.01-7.37,76.54-50.07c43.4-24.22,68.48-40.57,69.78-38.43
					c1.3,2.14-25.37,14.99-66.77,43.4C948.99,96.74,944.4,95.85,942.07,92z"/>
				<path class="st2" d="M942.19,91.93c-2.82-4.66,0.05-7.23,74.13-48.57c42.06-23.47,66.4-39.3,67.67-37.2
					c1.27,2.11-24.57,14.6-64.69,42.12C948.99,96.52,944.46,95.69,942.19,91.93z"/>
				<path class="st3" d="M942.31,91.86c-2.74-4.53,0.1-7.1,71.73-47.07c40.71-22.73,64.31-38.04,65.56-35.97
					c1.25,2.07-23.77,14.21-62.61,40.85C949,96.31,944.52,95.52,942.31,91.86z"/>
				<path class="st4" d="M942.42,91.79c-2.67-4.41,0.14-6.96,69.32-45.57c39.36-21.98,62.23-36.77,63.45-34.74
					c1.23,2.03-22.97,13.82-60.53,39.57C949,96.09,944.58,95.36,942.42,91.79z"/>
				<path class="st5" d="M942.54,91.72c-2.59-4.28,0.19-6.82,66.91-44.07c38.02-21.23,60.14-35.5,61.34-33.51
					c1.2,1.99-22.17,13.43-58.45,38.29C949.01,95.87,944.64,95.19,942.54,91.72z"/>
				<path class="st6" d="M942.66,91.65c-2.51-4.15,0.23-6.68,64.51-42.57c36.67-20.49,58.05-34.23,59.23-32.28
					c1.18,1.95-21.37,13.04-56.37,37.01C949.01,95.66,944.7,95.03,942.66,91.65z"/>
				<path class="st7" d="M942.78,91.58c-2.44-4.03,0.28-6.55,62.1-41.07c35.32-19.74,55.97-32.96,57.13-31.05
					c1.16,1.91-20.57,12.64-54.29,35.74C949.01,95.44,944.76,94.87,942.78,91.58z"/>
				<path class="st8" d="M942.9,91.52c-2.36-3.9,0.32-6.41,59.7-39.57c33.98-18.99,53.88-31.69,55.02-29.82
					c1.13,1.87-19.77,12.25-52.21,34.46C949.02,95.22,944.82,94.7,942.9,91.52z"/>
				<path class="st9" d="M943.01,91.45c-2.28-3.77,0.37-6.27,57.29-38.07c32.63-18.24,51.8-30.42,52.91-28.58
					c1.11,1.83-18.97,11.86-50.13,33.18C949.02,95.01,944.88,94.54,943.01,91.45z"/>
				<path class="st10" d="M943.13,91.38c-2.21-3.65,0.41-6.13,54.88-36.57c31.28-17.5,49.71-29.15,50.8-27.35
					c1.09,1.8-18.17,11.47-48.05,31.9C949.03,94.79,944.94,94.37,943.13,91.38z"/>
				<path class="st11" d="M943.25,91.31c-2.13-3.52,0.46-6,52.48-35.07c29.94-16.75,47.63-27.88,48.69-26.12
					c1.06,1.76-17.37,11.08-45.97,30.62C949.03,94.57,945,94.21,943.25,91.31z"/>
				<path class="st12" d="M943.37,91.24c-2.05-3.39,0.5-5.86,50.07-33.57c28.59-16,45.54-26.61,46.58-24.89
					c1.04,1.72-16.57,10.69-43.89,29.35C949.04,94.36,945.06,94.04,943.37,91.24z"/>
				<path class="st13" d="M943.49,91.17c-1.98-3.27,0.55-5.72,47.67-32.07c27.24-15.26,43.46-25.34,44.47-23.66
					c1.02,1.68-15.77,10.3-41.81,28.07C949.04,94.14,945.12,93.88,943.49,91.17z"/>
				<path class="st14" d="M943.6,91.1c-1.9-3.14,0.59-5.59,45.26-30.57c25.9-14.51,41.37-24.07,42.36-22.43
					c0.99,1.64-14.97,9.91-39.73,26.79C949.05,93.92,945.18,93.71,943.6,91.1z"/>
				<path class="st15" d="M943.72,91.03c-1.82-3.01,0.64-5.45,42.85-29.07c24.55-13.76,39.29-22.8,40.25-21.2
					c0.97,1.6-14.16,9.51-37.65,25.51C949.05,93.71,945.24,93.55,943.72,91.03z"/>
				<path class="st16" d="M943.84,90.97c-1.75-2.89,0.68-5.31,40.45-27.57c23.2-13.02,37.2-21.53,38.15-19.97
					c0.95,1.56-13.36,9.12-35.57,24.23C949.05,93.49,945.3,93.39,943.84,90.97z"/>
				<path class="st17" d="M943.96,90.9c-1.67-2.76,0.73-5.17,38.04-26.07c21.86-12.27,35.11-20.26,36.04-18.74
					c0.92,1.52-12.56,8.73-33.49,22.96C949.06,93.27,945.36,93.22,943.96,90.9z"/>
				<path class="st18" d="M944.08,90.83c-1.59-2.63,0.77-5.04,35.64-24.57c20.51-11.52,33.03-18.99,33.93-17.51
					c0.9,1.49-11.76,8.34-31.41,21.68C949.06,93.06,945.42,93.06,944.08,90.83z"/>
				<path class="st19" d="M944.19,90.76c-1.51-2.5,0.82-4.9,33.23-23.07c19.16-10.78,30.94-17.72,31.82-16.28
					c0.88,1.45-10.96,7.95-29.32,20.4C949.07,92.84,945.48,92.89,944.19,90.76z"/>
				<path class="st20" d="M944.31,90.69c-1.44-2.38,0.86-4.76,30.82-21.57c17.82-10.03,28.86-16.46,29.71-15.05
					c0.85,1.41-10.16,7.56-27.24,19.12C949.07,92.62,945.54,92.73,944.31,90.69z"/>
				<path class="st21" d="M944.43,90.62c-1.36-2.25,0.91-4.62,28.42-20.07c16.47-9.28,26.77-15.19,27.6-13.82
					c0.83,1.37-9.36,7.17-25.16,17.85C949.08,92.41,945.6,92.56,944.43,90.62z"/>
				<path class="st22" d="M944.55,90.55c-1.28-2.12,0.95-4.49,26.01-18.57c15.12-8.54,24.69-13.92,25.49-12.59
					c0.81,1.33-8.56,6.77-23.08,16.57C949.08,92.19,945.66,92.4,944.55,90.55z"/>
				<path class="st23" d="M944.67,90.49c-1.21-2,1-4.35,23.61-17.07c13.78-7.79,22.6-12.65,23.38-11.35
					c0.78,1.29-7.76,6.38-21,15.29C949.09,91.98,945.72,92.23,944.67,90.49z"/>
				<path class="st24" d="M944.78,90.42c-1.13-1.87,1.04-4.21,21.2-15.57c12.43-7.04,20.52-11.38,21.27-10.12
					c0.76,1.25-6.96,5.99-18.92,14.01C949.09,91.76,945.78,92.07,944.78,90.42z"/>
				<path class="st25" d="M944.9,90.35c-1.05-1.74,1.09-4.08,18.8-14.07c11.08-6.3,18.43-10.11,19.17-8.89
					c0.73,1.22-6.16,5.6-16.84,12.73C949.09,91.54,945.84,91.91,944.9,90.35z"/>
				<path class="st26" d="M945.02,90.28c-0.98-1.62,1.13-3.94,16.39-12.57c9.74-5.55,16.35-8.84,17.06-7.66
					c0.71,1.18-5.38,5.18-14.76,11.46C949.07,91.29,945.9,91.74,945.02,90.28z"/>
				<path class="st27" d="M945.14,90.21c-0.9-1.49,1.18-3.8,13.98-11.07c8.39-4.8,14.26-7.57,14.95-6.43
					c0.69,1.14-4.58,4.79-12.68,10.18C949.08,91.07,945.96,91.58,945.14,90.21z"/>
				<path class="st28" d="M945.26,90.14c-0.82-1.36,1.22-3.66,11.58-9.57c7.04-4.06,12.17-6.3,12.84-5.2c0.66,1.1-3.77,4.4-10.6,8.9
					C949.08,90.86,946.03,91.41,945.26,90.14z"/>
				<path class="st29" d="M945.37,90.07c-0.75-1.24,1.27-3.53,9.17-8.07c5.7-3.31,10.09-5.03,10.73-3.97
					c0.64,1.06-2.97,4.01-8.52,7.62C949.09,90.65,946.09,91.25,945.37,90.07z"/>
				<path class="st30" d="M945.49,90c-0.67-1.11,1.31-3.39,6.77-6.57c4.35-2.56,8-3.76,8.62-2.74c0.62,1.02-2.17,3.63-6.44,6.35
					C949.1,90.44,946.15,91.08,945.49,90z"/>
				<path class="st31" d="M945.61,89.94c-0.59-0.98,1.36-3.25,4.36-5.07c3-1.82,5.92-2.49,6.51-1.51s-1.36,3.25-4.36,5.07
					C949.12,90.24,946.21,90.92,945.61,89.94z"/>
			</g>
		</g>
	</g>
	<g class="st32">
		
			<radialGradient id="SVGID_00000108301246608460539700000004657608971725880752_" cx="2379.4077" cy="-326.0125" r="80.037" gradientTransform="matrix(-0.6778 0.7352 0.7352 0.6778 2587.5454 -1059.0938)" gradientUnits="userSpaceOnUse">
			<stop  offset="0" style="stop-color:#413EFF"/>
			<stop  offset="1" style="stop-color:#0F1217"/>
		</radialGradient>
		
			<line style="fill:url(#SVGID_00000108301246608460539700000004657608971725880752_);" x1="823.26" y1="433.57" x2="672.43" y2="524.8"/>
		<g>
			<g>
				<path d="M672.41,524.77c-1.49-2.46,1.63-4.75,79.79-50.17c44.28-25.74,70.38-42.15,71.04-41.06
					c0.66,1.09-26.07,15.55-69.52,43.57C677.42,526.31,673.61,526.75,672.41,524.77z"/>
				<path class="st1" d="M672.53,524.7c-1.45-2.39,1.64-4.67,77.37-48.69c42.95-24.96,68.29-40.88,68.94-39.81
					c0.65,1.07-25.29,15.12-67.44,42.3C677.47,526.18,673.7,526.63,672.53,524.7z"/>
				<path class="st2" d="M672.65,524.63c-1.41-2.33,1.65-4.6,74.96-47.21c41.62-24.19,66.21-39.62,66.84-38.57
					c0.64,1.05-24.51,14.7-65.35,41.03C677.52,526.04,673.78,526.51,672.65,524.63z"/>
				<path class="st3" d="M672.76,524.56c-1.37-2.27,1.65-4.52,72.54-45.72c40.29-23.42,64.12-38.35,64.74-37.32
					c0.62,1.03-23.73,14.27-63.27,39.76C677.57,525.9,673.87,526.4,672.76,524.56z"/>
				<path class="st4" d="M672.88,524.49c-1.33-2.2,1.66-4.44,70.13-44.24c38.96-22.65,62.03-37.09,62.65-36.07
					c0.61,1.01-22.95,13.85-61.19,38.49C677.63,525.76,673.96,526.28,672.88,524.49z"/>
				<path class="st5" d="M673,524.42c-1.29-2.14,1.67-4.37,67.71-42.75c37.63-21.88,59.95-35.82,60.55-34.82
					c0.6,0.99-22.17,13.42-59.1,37.22C677.68,525.62,674.05,526.16,673,524.42z"/>
				<path class="st6" d="M673.12,524.35c-1.26-2.08,1.68-4.29,65.29-41.27c36.29-21.11,57.86-34.55,58.45-33.58
					c0.59,0.98-21.39,13-57.02,35.95C677.73,525.49,674.14,526.04,673.12,524.35z"/>
				<path class="st7" d="M673.23,524.28c-1.22-2.01,1.69-4.21,62.88-39.79c34.96-20.33,55.77-33.29,56.35-32.33
					c0.58,0.96-20.61,12.57-54.93,34.67C677.78,525.35,674.23,525.92,673.23,524.28z"/>
				<path class="st8" d="M673.35,524.21c-1.18-1.95,1.7-4.13,60.46-38.3c33.63-19.56,53.68-32.02,54.25-31.08
					c0.57,0.94-19.83,12.14-52.85,33.4C677.83,525.21,674.32,525.81,673.35,524.21z"/>
				<path class="st9" d="M673.47,524.14c-1.14-1.89,1.71-4.06,58.05-36.82c32.3-18.79,51.6-30.75,52.15-29.84
					c0.55,0.92-19.05,11.72-50.76,32.13C677.88,525.07,674.4,525.69,673.47,524.14z"/>
				<path class="st10" d="M673.59,524.07c-1.1-1.82,1.71-3.98,55.63-35.34c30.97-18.02,49.51-29.49,50.05-28.59
					c0.54,0.9-18.27,11.29-48.68,30.86C677.94,524.93,674.49,525.57,673.59,524.07z"/>
				<path class="st11" d="M673.7,524.01c-1.06-1.76,1.72-3.9,53.21-33.85c29.64-17.25,47.42-28.22,47.95-27.34
					c0.53,0.88-17.49,10.87-46.59,29.59C677.99,524.79,674.58,525.45,673.7,524.01z"/>
				<path class="st12" d="M673.82,523.94c-1.03-1.7,1.73-3.83,50.8-32.37c28.3-16.48,45.33-26.95,45.85-26.09
					c0.52,0.86-16.71,10.44-44.51,28.32C678.04,524.66,674.67,525.34,673.82,523.94z"/>
				<path class="st13" d="M673.94,523.87c-0.99-1.63,1.74-3.75,48.38-30.88c26.97-15.7,43.25-25.69,43.76-24.85
					c0.51,0.84-15.93,10.02-42.42,27.05C678.09,524.52,674.76,525.22,673.94,523.87z"/>
				<path class="st14" d="M674.06,523.8c-0.95-1.57,1.75-3.67,45.97-29.4c25.64-14.93,41.16-24.42,41.66-23.6
					c0.5,0.82-15.15,9.59-40.34,25.78C678.14,524.38,674.85,525.1,674.06,523.8z"/>
				<path class="st15" d="M674.17,523.73c-0.91-1.51,1.76-3.59,43.55-27.92c24.31-14.16,39.07-23.15,39.56-22.35
					c0.48,0.8-14.37,9.17-38.25,24.51C678.2,524.24,674.93,524.98,674.17,523.73z"/>
				<path class="st16" d="M674.29,523.66c-0.87-1.44,1.77-3.52,41.14-26.43c22.98-13.39,36.99-21.89,37.46-21.11
					c0.47,0.78-13.59,8.74-36.17,23.24C678.25,524.1,675.02,524.87,674.29,523.66z"/>
				<path class="st17" d="M674.41,523.59c-0.83-1.38,1.77-3.44,38.72-24.95c21.65-12.62,34.9-20.62,35.36-19.86
					c0.46,0.76-12.81,8.32-34.08,21.97C678.3,523.96,675.11,524.75,674.41,523.59z"/>
				<path class="st18" d="M674.53,523.52c-0.8-1.32,1.78-3.36,36.3-23.47c20.31-11.85,32.81-19.35,33.26-18.61
					c0.45,0.74-12.03,7.89-32,20.7C678.35,523.83,675.2,524.63,674.53,523.52z"/>
				<path class="st19" d="M674.64,523.45c-0.76-1.25,1.79-3.29,33.89-21.98c18.98-11.08,30.72-18.09,31.16-17.36
					c0.44,0.72-11.25,7.47-29.91,19.43C678.4,523.69,675.29,524.51,674.64,523.45z"/>
				<path class="st20" d="M674.76,523.38c-0.72-1.19,1.8-3.21,31.47-20.5c17.65-10.3,28.64-16.82,29.06-16.12
					c0.43,0.7-10.47,7.04-27.83,18.16C678.45,523.55,675.38,524.4,674.76,523.38z"/>
				<path class="st21" d="M674.88,523.31c-0.68-1.13,1.81-3.13,29.06-19.01c16.32-9.53,26.55-15.55,26.96-14.87
					c0.41,0.68-9.69,6.62-25.75,16.88C678.51,523.41,675.46,524.28,674.88,523.31z"/>
				<path class="st22" d="M675,523.24c-0.64-1.06,1.82-3.06,26.64-17.53c14.99-8.76,24.46-14.29,24.87-13.62
					c0.4,0.67-8.91,6.19-23.66,15.61C678.56,523.27,675.55,524.16,675,523.24z"/>
				<path class="st23" d="M675.11,523.17c-0.6-1,1.83-2.98,24.22-16.05c13.66-7.99,22.38-13.02,22.77-12.38
					c0.39,0.65-8.13,5.76-21.58,14.34C678.61,523.14,675.64,524.04,675.11,523.17z"/>
				<path class="st24" d="M675.23,523.1c-0.57-0.94,1.84-2.9,21.81-14.56c12.32-7.22,20.29-11.76,20.67-11.13
					c0.38,0.63-7.35,5.34-19.49,13.07C678.66,523,675.73,523.93,675.23,523.1z"/>
				<path class="st25" d="M675.35,523.03c-0.53-0.87,1.84-2.82,19.39-13.08c10.99-6.45,18.2-10.49,18.57-9.88
					c0.37,0.61-6.58,4.91-17.41,11.8C678.71,522.86,675.82,523.81,675.35,523.03z"/>
				<path class="st26" d="M675.46,522.96c-0.49-0.81,1.85-2.75,16.98-11.6c9.66-5.67,16.11-9.22,16.47-8.63
					c0.36,0.59-5.8,4.48-15.32,10.53C678.75,522.7,675.91,523.69,675.46,522.96z"/>
				<path class="st27" d="M675.58,522.89c-0.45-0.75,1.86-2.67,14.56-10.11c8.33-4.9,14.03-7.96,14.37-7.39
					c0.34,0.57-5.02,4.05-13.24,9.26C678.8,522.56,676,523.57,675.58,522.89z"/>
				<path class="st28" d="M675.7,522.82c-0.41-0.68,1.87-2.59,12.15-8.63c7-4.13,11.94-6.69,12.27-6.14
					c0.33,0.55-4.24,3.63-11.15,7.99C678.86,522.43,676.08,523.46,675.7,522.82z"/>
				<path class="st29" d="M675.82,522.75c-0.37-0.62,1.88-2.52,9.73-7.15c5.67-3.36,9.85-5.42,10.17-4.89
					c0.32,0.53-3.46,3.2-9.07,6.72C678.91,522.29,676.17,523.34,675.82,522.75z"/>
				<path class="st30" d="M675.93,522.68c-0.34-0.55,1.89-2.44,7.31-5.66c4.33-2.59,7.76-4.16,8.07-3.65
					c0.31,0.51-2.68,2.78-6.98,5.45C678.97,522.16,676.26,523.22,675.93,522.68z"/>
				<path class="st31" d="M676.05,522.61c-0.3-0.49,1.9-2.36,4.9-4.18c3-1.82,5.68-2.89,5.97-2.4c0.3,0.49-1.9,2.36-4.9,4.18
					S676.35,523.1,676.05,522.61z"/>
			</g>
		</g>
	</g>
	<g class="st32">
		
			<radialGradient id="SVGID_00000009560956401037399990000011244855866050205574_" cx="2793.7505" cy="-776.3888" r="49.5291" gradientTransform="matrix(-0.6778 0.7352 0.7352 0.6778 2587.5454 -1059.0938)" gradientUnits="userSpaceOnUse">
			<stop  offset="0" style="stop-color:#413EFF"/>
			<stop  offset="1" style="stop-color:#0F1217"/>
		</radialGradient>
		
			<line style="fill:url(#SVGID_00000009560956401037399990000011244855866050205574_);" x1="177.96" y1="447.26" x2="84.49" y2="502.65"/>
		<g>
			<g>
				<path d="M84.47,502.62c-1.46-2.47,0.4-3.98,49.14-31.02c27.62-15.32,43.69-25.47,44.34-24.37c0.65,1.1-16.19,9.37-42.84,26.89
					C88.31,504.89,85.64,504.61,84.47,502.62z"/>
				<path class="st1" d="M84.54,502.58c-1.43-2.41,0.42-3.91,47.65-30.11c26.78-14.86,42.39-24.7,43.03-23.62
					c0.64,1.08-15.7,9.13-41.55,26.12C88.32,504.77,85.69,504.52,84.54,502.58z"/>
				<path class="st2" d="M84.61,502.54c-1.39-2.34,0.44-3.84,46.15-29.2c25.95-14.4,41.1-23.93,41.73-22.87
					c0.63,1.06-15.21,8.88-40.26,25.34C88.34,504.66,85.73,504.43,84.61,502.54z"/>
				<path class="st3" d="M84.69,502.49c-1.35-2.28,0.46-3.77,44.66-28.3c25.12-13.94,39.81-23.16,40.42-22.12
					c0.62,1.04-14.72,8.64-38.97,24.57C88.35,504.54,85.78,504.34,84.69,502.49z"/>
				<path class="st4" d="M84.76,502.45c-1.31-2.22,0.47-3.7,43.17-27.39c24.29-13.48,38.52-22.39,39.12-21.37
					c0.6,1.02-14.23,8.4-37.68,23.8C88.37,504.43,85.82,504.25,84.76,502.45z"/>
				<path class="st5" d="M84.83,502.41c-1.27-2.15,0.49-3.63,41.67-26.48c23.46-13.02,37.22-21.62,37.82-20.62
					c0.59,1-13.74,8.15-36.39,23.02C88.38,504.31,85.87,504.16,84.83,502.41z"/>
				<path class="st6" d="M84.91,502.37c-1.24-2.09,0.51-3.56,40.18-25.57c22.63-12.57,35.93-20.85,36.51-19.87
					c0.58,0.98-13.25,7.91-35.1,22.25C88.4,504.2,85.91,504.07,84.91,502.37z"/>
				<path class="st7" d="M84.98,502.33c-1.2-2.02,0.53-3.49,38.69-24.67c21.8-12.11,34.64-20.08,35.21-19.12
					c0.57,0.96-12.76,7.66-33.81,21.47C88.41,504.08,85.96,503.98,84.98,502.33z"/>
				<path class="st8" d="M85.05,502.28c-1.16-1.96,0.55-3.42,37.19-23.76c20.97-11.65,33.34-19.31,33.9-18.37
					c0.56,0.94-12.27,7.42-32.52,20.7C88.43,503.97,86,503.89,85.05,502.28z"/>
				<path class="st9" d="M85.12,502.24c-1.12-1.9,0.57-3.35,35.7-22.85c20.14-11.19,32.05-18.54,32.6-17.62
					c0.55,0.92-11.78,7.17-31.23,19.93C88.44,503.85,86.04,503.8,85.12,502.24z"/>
				<path class="st10" d="M85.2,502.2c-1.09-1.83,0.59-3.27,34.21-21.94c19.31-10.73,30.76-17.77,31.29-16.86
					c0.53,0.9-11.29,6.93-29.94,19.15C88.46,503.74,86.09,503.71,85.2,502.2z"/>
				<path class="st11" d="M85.27,502.16c-1.05-1.77,0.61-3.2,32.71-21.04c18.48-10.27,29.47-17,29.99-16.11
					c0.52,0.88-10.8,6.68-28.65,18.38C88.47,503.62,86.13,503.62,85.27,502.16z"/>
				<path class="st12" d="M85.34,502.12c-1.01-1.71,0.62-3.13,31.22-20.13c17.65-9.81,28.17-16.23,28.68-15.36
					c0.51,0.86-10.3,6.44-27.36,17.6C88.49,503.51,86.18,503.53,85.34,502.12z"/>
				<path class="st13" d="M85.42,502.07c-0.97-1.64,0.64-3.06,29.72-19.22c16.82-9.36,26.88-15.46,27.38-14.61
					c0.5,0.84-9.81,6.19-26.07,16.83C88.5,503.39,86.22,503.44,85.42,502.07z"/>
				<path class="st14" d="M85.49,502.03c-0.93-1.58,0.66-2.99,28.23-18.31c15.98-8.9,25.59-14.69,26.08-13.86
					c0.49,0.83-9.32,5.95-24.78,16.05C88.52,503.28,86.27,503.35,85.49,502.03z"/>
				<path class="st15" d="M85.56,501.99c-0.9-1.51,0.68-2.92,26.74-17.41c15.15-8.44,24.29-13.92,24.77-13.11
					c0.48,0.81-8.83,5.7-23.49,15.28C88.53,503.16,86.31,503.26,85.56,501.99z"/>
				<path class="st16" d="M85.63,501.95c-0.86-1.45,0.7-2.85,25.24-16.5c14.32-7.98,23-13.15,23.47-12.36
					c0.47,0.79-8.34,5.46-22.2,14.51C88.55,503.05,86.36,503.17,85.63,501.95z"/>
				<path class="st17" d="M85.71,501.91c-0.82-1.39,0.72-2.78,23.75-15.59c13.49-7.52,21.71-12.38,22.16-11.61
					c0.45,0.77-7.85,5.21-20.91,13.73C88.56,502.93,86.4,503.08,85.71,501.91z"/>
				<path class="st18" d="M85.78,501.87c-0.78-1.32,0.74-2.71,22.26-14.69c12.66-7.06,20.41-11.61,20.86-10.86
					c0.44,0.75-7.36,4.97-19.61,12.96C88.58,502.82,86.44,502.99,85.78,501.87z"/>
				<path class="st19" d="M85.85,501.82c-0.75-1.26,0.75-2.64,20.76-13.78c11.83-6.61,19.12-10.84,19.55-10.11
					c0.43,0.73-6.87,4.72-18.32,12.18C88.59,502.7,86.49,502.9,85.85,501.82z"/>
				<path class="st20" d="M85.93,501.78c-0.71-1.2,0.77-2.57,19.27-12.87c11-6.15,17.83-10.07,18.25-9.36
					c0.42,0.71-6.38,4.48-17.03,11.41C88.61,502.59,86.53,502.81,85.93,501.78z"/>
				<path class="st21" d="M86,501.74c-0.67-1.13,0.79-2.5,17.78-11.96c10.17-5.69,16.54-9.3,16.94-8.61
					c0.41,0.69-5.89,4.24-15.74,10.63C88.62,502.47,86.58,502.71,86,501.74z"/>
				<path class="st22" d="M86.07,501.7c-0.63-1.07,0.81-2.43,16.28-11.06c9.34-5.23,15.24-8.53,15.64-7.86
					c0.4,0.67-5.4,3.99-14.45,9.86C88.64,502.36,86.62,502.62,86.07,501.7z"/>
				<path class="st23" d="M86.15,501.66c-0.59-1,0.83-2.35,14.79-10.15c8.51-4.77,13.95-7.76,14.33-7.11
					c0.38,0.65-4.91,3.75-13.16,9.09C88.65,502.24,86.67,502.53,86.15,501.66z"/>
				<path class="st24" d="M86.22,501.61c-0.56-0.94,0.85-2.28,13.29-9.24c7.68-4.31,12.66-6.99,13.03-6.36
					c0.37,0.63-4.41,3.5-11.87,8.31C88.66,502.13,86.71,502.44,86.22,501.61z"/>
				<path class="st25" d="M86.29,501.57c-0.52-0.88,0.87-2.21,11.8-8.33c6.85-3.85,11.36-6.22,11.73-5.61
					c0.36,0.61-3.92,3.26-10.58,7.54C88.68,502.01,86.76,502.35,86.29,501.57z"/>
				<path class="st26" d="M86.36,501.53c-0.48-0.81,0.89-2.14,10.31-7.43c6.01-3.4,10.07-5.45,10.42-4.85
					c0.35,0.59-3.44,3-9.29,6.76C88.68,501.88,86.8,502.26,86.36,501.53z"/>
				<path class="st27" d="M86.44,501.49c-0.44-0.75,0.9-2.07,8.81-6.52c5.18-2.94,8.78-4.68,9.12-4.1c0.34,0.57-2.95,2.75-8,5.99
					C88.7,501.76,86.84,502.17,86.44,501.49z"/>
				<path class="st28" d="M86.51,501.45c-0.41-0.69,0.92-2,7.32-5.61c4.35-2.48,7.49-3.91,7.81-3.35c0.33,0.55-2.46,2.51-6.71,5.21
					C88.71,501.65,86.89,502.08,86.51,501.45z"/>
				<path class="st29" d="M86.58,501.4c-0.37-0.62,0.94-1.93,5.83-4.71c3.52-2.02,6.19-3.14,6.51-2.6c0.32,0.53-1.97,2.27-5.42,4.44
					C88.73,501.54,86.93,501.99,86.58,501.4z"/>
				<path class="st30" d="M86.66,501.36c-0.33-0.56,0.96-1.86,4.33-3.8c2.69-1.56,4.9-2.37,5.2-1.85c0.3,0.51-1.47,2.02-4.13,3.67
					C88.75,501.43,86.98,501.9,86.66,501.36z"/>
				<path class="st31" d="M86.73,501.32c-0.29-0.49,0.98-1.79,2.84-2.89c1.86-1.1,3.61-1.6,3.9-1.1c0.29,0.49-0.98,1.79-2.84,2.89
					C88.77,501.32,87.02,501.81,86.73,501.32z"/>
			</g>
		</g>
	</g>
	<g class="st35">
		
			<radialGradient id="SVGID_00000050620539008846841500000016070573286648425884_" cx="2568.5713" cy="-1032.2769" r="109.4375" gradientTransform="matrix(-0.6778 0.7352 0.7352 0.6778 2587.5454 -1059.0938)" gradientUnits="userSpaceOnUse">
			<stop  offset="0" style="stop-color:#413EFF"/>
			<stop  offset="1" style="stop-color:#0F1217"/>
		</radialGradient>
		
			<line style="fill:url(#SVGID_00000050620539008846841500000016070573286648425884_);" x1="209.39" y1="84.17" x2="2.55" y2="203.95"/>
		<g>
			<g>
				<path d="M2.53,203.92c-1.44-2.48,2.91-5.41,109.76-65.45c60.54-34.02,96.44-55.43,97.08-54.33c0.64,1.1-35.71,20.46-95.61,56.87
					C8.58,204.94,3.69,205.92,2.53,203.92z"/>
				<path class="st1" d="M2.69,203.83c-1.4-2.42,2.9-5.32,106.44-63.51c58.72-33,93.58-53.77,94.21-52.69
					c0.63,1.08-34.65,19.89-92.75,55.2C8.67,204.78,3.82,205.78,2.69,203.83z"/>
				<path class="st2" d="M2.85,203.73c-1.36-2.36,2.9-5.24,103.13-61.56c56.9-31.98,90.72-52.11,91.33-51.04
					c0.62,1.06-33.59,19.32-89.89,53.53C8.76,204.62,3.95,205.64,2.85,203.73z"/>
				<path class="st3" d="M3.01,203.64c-1.33-2.29,2.9-5.16,99.81-59.62c55.08-30.96,87.85-50.45,88.46-49.4
					c0.61,1.05-32.53,18.76-87.03,51.87C8.85,204.46,4.09,205.5,3.01,203.64z"/>
				<path class="st4" d="M3.17,203.55c-1.29-2.23,2.89-5.07,96.49-57.68c53.26-29.94,84.99-48.79,85.59-47.76
					c0.59,1.03-31.47,18.19-84.17,50.2C8.94,204.3,4.22,205.36,3.17,203.55z"/>
				<path class="st5" d="M3.33,203.46c-1.25-2.16,2.89-4.99,93.18-55.73c51.44-28.92,82.13-47.12,82.71-46.12
					c0.58,1.01-30.41,17.62-81.31,48.54C9.03,204.15,4.35,205.22,3.33,203.46z"/>
				<path class="st6" d="M3.5,203.37c-1.22-2.1,2.89-4.91,89.86-53.79c49.62-27.9,79.27-45.46,79.84-44.48
					c0.57,0.99-29.35,17.05-78.45,46.87C9.12,203.99,4.48,205.08,3.5,203.37z"/>
				<path class="st7" d="M3.66,203.28c-1.18-2.04,2.88-4.82,86.54-51.85c47.8-26.88,76.4-43.8,76.96-42.83
					c0.56,0.97-28.29,16.48-75.59,45.2C9.21,203.83,4.62,204.94,3.66,203.28z"/>
				<path class="st8" d="M3.82,203.18c-1.14-1.97,2.88-4.74,83.22-49.91c45.98-25.86,73.54-42.14,74.09-41.19
					c0.55,0.95-27.22,15.91-72.73,43.54C9.3,203.67,4.75,204.8,3.82,203.18z"/>
				<path class="st9" d="M3.98,203.09c-1.1-1.91,2.88-4.66,79.91-47.96c44.16-24.84,70.68-40.48,71.21-39.55
					c0.54,0.93-26.16,15.34-69.87,41.87C9.39,203.51,4.88,204.66,3.98,203.09z"/>
				<path class="st10" d="M4.14,203c-1.07-1.84,2.88-4.58,76.59-46.02c42.34-23.81,67.81-38.81,68.34-37.91
					c0.53,0.91-25.1,14.77-67.01,40.21C9.48,203.36,5.02,204.51,4.14,203z"/>
				<path class="st11" d="M4.3,202.91c-1.03-1.78,2.87-4.49,73.27-44.08c40.52-22.79,64.95-37.15,65.46-36.26
					c0.51,0.89-24.04,14.21-64.15,38.54C9.57,203.2,5.15,204.37,4.3,202.91z"/>
				<path class="st12" d="M4.46,202.82c-0.99-1.72,2.87-4.41,69.96-42.13c38.7-21.77,62.09-35.49,62.59-34.62
					c0.5,0.87-22.98,13.64-61.29,36.87C9.66,203.04,5.28,204.23,4.46,202.82z"/>
				<path class="st13" d="M4.62,202.73c-0.96-1.65,2.87-4.33,66.64-40.19c36.88-20.75,59.22-33.83,59.72-32.98
					c0.49,0.85-21.92,13.07-58.43,35.21C9.75,202.88,5.41,204.09,4.62,202.73z"/>
				<path class="st14" d="M4.78,202.63c-0.92-1.59,2.87-4.24,63.32-38.25c35.06-19.73,56.36-32.17,56.84-31.34
					s-20.86,12.5-55.56,33.54C9.84,202.72,5.55,203.95,4.78,202.63z"/>
				<path class="st15" d="M4.94,202.54c-0.88-1.52,2.86-4.16,60.01-36.3c33.24-18.71,53.5-30.5,53.97-29.69
					c0.47,0.81-19.8,11.93-52.7,31.88C9.93,202.57,5.68,203.81,4.94,202.54z"/>
				<path class="st16" d="M5.1,202.45c-0.84-1.46,2.86-4.08,56.69-34.36c31.42-17.69,50.63-28.84,51.09-28.05
					s-18.74,11.36-49.84,30.21C10.02,202.41,5.81,203.67,5.1,202.45z"/>
				<path class="st17" d="M5.26,202.36c-0.81-1.39,2.86-3.99,53.37-32.42c29.6-16.67,47.77-27.18,48.22-26.41
					c0.45,0.77-17.67,10.79-46.98,28.54C10.11,202.25,5.94,203.53,5.26,202.36z"/>
				<path class="st18" d="M5.42,202.27c-0.77-1.33,2.85-3.91,50.05-30.48c27.78-15.65,44.91-25.52,45.34-24.77
					c0.44,0.75-16.61,10.23-44.12,26.88C10.2,202.09,6.08,203.39,5.42,202.27z"/>
				<path class="st19" d="M5.59,202.18c-0.73-1.27,2.85-3.83,46.74-28.53c25.96-14.63,42.05-23.86,42.47-23.13
					c0.42,0.73-15.55,9.66-41.26,25.21C10.29,201.94,6.21,203.25,5.59,202.18z"/>
				<path class="st20" d="M5.75,202.08c-0.7-1.2,2.85-3.75,43.42-26.59c24.14-13.61,39.18-22.2,39.59-21.48
					c0.41,0.71-14.49,9.09-38.4,23.54C10.38,201.78,6.34,203.11,5.75,202.08z"/>
				<path class="st21" d="M5.91,201.99c-0.66-1.14,2.85-3.66,40.1-24.65c22.32-12.59,36.32-20.53,36.72-19.84
					c0.4,0.69-13.43,8.52-35.54,21.88C10.47,201.62,6.48,202.97,5.91,201.99z"/>
				<path class="st22" d="M6.07,201.9c-0.62-1.07,2.84-3.58,36.79-22.7c20.5-11.57,33.46-18.87,33.85-18.2
					c0.39,0.67-12.37,7.95-32.68,20.21C10.56,201.46,6.61,202.83,6.07,201.9z"/>
				<path class="st23" d="M6.23,201.81c-0.58-1.01,2.84-3.5,33.47-20.76c18.68-10.55,30.59-17.21,30.97-16.56
					c0.38,0.65-11.31,7.38-29.82,18.55C10.65,201.3,6.74,202.69,6.23,201.81z"/>
				<path class="st24" d="M6.39,201.72c-0.55-0.95,2.84-3.41,30.15-18.82c16.86-9.53,27.73-15.55,28.1-14.91
					c0.37,0.63-10.25,6.81-26.96,16.88C10.74,201.15,6.87,202.55,6.39,201.72z"/>
				<path class="st25" d="M6.55,201.62c-0.51-0.88,2.83-3.33,26.84-16.88c15.04-8.51,24.87-13.89,25.22-13.27
					c0.36,0.61-9.18,6.24-24.1,15.21C10.83,200.99,7.01,202.41,6.55,201.62z"/>
				<path class="st26" d="M6.71,201.53c-0.47-0.82,2.83-3.25,23.52-14.93c13.22-7.49,22-12.22,22.35-11.63
					c0.34,0.59-8.13,5.66-21.24,13.55C10.91,200.81,7.14,202.27,6.71,201.53z"/>
				<path class="st27" d="M6.87,201.44c-0.44-0.75,2.83-3.16,20.2-12.99c11.4-6.47,19.14-10.56,19.47-9.99s-7.07,5.09-18.38,11.88
					C11,200.65,7.27,202.13,6.87,201.44z"/>
				<path class="st28" d="M7.03,201.35c-0.4-0.69,2.83-3.08,16.89-11.05c9.58-5.45,16.28-8.9,16.6-8.34
					c0.32,0.56-6.01,4.53-15.52,10.22C11.09,200.5,7.4,201.99,7.03,201.35z"/>
				<path class="st29" d="M7.19,201.26c-0.36-0.63,2.82-3,13.57-9.1c7.76-4.43,13.41-7.24,13.73-6.7c0.31,0.54-4.95,3.96-12.66,8.55
					C11.18,200.34,7.54,201.85,7.19,201.26z"/>
				<path class="st30" d="M7.35,201.17c-0.32-0.56,2.82-2.92,10.25-7.16c5.94-3.4,10.55-5.58,10.85-5.06
					c0.3,0.52-3.88,3.39-9.79,6.88C11.28,200.19,7.67,201.71,7.35,201.17z"/>
				<path class="st31" d="M7.51,201.07c-0.29-0.5,2.82-2.83,6.93-5.22c4.12-2.38,7.69-3.91,7.98-3.42c0.29,0.5-2.82,2.83-6.93,5.22
					C11.37,200.04,7.8,201.57,7.51,201.07z"/>
			</g>
		</g>
	</g>
	<g class="st32">
		
			<radialGradient id="SVGID_00000031183595860955158610000000736039023138750364_" cx="2493.4795" cy="-572.6129" r="49.5291" gradientTransform="matrix(-0.6778 0.7352 0.7352 0.6778 2587.5454 -1059.0938)" gradientUnits="userSpaceOnUse">
			<stop  offset="0" style="stop-color:#413EFF"/>
			<stop  offset="1" style="stop-color:#0F1217"/>
		</radialGradient>
		
			<line style="fill:url(#SVGID_00000031183595860955158610000000736039023138750364_);" x1="531.3" y1="364.62" x2="437.83" y2="420.01"/>
		<g>
			<g>
				<path d="M437.81,419.98c-1.46-2.47,0.4-3.98,49.14-31.02c27.62-15.32,43.69-25.47,44.34-24.37c0.65,1.1-16.19,9.37-42.84,26.89
					C441.65,422.25,438.98,421.97,437.81,419.98z"/>
				<path class="st1" d="M437.88,419.94c-1.43-2.41,0.42-3.91,47.65-30.11c26.78-14.86,42.39-24.7,43.03-23.62
					c0.64,1.08-15.7,9.13-41.55,26.12C441.66,422.13,439.03,421.88,437.88,419.94z"/>
				<path class="st2" d="M437.95,419.9c-1.39-2.34,0.44-3.84,46.15-29.2c25.95-14.4,41.1-23.93,41.73-22.87
					c0.63,1.06-15.21,8.88-40.26,25.34C441.68,422.02,439.07,421.79,437.95,419.9z"/>
				<path class="st3" d="M438.03,419.85c-1.35-2.28,0.46-3.77,44.66-28.3c25.12-13.94,39.81-23.16,40.42-22.12
					s-14.72,8.64-38.97,24.57C441.69,421.9,439.12,421.7,438.03,419.85z"/>
				<path class="st4" d="M438.1,419.81c-1.31-2.22,0.47-3.7,43.17-27.39c24.29-13.48,38.52-22.39,39.12-21.37
					c0.6,1.02-14.23,8.4-37.68,23.8C441.71,421.79,439.16,421.61,438.1,419.81z"/>
				<path class="st5" d="M438.17,419.77c-1.27-2.15,0.49-3.63,41.67-26.48c23.46-13.02,37.22-21.62,37.82-20.62
					c0.59,1-13.74,8.15-36.39,23.02C441.72,421.67,439.21,421.52,438.17,419.77z"/>
				<path class="st6" d="M438.24,419.73c-1.24-2.09,0.51-3.56,40.18-25.57c22.63-12.57,35.93-20.85,36.51-19.87
					c0.58,0.98-13.25,7.91-35.1,22.25C441.74,421.56,439.25,421.43,438.24,419.73z"/>
				<path class="st7" d="M438.32,419.69c-1.2-2.02,0.53-3.49,38.69-24.67c21.8-12.11,34.64-20.08,35.21-19.12
					c0.57,0.96-12.76,7.66-33.81,21.47C441.75,421.44,439.3,421.34,438.32,419.69z"/>
				<path class="st8" d="M438.39,419.64c-1.16-1.96,0.55-3.42,37.19-23.76c20.97-11.65,33.34-19.31,33.9-18.37
					c0.56,0.94-12.27,7.42-32.52,20.7C441.77,421.33,439.34,421.25,438.39,419.64z"/>
				<path class="st9" d="M438.46,419.6c-1.12-1.9,0.57-3.35,35.7-22.85c20.14-11.19,32.05-18.54,32.6-17.61
					c0.55,0.92-11.78,7.17-31.23,19.93C441.78,421.21,439.38,421.16,438.46,419.6z"/>
				<path class="st10" d="M438.54,419.56c-1.09-1.83,0.59-3.27,34.21-21.94c19.31-10.73,30.76-17.77,31.29-16.86
					c0.53,0.9-11.29,6.93-29.94,19.15C441.8,421.1,439.43,421.07,438.54,419.56z"/>
				<path class="st11" d="M438.61,419.52c-1.05-1.77,0.61-3.2,32.71-21.04c18.48-10.27,29.47-17,29.99-16.11
					c0.52,0.88-10.8,6.68-28.65,18.38C441.81,420.98,439.47,420.98,438.61,419.52z"/>
				<path class="st12" d="M438.68,419.48c-1.01-1.71,0.62-3.13,31.22-20.13c17.65-9.81,28.17-16.23,28.68-15.36
					c0.51,0.86-10.3,6.44-27.36,17.6C441.83,420.87,439.52,420.89,438.68,419.48z"/>
				<path class="st13" d="M438.76,419.43c-0.97-1.64,0.64-3.06,29.72-19.22c16.82-9.36,26.88-15.46,27.38-14.61
					c0.5,0.84-9.81,6.19-26.07,16.83C441.84,420.75,439.56,420.8,438.76,419.43z"/>
				<path class="st14" d="M438.83,419.39c-0.93-1.58,0.66-2.99,28.23-18.32c15.98-8.9,25.59-14.69,26.08-13.86
					c0.49,0.83-9.32,5.95-24.78,16.05C441.86,420.64,439.61,420.71,438.83,419.39z"/>
				<path class="st15" d="M438.9,419.35c-0.9-1.51,0.68-2.92,26.74-17.41c15.15-8.44,24.29-13.92,24.77-13.11
					c0.48,0.81-8.83,5.7-23.49,15.28C441.87,420.52,439.65,420.62,438.9,419.35z"/>
				<path class="st16" d="M438.97,419.31c-0.86-1.45,0.7-2.85,25.24-16.5c14.32-7.98,23-13.15,23.47-12.36
					c0.47,0.79-8.34,5.46-22.2,14.51C441.89,420.41,439.7,420.53,438.97,419.31z"/>
				<path class="st17" d="M439.05,419.27c-0.82-1.39,0.72-2.78,23.75-15.59c13.49-7.52,21.71-12.38,22.16-11.61
					c0.45,0.77-7.85,5.21-20.91,13.73C441.9,420.29,439.74,420.44,439.05,419.27z"/>
				<path class="st18" d="M439.12,419.23c-0.78-1.32,0.74-2.71,22.26-14.69c12.66-7.06,20.41-11.61,20.86-10.86
					c0.44,0.75-7.36,4.97-19.61,12.96C441.92,420.18,439.78,420.35,439.12,419.23z"/>
				<path class="st19" d="M439.19,419.18c-0.75-1.26,0.75-2.64,20.76-13.78c11.83-6.61,19.12-10.84,19.55-10.11
					s-6.87,4.72-18.32,12.18C441.93,420.06,439.83,420.26,439.19,419.18z"/>
				<path class="st20" d="M439.27,419.14c-0.71-1.2,0.77-2.57,19.27-12.87c11-6.15,17.83-10.07,18.25-9.36
					c0.42,0.71-6.38,4.48-17.03,11.41C441.95,419.95,439.87,420.17,439.27,419.14z"/>
				<path class="st21" d="M439.34,419.1c-0.67-1.13,0.79-2.5,17.78-11.96c10.17-5.69,16.54-9.3,16.94-8.61
					c0.41,0.69-5.89,4.24-15.74,10.63C441.96,419.83,439.92,420.08,439.34,419.1z"/>
				<path class="st22" d="M439.41,419.06c-0.63-1.07,0.81-2.43,16.28-11.06c9.34-5.23,15.24-8.53,15.64-7.86
					c0.4,0.67-5.4,3.99-14.45,9.86C441.97,419.72,439.96,419.98,439.41,419.06z"/>
				<path class="st23" d="M439.49,419.02c-0.59-1,0.83-2.35,14.79-10.15c8.51-4.77,13.95-7.76,14.33-7.11
					c0.38,0.65-4.91,3.75-13.16,9.08C441.99,419.6,440.01,419.89,439.49,419.02z"/>
				<path class="st24" d="M439.56,418.97c-0.56-0.94,0.85-2.28,13.29-9.24c7.68-4.31,12.66-6.99,13.03-6.36
					c0.37,0.63-4.41,3.5-11.87,8.31C442,419.49,440.05,419.8,439.56,418.97z"/>
				<path class="st25" d="M439.63,418.93c-0.52-0.88,0.87-2.21,11.8-8.33c6.85-3.85,11.36-6.22,11.73-5.61
					c0.36,0.61-3.92,3.26-10.58,7.54C442.02,419.37,440.1,419.71,439.63,418.93z"/>
				<path class="st26" d="M439.7,418.89c-0.48-0.81,0.89-2.14,10.31-7.43c6.01-3.4,10.07-5.45,10.42-4.85
					c0.35,0.59-3.44,3-9.29,6.76C442.02,419.24,440.14,419.62,439.7,418.89z"/>
				<path class="st27" d="M439.78,418.85c-0.44-0.75,0.9-2.07,8.81-6.52c5.18-2.94,8.78-4.68,9.12-4.1c0.34,0.57-2.95,2.75-8,5.99
					C442.04,419.12,440.18,419.53,439.78,418.85z"/>
				<path class="st28" d="M439.85,418.81c-0.41-0.69,0.92-2,7.32-5.61c4.35-2.48,7.49-3.91,7.81-3.35c0.33,0.55-2.46,2.51-6.71,5.21
					C442.05,419.01,440.23,419.44,439.85,418.81z"/>
				<path class="st29" d="M439.92,418.76c-0.37-0.62,0.94-1.93,5.83-4.71c3.52-2.02,6.19-3.14,6.51-2.6
					c0.32,0.53-1.97,2.27-5.42,4.44C442.07,418.9,440.27,419.35,439.92,418.76z"/>
				<path class="st30" d="M440,418.72c-0.33-0.56,0.96-1.86,4.33-3.8c2.69-1.56,4.9-2.37,5.2-1.85c0.3,0.51-1.47,2.02-4.13,3.67
					C442.09,418.79,440.32,419.26,440,418.72z"/>
				<path class="st31" d="M440.07,418.68c-0.29-0.49,0.98-1.79,2.84-2.89c1.86-1.1,3.61-1.6,3.9-1.1c0.29,0.49-0.98,1.79-2.84,2.89
					C442.11,418.68,440.36,419.17,440.07,418.68z"/>
			</g>
		</g>
	</g>
</g>
</svg>
