<?xml version="1.0" encoding="utf-8"?>
<!-- Generator: Adobe Illustrator 28.2.0, SVG Export Plug-In . SVG Version: 6.00 Build 0)  -->
<svg version="1.1" id="Layer_1" xmlns="http://www.w3.org/2000/svg" xmlns:xlink="http://www.w3.org/1999/xlink" x="0px" y="0px"
	 viewBox="0 0 48 48" style="enable-background:new 0 0 48 48;" xml:space="preserve">
<style type="text/css">
	.st0{fill:#FFFFFF;}
	.st1{fill:#F20040;}
	.st2{fill:#14439D;}
	.st3{fill:#15439E;}
</style>
<g>
	<circle class="st0" cx="24" cy="24" r="24"/>
	<g>
		<path class="st1" d="M47.92,22.17c-0.11-0.69-0.08-1.39-0.19-2.07c-0.05-0.29-0.1-0.57-0.16-0.86c-0.16-0.01-0.36-0.01-0.6-0.01
			c-5.5,0-11,0-16.51,0c-1.06,0-1.06,0-1.06-1.06c0-5.76,0-11.51,0-17.27c0-0.11,0-0.21-0.01-0.3c-1.09-0.26-2.19-0.43-3.33-0.46
			c-1.51-0.09-3.01-0.1-4.51,0.01c-0.98,0.07-1.93,0.22-2.87,0.43c-0.01,0.17-0.02,0.37-0.02,0.63c0,0.1,0,0.19,0,0.29
			c0,5.61,0,11.23,0,16.84c0,0.81-0.06,0.88-0.86,0.88c-3.02,0-6.04,0-9.06,0c-2.67,0-5.34-0.01-8.02,0.01c-0.09,0-0.17,0-0.24,0.01
			c-0.2,1.01-0.32,2.04-0.35,3.1c-0.04,1.65-0.1,3.3,0.1,4.93c0.06,0.52,0.15,1.03,0.25,1.54c0.17,0.01,0.36,0.01,0.62,0.01
			c5.47,0,10.94,0,16.41,0c1.15,0,1.15,0,1.15,1.16c0,5.73,0,11.45,0,17.18c0,0.11,0,0.21,0.01,0.3c0.08,0.02,0.15,0.04,0.22,0.06
			c1.08,0.25,2.17,0.3,3.27,0.4c1.24,0,2.49,0,3.73,0c0.06-0.06,0.14-0.05,0.22-0.05c1.11-0.01,2.2-0.16,3.27-0.41
			c0.01-0.17,0.01-0.37,0.01-0.64c0-5.66,0-11.33,0-16.99c0-1,0.02-1.01,1.02-1.01c5.42,0,10.85,0,16.27,0
			c0.29,0,0.57,0.01,0.86-0.01c0.01,0,0.02,0,0.03,0c0.19-0.96,0.24-1.94,0.34-2.91C47.92,24.66,47.92,23.41,47.92,22.17z"/>
		<path class="st2" d="M30.69,14.54c0,0.13-0.07,0.28,0.09,0.41c3.61-2.41,7.21-4.83,10.84-7.26c-0.57-0.61-1.17-1.2-1.8-1.75
			c-2.53-2.23-5.41-3.85-8.64-4.84c-0.16-0.05-0.33-0.1-0.49-0.15c0,0.03-0.01,0.06-0.01,0.1C30.69,5.54,30.68,10.04,30.69,14.54z"
			/>
		<path class="st2" d="M17.31,33.45c0-0.13,0.07-0.28-0.08-0.41c-3.61,2.42-7.23,4.84-10.86,7.27c0.94,1.02,1.97,1.96,3.09,2.82
			c2.38,1.83,5.01,3.14,7.86,3.97c0-0.05,0.01-0.1,0.01-0.15C17.31,42.45,17.32,37.95,17.31,33.45z"/>
		<path class="st2" d="M17.32,14.42c0-4.43,0-8.87,0-13.3c0-0.07,0-0.13,0-0.18c-1.39,0.41-2.74,0.95-4.05,1.61
			C10.7,3.83,8.44,5.53,6.48,7.63C6.46,7.66,6.44,7.68,6.41,7.7c3.62,2.43,7.22,4.84,10.9,7.3C17.32,14.73,17.32,14.58,17.32,14.42z
			"/>
		<path class="st1" d="M9.93,17.59c1.89-0.01,3.78,0,5.72,0c-0.04-0.09-0.05-0.13-0.07-0.14c-3.73-2.41-7.47-4.82-11.2-7.24
			c-0.62,0.87-1.18,1.78-1.67,2.73c2.23,1.48,4.47,2.97,6.7,4.46C9.56,17.51,9.72,17.59,9.93,17.59z"/>
		<path class="st1" d="M15.31,30.72c0.11-0.07,0.27-0.09,0.3-0.26c-0.03-0.02-0.06-0.04-0.08-0.04c-1.87,0-3.75,0-5.62-0.01
			c-0.21,0-0.36,0.09-0.52,0.2c-2.24,1.49-4.47,2.99-6.72,4.47c0.19,0.37,0.39,0.73,0.6,1.09c0.33,0.57,0.69,1.12,1.07,1.65
			c0.01-0.01,0.02-0.01,0.03-0.02C8.02,35.43,11.67,33.08,15.31,30.72z"/>
		<path class="st1" d="M34.78,15.93c-0.81,0.52-1.61,1.04-2.42,1.57c0.01,0.03,0.03,0.06,0.04,0.09c1.88,0,3.75,0,5.63,0
			c0.18,0,0.34-0.04,0.49-0.14c2.26-1.51,4.52-3.02,6.79-4.53c-0.04-0.08-0.08-0.16-0.12-0.25c-0.46-0.87-0.98-1.7-1.54-2.49
			c-0.01,0-0.01,0-0.01,0.01C40.7,12.11,37.74,14.02,34.78,15.93z"/>
		<path class="st3" d="M42.6,17.57c1.59,0,3.08,0,4.57,0c-0.24-0.85-0.53-1.68-0.86-2.5c-0.97,0.67-1.95,1.32-2.93,1.97
			C43.15,17.19,42.92,17.35,42.6,17.57z"/>
		<path class="st3" d="M5.31,17.49c-1.2-0.8-2.39-1.6-3.58-2.4c-0.33,0.82-0.62,1.64-0.86,2.48c1.49,0,2.95,0,4.41,0
			C5.29,17.54,5.3,17.52,5.31,17.49z"/>
		<path class="st3" d="M5.05,30.68c0.09-0.06,0.26-0.07,0.23-0.25c-1.47,0-2.94,0-4.43,0c0.23,0.85,0.51,1.69,0.84,2.51c0,0,0,0,0,0
			C2.81,32.17,3.93,31.43,5.05,30.68z"/>
		<path class="st2" d="M30.68,33.51c0,4.45,0,8.91,0,13.36c0,0.1,0,0.18,0,0.25c4.3-1.26,7.95-3.53,10.96-6.8
			c-3.64-2.44-7.27-4.87-10.97-7.34C30.68,33.23,30.68,33.37,30.68,33.51z"/>
		<path class="st1" d="M38.57,30.58c-0.16-0.11-0.33-0.17-0.53-0.17c-1.88,0.01-3.75,0-5.63,0c-0.02,0.03-0.03,0.06-0.05,0.09
			c0.54,0.35,1.08,0.7,1.62,1.05c3.22,2.08,6.45,4.16,9.66,6.26c0.01,0.01,0.02,0.01,0.04,0.02c0.62-0.88,1.18-1.79,1.67-2.74
			c0,0,0,0,0,0C43.08,33.59,40.83,32.08,38.57,30.58z"/>
		<path class="st3" d="M46.34,32.93c0.32-0.81,0.61-1.65,0.85-2.5c-1.5,0-2.99,0-4.6,0C43.9,31.3,45.11,32.11,46.34,32.93z"/>
	</g>
</g>
</svg>
