<?xml version="1.0" encoding="utf-8"?>
<!-- Generator: Adobe Illustrator 28.2.0, SVG Export Plug-In . SVG Version: 6.00 Build 0)  -->
<svg version="1.1" id="Layer_1" xmlns="http://www.w3.org/2000/svg" xmlns:xlink="http://www.w3.org/1999/xlink" x="0px" y="0px"
	 viewBox="0 0 48 48" style="enable-background:new 0 0 48 48;" xml:space="preserve">
<style type="text/css">
	.st0{fill:#FFFFFF;}
	.st1{fill:#010101;}
	.st2{fill:#EC1C24;}
	.st3{fill:#0071BB;}
</style>
<g>
	<circle class="st0" cx="24" cy="24" r="24"/>
	<path d="M13.49,11.67c-0.06,0.09-0.11,0.17-0.16,0.25c-1.53,2.3-3.07,4.6-4.59,6.9c-0.18,0.27-0.29,0.26-0.54,0.09
		c-0.87-0.59-0.88-0.58-0.29-1.47c1.38-2.07,2.76-4.13,4.12-6.2c0.21-0.31,0.35-0.41,0.66-0.14c0.18,0.16,0.41,0.28,0.62,0.42
		C13.38,11.56,13.43,11.62,13.49,11.67z"/>
	<path d="M11.62,10.37c-0.05,0.07-0.1,0.15-0.15,0.23c-1.53,2.3-3.07,4.59-4.59,6.9c-0.16,0.25-0.26,0.25-0.5,0.09
		c-0.9-0.6-0.91-0.59-0.31-1.5c1.39-2.08,2.78-4.15,4.15-6.24c0.2-0.3,0.34-0.34,0.6-0.11c0.19,0.16,0.41,0.28,0.62,0.42
		C11.52,10.22,11.62,10.24,11.62,10.37z"/>
	<path d="M40.68,18.33c0.01,0.14-0.09,0.17-0.16,0.23c-0.93,0.73-0.93,0.73-1.58-0.24c-1.39-2.08-2.76-4.16-4.16-6.23
		c-0.2-0.29-0.17-0.4,0.12-0.59c0.87-0.55,0.86-0.57,1.43,0.3c1.38,2.08,2.77,4.16,4.15,6.23C40.55,18.13,40.62,18.24,40.68,18.33z"
		/>
	<path d="M11.6,37.62c-0.05,0.05-0.1,0.1-0.16,0.15c-0.94,0.79-0.94,0.79-1.61-0.21c-1.38-2.07-2.75-4.13-4.14-6.19
		c-0.19-0.28-0.24-0.43,0.1-0.64c0.86-0.54,0.84-0.55,1.41,0.29c1.39,2.09,2.79,4.18,4.18,6.27C11.45,37.4,11.52,37.5,11.6,37.62z"
		/>
	<path d="M15.4,12.91c-0.04,0.07-0.09,0.15-0.14,0.23c-1.53,2.3-3.07,4.6-4.59,6.9c-0.15,0.23-0.25,0.27-0.5,0.1
		c-0.91-0.61-0.91-0.6-0.32-1.49c1.38-2.06,2.76-4.12,4.12-6.2c0.21-0.32,0.36-0.41,0.66-0.14c0.17,0.15,0.39,0.26,0.58,0.39
		C15.29,12.75,15.38,12.79,15.4,12.91z"/>
	<path d="M10.31,27.82c0.13-0.01,0.15,0.1,0.2,0.17c1.56,2.34,3.12,4.68,4.68,7.01c0.12,0.17,0.13,0.27-0.06,0.41
		c-0.94,0.7-0.94,0.7-1.59-0.27c-1.38-2.08-2.76-4.16-4.16-6.23c-0.18-0.27-0.18-0.4,0.11-0.56C9.78,28.2,10.04,27.99,10.31,27.82z"
		/>
	<path class="st1" d="M33.73,35.96c-0.34-0.24-0.71-0.48-1.05-0.75c-0.09-0.07,0.03-0.16,0.08-0.24c0.61-0.92,1.23-1.84,1.84-2.77
		c0.11-0.17,0.19-0.18,0.37-0.07c1.02,0.61,1.02,0.6,0.37,1.59c-0.44,0.66-0.88,1.33-1.33,1.99C33.93,35.81,33.9,35.95,33.73,35.96z
		"/>
	<path class="st1" d="M11.25,33.34c0.11-0.01,0.15,0.05,0.19,0.12c0.63,0.95,1.26,1.9,1.9,2.84c0.11,0.16,0.07,0.25-0.08,0.33
		c-0.01,0.01-0.03,0.02-0.04,0.02c-0.92,0.69-0.92,0.69-1.56-0.27c-0.44-0.66-0.87-1.33-1.33-1.98c-0.18-0.25-0.15-0.38,0.12-0.53
		C10.73,33.72,10.99,33.51,11.25,33.34z"/>
	<path class="st1" d="M9.53,32.89c-0.16-0.02-0.19-0.14-0.25-0.23c-0.59-0.88-1.17-1.77-1.77-2.65c-0.15-0.22-0.13-0.32,0.1-0.47
		c0.91-0.63,0.91-0.63,1.51,0.26c0.46,0.69,0.91,1.38,1.38,2.06c0.14,0.2,0.14,0.31-0.08,0.44C10.1,32.49,9.81,32.7,9.53,32.89z"/>
	<path class="st1" d="M40.39,34.26c-0.35-0.24-0.72-0.48-1.07-0.74c-0.1-0.07,0.02-0.16,0.07-0.23c0.61-0.92,1.23-1.84,1.84-2.77
		c0.13-0.2,0.26-0.22,0.4-0.06c0.26,0.3,1.03,0.36,0.8,0.79c-0.51,1.01-1.23,1.92-1.86,2.87C40.53,34.18,40.5,34.25,40.39,34.26z"/>
	<path d="M39.72,12.83c0,0.13-0.09,0.15-0.14,0.19c-0.94,0.78-0.94,0.78-1.61-0.23c-0.45-0.67-0.89-1.35-1.35-2.02
		c-0.15-0.21-0.14-0.31,0.09-0.47c0.92-0.62,0.92-0.63,1.53,0.29c0.44,0.66,0.88,1.32,1.32,1.98
		C39.62,12.67,39.68,12.76,39.72,12.83z"/>
	<path d="M40.7,29.82c-0.04,0.07-0.09,0.15-0.14,0.23c-0.58,0.87-1.17,1.73-1.73,2.61c-0.15,0.24-0.26,0.27-0.5,0.11
		c-0.91-0.61-0.91-0.6-0.31-1.49c0.46-0.69,0.92-1.37,1.37-2.06c0.13-0.2,0.23-0.26,0.43-0.1c0.23,0.18,0.49,0.33,0.73,0.5
		C40.61,29.66,40.72,29.69,40.7,29.82z"/>
	<path d="M42.57,16.96c0.01,0.14-0.1,0.16-0.17,0.21c-0.94,0.72-0.94,0.72-1.59-0.27c-0.45-0.67-0.89-1.35-1.35-2.02
		c-0.14-0.2-0.13-0.29,0.08-0.44c0.94-0.65,0.93-0.66,1.57,0.3c0.43,0.65,0.86,1.3,1.3,1.95C42.47,16.79,42.52,16.88,42.57,16.96z"
		/>
	<path d="M35.48,30.94c0.68-1.02,1.33-1.98,1.96-2.94c0.14-0.21,0.23-0.22,0.43-0.09c0.96,0.61,0.97,0.6,0.35,1.53
		c-0.51,0.77-1.02,1.53-1.54,2.31C36.27,31.47,35.89,31.21,35.48,30.94z"/>
	<path d="M33.85,12.14c0.14,0.02,0.17,0.12,0.22,0.19c0.61,0.91,1.2,1.82,1.82,2.72c0.13,0.18,0.11,0.27-0.07,0.41
		c-0.94,0.7-0.93,0.7-1.58-0.26c-0.45-0.67-0.89-1.35-1.35-2.02c-0.14-0.2-0.17-0.33,0.08-0.47C33.28,12.54,33.57,12.33,33.85,12.14
		z"/>
	<path d="M39.75,35.27c-0.04,0.07-0.09,0.15-0.14,0.22c-0.59,0.88-1.18,1.76-1.76,2.65c-0.14,0.22-0.23,0.25-0.46,0.1
		c-0.93-0.62-0.94-0.61-0.33-1.53c0.45-0.67,0.91-1.34,1.34-2.02c0.14-0.22,0.25-0.28,0.47-0.1c0.22,0.17,0.47,0.31,0.7,0.47
		C39.65,35.1,39.74,35.14,39.75,35.27z"/>
	<path d="M37.63,20.27c-0.11,0.01-0.15-0.06-0.19-0.13c-0.63-0.95-1.26-1.9-1.9-2.84c-0.09-0.13-0.1-0.21,0.04-0.3
		c0.01-0.01,0.03-0.01,0.04-0.02c0.94-0.74,0.94-0.74,1.6,0.24c0.43,0.65,0.84,1.31,1.31,1.94c0.22,0.3,0.16,0.44-0.13,0.6
		C38.12,19.91,37.88,20.1,37.63,20.27z"/>
	<path d="M37.84,34.05c-0.04,0.06-0.08,0.13-0.12,0.19c-0.61,0.91-1.22,1.81-1.81,2.72c-0.14,0.22-0.24,0.22-0.42,0.08
		c-0.3-0.23-0.76-0.38-0.86-0.66c-0.07-0.21,0.33-0.59,0.52-0.88c0.45-0.68,0.91-1.34,1.34-2.02c0.15-0.23,0.26-0.25,0.46-0.09
		c0.22,0.17,0.46,0.31,0.7,0.47C37.72,33.91,37.82,33.94,37.84,34.05z"/>
	<g>
		<circle class="st2" cx="24.07" cy="24.07" r="9.01"/>
		<path class="st3" d="M30.56,24.13c-1.62-1.87-4.39-2.08-6.28-0.49c-0.25,0.21-0.5,0.42-0.76,0.63c-1.48,1.2-3.56,1.25-5.1,0.12
			c-1.49-1.09-2.11-3.04-1.6-4.81c0.04-0.14,0.15-0.6,0.15-0.6s0.1-0.33,0.39-0.92c0,0-0.36,0.39-0.62,0.77
			c-0.14,0.18-0.33,0.5-0.45,0.69c-0.22,0.36-0.4,0.74-0.57,1.12c-0.19,0.49-0.33,0.95-0.44,1.47c0,0-0.21,0.94-0.21,1.42
			c-0.11,1.7,0.26,3.32,1.09,4.83c3.6,6.51,12.18,5.69,15.02,1.07c0.19-0.41,0.43-0.8,0.51-1.25C31.96,26.65,31.58,25.3,30.56,24.13
			z"/>
	</g>
</g>
</svg>
