<?xml version="1.0" encoding="utf-8"?>
<!-- Generator: Adobe Illustrator 28.2.0, SVG Export Plug-In . SVG Version: 6.00 Build 0)  -->
<svg version="1.1" id="Layer_1" xmlns="http://www.w3.org/2000/svg" xmlns:xlink="http://www.w3.org/1999/xlink" x="0px" y="0px"
	 viewBox="0 0 120 40" style="enable-background:new 0 0 120 40;" xml:space="preserve">
<style type="text/css">
	.st0{fill:#FEFEFE;}
</style>
<g>
	<path class="st0" d="M16.7,35.7c-0.5-0.3-0.5-0.6-0.1-1.1c2.4-2.6,4.8-5.2,7.2-7.7c0,0,0.1-0.1,0.1-0.1c-0.1,0-0.2,0-0.3,0
		c-1.2,0-2.4,0-3.6,0c-0.2,0-0.3,0-0.4-0.1c-1.3-1.4-2.7-2.8-4-4.2c0,0,0,0-0.1-0.1c2.8,0,5.5,0,8.4,0c-2.8-3-5.6-6-8.4-8.9
		c0.1-0.1,0.2,0,0.2,0c1.5,0,3.1,0,4.6,0c0.7,0,1.3,0.2,1.8,0.8c2.8,3,5.6,6,8.4,8.9c0.8,0.9,0.8,2.1,0,3c-2.7,2.9-5.5,5.8-8.2,8.8
		c-0.4,0.4-0.9,0.8-1.4,0.9C19.5,35.7,18.1,35.7,16.7,35.7z"/>
	<path class="st0" d="M118.6,17c-0.1,0.2-0.3,0.3-0.6,0.3c-0.7,0-1.4,0-2.2,0c-0.2,0-0.2,0.1-0.2,0.2c0,3.7,0,7.5,0,11.2
		c0,0.5-0.1,0.6-0.6,0.6c-1.2,0-2.4,0-3.5,0c-0.5,0-0.6-0.1-0.6-0.6c0-3.7,0-7.4,0-11.1c0-0.2-0.1-0.3-0.3-0.3c-0.7,0-1.5,0-2.2,0
		c-0.4,0-0.5-0.2-0.5-0.5c0-0.9,0-1.9,0-2.8c0-0.4,0.2-0.5,0.5-0.5c0.7,0,1.5,0,2.2,0c0.2,0,0.2,0,0.2-0.2c0-1.2,0-2.5,0-3.7
		c0-0.5,0.1-0.6,0.6-0.6c1.2,0,2.3,0,3.5,0c0.5,0,0.6,0.1,0.6,0.6c0,1.2,0,2.5,0,3.7c0,0.2,0,0.2,0.2,0.2c0.7,0,1.5,0,2.2,0
		c0.3,0,0.5,0.1,0.6,0.3C118.6,14.8,118.6,15.9,118.6,17z"/>
	<path class="st0" d="M8.8,13.3c0.1,0.1,0.2,0,0.2,0c1.2,0,2.5,0,3.7,0c0.1,0,0.2,0,0.3,0.1c1.3,1.4,2.7,2.8,4,4.3c0,0,0,0,0.1,0.1
		c-2.8,0-5.5,0-8.3,0c0,0,0,0,0,0.1c2.8,3,5.5,5.9,8.3,8.9c-0.1,0.1-0.2,0-0.2,0c-1.6,0-3.1,0-4.7,0c-0.7,0-1.3-0.2-1.7-0.8
		c-2.8-3-5.6-6-8.4-9c-0.8-0.8-0.8-2.1,0-2.9c2.8-3,5.6-6,8.4-9c0.4-0.5,1-0.7,1.6-0.7c1.2,0,2.4,0,3.7,0c0.3,0,0.5,0.1,0.6,0.3
		c0.1,0.3,0,0.5-0.2,0.7c-2,2.1-3.9,4.2-5.9,6.3C9.8,12.2,9.3,12.7,8.8,13.3z"/>
	<path class="st0" d="M65.2,23.2c0-1.9,0-3.8,0-5.6c0-0.2,0-0.2-0.2-0.2c-0.7,0-1.5,0-2.2,0c-0.4,0-0.5-0.1-0.5-0.5
		c0-0.9,0-1.9,0-2.8c0-0.4,0.1-0.5,0.5-0.5c0.7,0,1.5,0,2.2,0c0.2,0,0.2-0.1,0.2-0.2c0-1.2,0-2.5,0-3.7c0-0.5,0.1-0.6,0.6-0.6
		c1.2,0,2.4,0,3.6,0c0.4,0,0.6,0.2,0.6,0.6c0,1.2,0,2.5,0,3.7c0,0.2,0.1,0.2,0.2,0.2c0.7,0,1.5,0,2.2,0c0.4,0,0.6,0.1,0.6,0.6
		c0,0.9,0,1.8,0,2.8c0,0.4-0.2,0.5-0.5,0.5c-0.7,0-1.5,0-2.2,0c-0.2,0-0.3,0-0.3,0.3c0,3.7,0,7.4,0,11.1c0,0.1,0,0.2,0,0.3
		c0,0.2-0.2,0.4-0.4,0.4c-1.3,0-2.6,0-3.8,0c-0.3,0-0.4-0.2-0.4-0.5c0-1.3,0-2.5,0-3.8C65.2,24.4,65.2,23.8,65.2,23.2z"/>
	<path class="st0" d="M60.5,21.4c0,2.4,0,4.9,0,7.3c0,0.5-0.1,0.6-0.7,0.6c-1.2,0-2.3,0-3.5,0c-0.4,0-0.6-0.1-0.6-0.6
		c0-0.1,0-0.1,0-0.2c0-4.8,0-9.6,0-14.3c0-0.7,0.1-0.8,0.8-0.8c1.1,0,2.2,0,3.3,0c0.5,0,0.6,0.1,0.6,0.6
		C60.5,16.5,60.5,19,60.5,21.4z"/>
	<path class="st0" d="M55.6,9.6c0-1.5,1.1-2.6,2.5-2.6c1.4,0,2.5,1.1,2.5,2.6c0,1.5-1.1,2.6-2.5,2.6C56.7,12.1,55.6,11,55.6,9.6z"/>
	<path class="st0" d="M90.4,14.2c0,0,0-0.1,0-0.1c0-0.2-0.2-0.4-0.4-0.4c-1.2,0-2.3,0-3.5,0c-0.2,0-0.4,0.1-0.4,0.3
		c0,0.2,0,0.3-0.1,0.5c0,0.3,0,0.6-0.1,0.9c0,0-0.1,0-0.1,0c-0.1-0.1-0.1-0.1-0.2-0.2c-1.4-1.4-3.1-2-5.1-1.7
		c-2.2,0.3-3.9,1.4-5.1,3.2c-1.4,2-1.7,4.2-1.3,6.6c0.6,3.6,3.5,6.1,6.7,6.3c1.6,0.1,3-0.2,4.3-1.3c0.3-0.2,0.5-0.5,0.9-0.8
		c0,0.8,0.1,1.5-0.1,2.2c-0.1,0.6-0.5,1.1-1.1,1.5c-0.3,0.2-0.6,0.3-0.9,0.4c-1,0.3-2,0.4-3,0.3c-1.3-0.1-2.6-0.4-3.8-1.1
		c-0.4-0.2-0.6-0.2-0.9,0.2c-0.4,0.6-0.7,1.3-1.1,1.9c-0.3,0.5-0.2,0.6,0.2,1c1.3,0.9,2.9,1.4,4.4,1.7c0.5,0.1,1,0.1,1.5,0.2
		c0.5,0,1.7,0,1.8,0c1.2-0.1,2.4-0.3,3.5-0.8c2.4-1.1,3.8-2.9,3.8-5.6C90.4,24.2,90.4,19.2,90.4,14.2z M83.3,24.8
		c-0.4,0.2-0.8,0.2-1.2,0.2c-1.9,0-3.4-1.4-3.5-3.2c-0.1-1.1,0.2-2.1,0.9-3c1.4-1.5,3.6-1.6,5-0.1C86.4,20.7,85.6,23.8,83.3,24.8z"
		/>
	<path class="st0" d="M54,22.6c0-0.9-0.3-1.8-0.8-2.6c-0.8-1.3-2-2.2-3.5-2.6c0.1-0.1,0.2-0.1,0.2-0.1c0.4-0.2,0.8-0.5,1.1-0.9
		c1.1-1.3,1.5-2.7,1.3-4.4c-0.2-1.8-1.1-3.1-2.6-4.1c-1.1-0.7-2.3-1-3.6-1c-2.7,0-5.4,0-8.1,0c-0.4,0-0.5,0.1-0.5,0.5
		c0,7.1,0,14.2,0,21.3c0,0.4,0.1,0.5,0.5,0.5c2.9,0,5.7,0,8.6,0c1.1,0,2.2-0.2,3.2-0.5c1.6-0.5,2.8-1.4,3.6-3
		C53.9,24.8,54,23.8,54,22.6z M42.6,11.4c1.1,0,2.1,0,3.2,0c0.2,0,0.4,0.1,0.6,0.1c0.9,0.3,1.4,1,1.4,2c0,0.3,0,0.6-0.1,0.8
		c-0.3,0.8-1,1.2-1.8,1.3c-1.1,0.1-2.2,0-3.3,0c-0.2,0-0.1-0.1-0.1-0.2c0-0.6,0-1.3,0-1.9c0-0.7,0-1.3,0-2
		C42.4,11.4,42.4,11.4,42.6,11.4z M48.4,24.2c-0.5,0.4-1.1,0.6-1.7,0.7c-0.7,0.1-1.4,0-2.1,0c-0.6,0-1.3,0-1.9,0
		c-0.2,0-0.3,0-0.3-0.3c0-0.8,0-1.6,0-2.4c0-0.8,0-1.6,0-2.4c0-0.2,0-0.2,0.2-0.2c1.2,0,2.3,0,3.5,0c0.5,0,0.9,0.1,1.4,0.2
		c0.9,0.3,1.5,1,1.6,2C49.2,22.8,49,23.6,48.4,24.2z"/>
	<path class="st0" d="M107.1,19.6c-0.3-1.5-0.9-2.9-2-4.1c-1.6-1.7-3.6-2.4-6-2.2c-2.6,0.2-4.6,1.5-5.9,3.6c-1,1.6-1.3,3.3-1.2,5.1
		c0.1,1.8,0.8,3.4,2,4.8c2.3,2.6,6.1,3.2,9,2.2c1.1-0.4,2.1-1.1,2.9-1.9c0.3-0.3,0.3-0.5,0-0.7c-0.5-0.5-1.1-1.1-1.6-1.6
		c-0.2-0.2-0.4-0.2-0.6-0.1c-1.3,0.9-2.7,1.1-4.2,0.8c-1.3-0.2-2.3-0.9-2.7-2.2c-0.1-0.3-0.1-0.3,0.2-0.3c1.5,0,3,0,4.5,0
		c1.5,0,3,0,4.5,0c0.8,0,1-0.2,1.2-1C107.3,21.3,107.2,20.5,107.1,19.6z M102.8,20.1c-0.7,0-1.3,0-2,0c-0.4,0-0.7,0-1.1,0
		c-1,0-2,0-2.9,0c-0.2,0-0.2,0-0.2-0.2c0.3-1.4,1.5-2.4,3-2.5c1,0,1.8,0.2,2.5,0.9c0.4,0.4,0.7,1,0.8,1.6
		C103,20.1,102.9,20.1,102.8,20.1z"/>
</g>
</svg>
