<?xml version="1.0" encoding="utf-8"?>
<!-- Generator: Adobe Illustrator 28.2.0, SVG Export Plug-In . SVG Version: 6.00 Build 0)  -->
<svg version="1.1" id="Layer_1" xmlns="http://www.w3.org/2000/svg" xmlns:xlink="http://www.w3.org/1999/xlink" x="0px" y="0px"
	 viewBox="0 0 120 40" style="enable-background:new 0 0 120 40;" xml:space="preserve">
<style type="text/css">
	.st0{fill:#FFFFFF;}
</style>
<g>
	<path class="st0" d="M2.5,30.3c0.1-0.2,0.2-0.4,0.3-0.6c0.3-0.7,0.6-1.3,0.9-2c0.1-0.1,0-0.2-0.1-0.3c-1.1-0.7-2.2-1.3-3.3-2
		C0.1,25.4,0,25.2,0,25c0-3.3,0-6.7,0-10c0-0.3,0.1-0.4,0.3-0.5c2-1.2,4-2.4,6-3.6c0.8-0.5,1.7-1,2.5-1.5c0.2-0.1,0.5-0.1,0.7,0
		c1.3,0.8,2.5,1.5,3.8,2.2c0.2,0.1,0.2,0,0.3-0.1c0.7-0.6,1.4-1.3,2-1.9c0,0,0.1-0.1,0.1-0.1c0,0.1,0,0.1-0.1,0.2
		c-0.4,0.8-0.7,1.6-1.1,2.4c-0.1,0.2-0.1,0.2,0.1,0.4c1.1,0.7,2.2,1.3,3.3,2c0.2,0.1,0.3,0.3,0.3,0.5c0,3.3,0,6.7,0,10
		c0,0.3-0.1,0.4-0.3,0.5c-2.3,1.4-4.6,2.7-6.9,4.1c-0.6,0.3-1.1,0.7-1.7,1c-0.2,0.1-0.4,0.1-0.7,0c-1.3-0.8-2.5-1.5-3.8-2.3
		c-0.1-0.1-0.2-0.1-0.3,0C4,29,3.4,29.6,2.7,30.3C2.6,30.3,2.6,30.3,2.5,30.3C2.6,30.3,2.6,30.3,2.5,30.3L2.5,30.3z M12.1,13
		c-0.1-0.1-0.1-0.1-0.2-0.1c-0.8-0.5-1.6-0.9-2.4-1.4c-0.2-0.1-0.4-0.1-0.7,0c-2.2,1.3-4.5,2.7-6.7,4c-0.2,0.1-0.4,0.3-0.4,0.6
		c0,2.6,0,5.2,0,7.9c0,0.3,0.1,0.5,0.3,0.6c0.8,0.5,1.6,0.9,2.5,1.4c0.1,0,0.1,0.1,0.2,0.1c0-0.1,0-0.1,0.1-0.1
		c0.2-0.5,0.3-0.9,0.5-1.4c0.1-0.1,0-0.2-0.1-0.3c-0.5-0.3-1-0.6-1.4-0.8c-0.1-0.1-0.2-0.2-0.2-0.3c0-2,0-4.1,0-6.1
		c0-0.2,0.1-0.3,0.2-0.3c0.3-0.2,0.7-0.4,1-0.6c1.4-0.8,2.8-1.6,4.1-2.4c0.2-0.1,0.4-0.1,0.6,0c0.3,0.2,0.7,0.4,1.1,0.6
		c0.1,0.1,0.2,0.1,0.3,0c0.4-0.3,0.7-0.7,1.1-1C11.9,13.2,12,13.1,12.1,13L12.1,13z M6.3,27c0.1,0,0.1,0.1,0.1,0.1
		c0.8,0.4,1.5,0.9,2.3,1.3c0.5,0.3,0.5,0.3,1,0c2.2-1.3,4.4-2.6,6.6-3.9c0.2-0.1,0.3-0.3,0.3-0.5c0-2.7,0-5.3,0-8
		c0-0.2-0.1-0.4-0.3-0.5c-0.8-0.5-1.6-0.9-2.4-1.4c0,0-0.1,0-0.1-0.1c0,0.1-0.1,0.2-0.1,0.2c-0.2,0.4-0.4,0.8-0.6,1.3
		c-0.1,0.2,0,0.2,0.1,0.3c0.5,0.3,1,0.6,1.4,0.8c0.1,0.1,0.2,0.2,0.2,0.3c0,2,0,4.1,0,6.1c0,0.2-0.1,0.3-0.2,0.3
		c-1.7,1-3.4,2-5.1,3.1c-0.1,0.1-0.3,0.1-0.4,0c-0.4-0.2-0.8-0.5-1.2-0.7c-0.1-0.1-0.2-0.1-0.3,0C7.3,26,7,26.3,6.7,26.6
		C6.5,26.7,6.4,26.8,6.3,27L6.3,27z M12.4,14.3L12.4,14.3c-0.2,0.1-0.3,0.3-0.5,0.4c-0.8,0.8-1.6,1.5-2.3,2.3
		c-0.7,0.7-1.4,1.4-2.1,2c-0.1,0.1-0.1,0.2,0,0.3c0.2,0.3,0.5,0.7,0.7,1.1c0.1,0.1,0.1,0.3,0,0.4c-0.7,1.4-1.4,2.8-2,4.3
		c-0.1,0.3-0.2,0.5-0.4,0.8c0.1,0,0.1,0,0.1-0.1c0.7-0.7,1.4-1.4,2.1-2.1c1-0.9,1.9-1.9,2.9-2.8c0.1-0.1,0.1-0.2,0-0.3
		c-0.3-0.4-0.5-0.8-0.8-1.1c-0.1-0.1-0.1-0.2,0-0.3c0.6-1.3,1.1-2.6,1.7-3.9C12,15,12.2,14.6,12.4,14.3L12.4,14.3z"/>
	<g>
		<path class="st0" d="M28.9,19.6c0.2,0.1,0.4,0.2,0.6,0.3c0.6,0.4,0.9,0.9,1,1.6c0.1,0.8,0,1.6-0.6,2.2c-0.4,0.5-1,0.8-1.6,0.9
			c-0.3,0.1-0.7,0.1-1,0.1c-1.4,0-2.7,0-4.1,0c-0.1,0-0.2-0.1-0.2-0.2c0-2.9,0-5.8,0-8.8c0-0.2,0-0.2,0.2-0.2c1.4,0,2.8,0,4.2,0
			c0.5,0,1,0.1,1.4,0.2c0.8,0.3,1.2,0.9,1.3,1.7c0,0.3,0,0.6,0,0.9c-0.1,0.5-0.4,0.9-0.8,1.2C29.1,19.5,29,19.5,28.9,19.6z
			 M24.9,20.5C24.9,20.5,24.9,20.6,24.9,20.5c0,0.8,0,1.6,0,2.4c0,0.1,0,0.1,0.1,0.1c0.8,0,1.5,0,2.3,0c0.6,0,1.1-0.4,1.1-1.1
			c0-0.7-0.2-1.3-1.1-1.3c-0.6-0.1-1.3,0-2,0C25.3,20.5,25.1,20.5,24.9,20.5z M24.9,19.1c0.6,0,1.3,0,1.9,0c0.1,0,0.3,0,0.4,0
			c0.5-0.1,0.8-0.4,0.9-0.8c0.1-0.6-0.1-1.1-0.8-1.2c-0.1,0-0.3,0-0.4,0c-0.6,0-1.2,0-1.8,0c-0.1,0-0.2,0-0.2,0.2c0,0.6,0,1.2,0,1.8
			C24.9,19,24.9,19,24.9,19.1z"/>
		<path class="st0" d="M72.9,24.6c-0.5,0-1.1,0-1.6,0c-0.3,0-0.5-0.1-0.6-0.3c-1.1-1.9-2.3-3.8-3.4-5.6c0,0,0-0.1-0.1-0.1v0.2v5.7
			c0,0.2-0.1,0.2-0.2,0.2c-0.5,0-1,0-1.4,0c-0.2,0-0.2,0-0.2-0.2c0-1.4,0-2.7,0-4.1c0-1.6,0-3.1,0-4.7c0-0.2,0.1-0.2,0.2-0.2
			c0.5,0,1,0,1.6,0c0.1,0,0.2,0,0.3,0.1c1.2,1.9,2.3,3.9,3.5,5.8c0,0.1,0.1,0.1,0.1,0.2v-0.2c0-1.9,0-3.8,0-5.7
			c0-0.2,0.1-0.2,0.2-0.2h1.4h0.2L72.9,24.6z"/>
		<path class="st0" d="M78.1,20c0-1.5,0-2.9,0-4.4c0-0.2,0-0.2,0.2-0.2c1.3,0,2.7,0,4,0c1.9,0.1,3.2,1.2,3.6,3.1
			c0.3,1.3,0.2,2.6-0.3,3.9c-0.5,1.2-1.5,1.9-2.8,2.1c-0.3,0-0.6,0.1-0.9,0.1c-1.2,0-2.4,0-3.6,0c-0.2,0-0.2,0-0.2-0.2
			C78.1,22.9,78.1,21.5,78.1,20L78.1,20z M80.1,22.9c0,0,0.1,0,0.1,0c0.6,0,1.1,0,1.7,0c1,0,1.7-0.5,2-1.5c0.3-0.9,0.2-1.8,0-2.7
			c-0.2-0.9-0.8-1.4-1.7-1.5c-0.7-0.1-1.4,0-2.1-0.1c0,0,0,0,0,0L80.1,22.9z"/>
		<path class="st0" d="M103.3,20c0-1.2,0.3-2.4,1.1-3.3c0.7-0.9,1.6-1.3,2.7-1.5c0.8-0.1,1.7,0,2.5,0.3c1.1,0.5,1.9,1.4,2.3,2.6
			c0.5,1.5,0.5,3.1-0.3,4.5c-0.7,1.3-1.8,2-3.2,2.1c-0.9,0.1-1.8,0-2.7-0.4c-1.2-0.6-1.9-1.7-2.2-3C103.4,20.9,103.4,20.5,103.3,20z
			 M105.3,20c0,0.3,0.1,0.7,0.1,1c0.3,1.5,1.4,2.3,3,2c0.8-0.2,1.3-0.8,1.5-1.5c0.3-1,0.3-2,0-3c-0.3-0.9-0.9-1.5-1.9-1.6
			c-1-0.1-1.8,0.3-2.3,1.2C105.5,18.7,105.4,19.4,105.3,20L105.3,20z"/>
		<path class="st0" d="M56.3,24.8c-1.1,0-2.1-0.3-2.9-1c-0.8-0.7-1.2-1.6-1.4-2.6c-0.2-1.2-0.1-2.4,0.4-3.5c0.7-1.4,1.8-2.2,3.3-2.4
			c1-0.1,1.9,0,2.7,0.5c1,0.6,1.7,1.5,2,2.6c0.4,1.4,0.4,2.8-0.3,4.2c-0.7,1.4-1.8,2.1-3.3,2.3C56.7,24.8,56.5,24.8,56.3,24.8
			L56.3,24.8z M56.3,23.1c0.2,0,0.4,0,0.6-0.1c0.8-0.2,1.4-0.8,1.6-1.6c0.3-1,0.3-1.9,0-2.9c-0.2-0.5-0.4-0.9-0.8-1.2
			c-1.2-0.9-3-0.4-3.5,1c-0.4,1-0.4,2-0.1,3.1C54.5,22.5,55.2,23.1,56.3,23.1L56.3,23.1z"/>
		<path class="st0" d="M93.9,15.4v1.7h-4.7v1.9h0.2c1.3,0,2.6,0,3.9,0c0.2,0,0.2,0,0.2,0.2c0,0.4,0,0.8,0,1.2c0,0.1,0,0.2-0.2,0.2
			c-1.3,0-2.6,0-4,0c-0.1,0-0.2,0.1-0.2,0.2c0,0.6,0,1.2,0,1.8c0,0.1,0,0.2,0.2,0.2c1.5,0,3,0,4.5,0c0.1,0,0.2,0.1,0.2,0.2
			c0,0.4,0,0.9,0,1.3c0,0.1,0,0.2-0.2,0.2c-2.2,0-4.4,0-6.5,0c-0.2,0-0.2-0.1-0.2-0.2c0-1.4,0-2.9,0-4.3c0-1.5,0-3,0-4.4
			c0-0.2,0-0.2,0.2-0.2h6.3H93.9z"/>
		<path class="st0" d="M50.9,21.1c-0.1,1.3-0.8,3-2.5,3.5c-1.6,0.5-3.1,0.3-4.4-0.9c-0.8-0.7-1.2-1.6-1.4-2.6
			c-0.2-1.2-0.1-2.5,0.5-3.6c0.7-1.3,1.8-2.1,3.3-2.3c0.9-0.1,1.8,0,2.6,0.5c1,0.6,1.6,1.5,1.8,2.6c0,0.1,0,0.1,0,0.2
			c-0.1,0-0.2,0-0.3,0c-0.5,0-1,0-1.5,0c-0.1,0-0.1,0-0.2-0.1c-0.2-0.9-1.1-1.6-2.2-1.5c-1.1,0.1-1.8,0.9-2,1.9
			c-0.2,0.9-0.2,1.8,0.1,2.7c0.3,0.8,0.8,1.4,1.6,1.6c0.4,0.1,0.8,0.1,1.1,0c0.7-0.2,1.1-0.6,1.3-1.3c0.1-0.2,0.1-0.4,0.1-0.6
			c0-0.1,0-0.1,0.1-0.1C49.7,21,50.3,21,50.9,21.1C50.9,21,50.9,21.1,50.9,21.1L50.9,21.1z"/>
		<path class="st0" d="M95.4,20c0-1.5,0-2.9,0-4.4c0-0.2,0-0.2,0.2-0.2c1.3,0,2.7,0,4,0c0.5,0,1.1,0.1,1.5,0.4
			c0.7,0.3,1.1,0.9,1.3,1.6c0.2,0.7,0.2,1.4,0,2.1c-0.4,1.1-1.2,1.6-2.2,1.8c-0.3,0-0.6,0.1-0.9,0.1c-0.6,0-1.1,0-1.7,0
			c-0.2,0-0.2,0-0.2,0.2c0,0.9,0,1.9,0,2.8c0,0.2-0.1,0.2-0.2,0.2c-0.5,0-1,0-1.5,0c-0.3,0-0.3,0-0.3-0.3
			C95.4,22.9,95.4,21.5,95.4,20L95.4,20z M97.4,19.7c0.7,0,1.5,0,2.2-0.1c0.7-0.1,1-0.6,1-1.3c0-0.7-0.3-1.2-1-1.3
			C99.4,17,99.2,17,99,17c-0.5,0-1,0-1.5,0c0,0-0.1,0-0.1,0L97.4,19.7z"/>
		<path class="st0" d="M42.2,17.1h-2.7v7.5c-0.1,0-0.1,0-0.2,0c-0.5,0-1.1,0-1.6,0c-0.2,0-0.2,0-0.2-0.2c0-2.3,0-4.7,0-7
			c0-0.1,0-0.2,0-0.3c-0.1,0-0.1,0-0.2,0c-0.8,0-1.5,0-2.3,0c-0.2,0-0.2,0-0.2-0.2c0-0.5,0-0.9,0-1.4c0-0.1,0-0.2,0.2-0.2
			c2.4,0,4.7,0,7.1,0c0,0,0.1,0,0.1,0V17.1z"/>
		<path class="st0" d="M115.3,24.6v-7.5h-2.7v-1.7c0.1,0,0.1,0,0.2,0c2.3,0,4.7,0,7,0c0.2,0,0.2,0.1,0.2,0.2c0,0.4,0,0.9,0,1.3
			c0,0.1,0,0.2-0.2,0.2c-0.8,0-1.5,0-2.3,0c-0.1,0-0.1,0-0.2,0v0.2v7c0,0.2-0.1,0.2-0.2,0.2c-0.5,0-1,0-1.6,0
			C115.5,24.6,115.4,24.6,115.3,24.6L115.3,24.6z"/>
		<path class="st0" d="M61.8,20c0-1.5,0-2.9,0-4.4c0-0.2,0-0.2,0.2-0.2c0.5,0,1.1,0,1.6,0c0.1,0,0.2,0,0.2,0.2c0,2.9,0,5.9,0,8.8
			c0,0.1,0,0.2-0.2,0.2c-0.6,0-1.1,0-1.7,0c-0.1,0-0.2,0-0.2-0.2C61.8,22.9,61.8,21.5,61.8,20z"/>
		<path class="st0" d="M31.5,24.6v-9.2c0.1,0,0.1,0,0.1,0c0.6,0,1.1,0,1.7,0c0.1,0,0.2,0,0.2,0.2c0,3,0,5.9,0,8.9
			c0,0.1,0,0.2-0.1,0.2C32.8,24.6,32.2,24.6,31.5,24.6C31.6,24.6,31.6,24.6,31.5,24.6z"/>
	</g>
</g>
</svg>
