<?xml version="1.0" encoding="utf-8"?>
<!-- Generator: Adobe Illustrator 28.2.0, SVG Export Plug-In . SVG Version: 6.00 Build 0)  -->
<svg version="1.1" id="Layer_1" xmlns="http://www.w3.org/2000/svg" xmlns:xlink="http://www.w3.org/1999/xlink" x="0px" y="0px"
	 viewBox="0 0 120 40" style="enable-background:new 0 0 120 40;" xml:space="preserve">
<style type="text/css">
	.st0{fill:#FFFFFE;}
</style>
<g>
	<path class="st0" d="M58.5,1.4c0,4.3,0.2,15.9,0.1,17.1c0,0.2-0.2,0.6-0.4,0.7c-0.8,0.6-1.1,0.9-2.1,1.1c-0.1,0-1.1,0.1-1.1-0.4
		c0-1.7,0-3.2,0-4.9c0-2.6,0-5.2,0-7.8c0.1-0.4-0.1-0.8-0.4-0.7c-1.4,0.5-2.6,0.8-2.5,3.3c0.2,3.9,0.1,7.8,0.1,11.7
		c0,0.7-0.2,1.2-0.9,1.5c-0.6,0.3-1.1,0.7-1.7,1c-0.6,0.3-0.9-0.1-0.9-0.3c0-4.3-0.1-8.6,0-12.9c0-0.8,0-0.6-0.4-0.7
		c-1.2,0-2.3,0.5-2.4,3.1c0,4.3,0,7.7,0,12c0,0.8-0.3,1.4-1,1.8c-0.5,0.2-0.9,0.5-1.3,0.7c-0.2,0.1-1.2,0.3-1.2-0.2
		c0-5.9,0-11.5,0-17.3c0.1-0.6,0.5-0.8,1-1.1c4.2-2.4,8.4-4.9,12.6-7.3c0.2-0.1,2-1.5,2.4-1C58.4,0.7,58.5,0.8,58.5,1.4z"/>
	<path class="st0" d="M76.5,8.8c0.4,0.2,1,0.2,1.1,0.8c0,5.9,0,11.8,0,17.7c0,0.8-0.1,0.9-0.8,0.5c-0.6-0.3-1.1-0.7-1.7-1
		c-0.8-0.3-1-0.9-1-1.7c0-4.3,0-8.6,0-12.8c0-0.7-0.5-1.1-0.7-1.2c-0.3-0.2-0.7-0.3-1.1-0.5c-0.5-0.2-0.7-0.1-0.7,0.4
		c0,0.3,0,0.5,0,0.8c0,3.8,0,7.6,0,11.3c0,1.6-0.3,1.7-1.7,1c-0.4-0.2-0.8-0.5-1.2-0.7c-1.1-0.5-1.4-1.3-1.3-2.4
		c0.3-3.5,0.2-6.9,0.2-10.4c0-0.6,0-1.3,0-2c-0.1-0.8-1.1-1.5-1.9-1.6c-0.3,0-0.4,0-0.4,0.3c0,0.2,0,0.5,0,0.8c0,3.8,0,7.6,0,11.4
		c0,1.6-0.6,1.8-1.7,1c-0.3-0.2-0.7-0.4-1-0.6c-1.3-0.8-1.2-1.4-1.2-2.9c-0.1-2.1,0-3.9,0-5.9c0-1.5,0-3.1,0.1-4.6
		c0-1.8,0-3.5,0-5.3c0-0.9,0.2-1,1-0.6C63.5,1.3,75.6,8.4,76.5,8.8z"/>
	<path class="st0" d="M75.5,29.9c-0.8-0.5-1.6-0.9-2.4-1.4c-0.9-0.6-10.3-6.2-11.7-7c-0.9-0.6-1.8-0.6-2.7-0.1
		c-1,0.6-13.5,7.8-14.4,8.5c0,0,0,0,0,0c-0.5,0.5-0.4,0.8,0.1,1.1c0.7,0.4,1.3,0.8,2,1.2c1.7,1,7.7,4.5,8.1,4.7
		c1.6,0.8,3,1.9,4.6,2.5c0.5,0.1,1.3,0.1,1.9-0.2c1-0.4,6-3.4,7.4-4.2c1.4-0.8,6.4-3.7,7.1-4.1C76.1,30.6,76.1,30.3,75.5,29.9z
		 M61.9,34.7c-0.6,0.4-1.2,0.9-1.9,1c-0.4,0-0.7-0.2-1-0.3c-2.6-1.5-5.2-3-7.7-4.5c-0.2-0.1-0.4-0.2-0.4-0.4c0-0.2,1-0.7,1.3-0.8
		c1.4-0.8,2.1-0.6,3.3,0.2c2.1,1.3,4.4,2.5,6.5,3.8C62.7,34.2,62.8,34.2,61.9,34.7z M69.2,30c-0.7,0.5-1.4,1-2.2,1.3
		c-0.1,0-0.2,0-0.3,0c-0.3,0-0.6-0.1-0.8-0.3c-2.6-1.5-5.2-3-7.8-4.5c-0.5-0.3-0.5-0.4,0-0.7c1.7-1.4,2.3-1.4,4-0.3
		c2.3,1.5,4.7,2.7,7,4C69.2,29.7,69.5,29.8,69.2,30z"/>
</g>
</svg>
