<?xml version="1.0" encoding="utf-8"?>
<!-- Generator: Adobe Illustrator 28.2.0, SVG Export Plug-In . SVG Version: 6.00 Build 0)  -->
<svg version="1.1" id="Layer_1" xmlns="http://www.w3.org/2000/svg" xmlns:xlink="http://www.w3.org/1999/xlink" x="0px" y="0px"
	 viewBox="0 0 120 40" style="enable-background:new 0 0 120 40;" xml:space="preserve">
<style type="text/css">
	.st0{fill:#FFFFFF;}
</style>
<g>
	<g>
		<path class="st0" d="M17.8,17.7c0-0.4,0-0.8-0.4-1.2c-1-0.9-2-1.9-3-2.9c-2.9,0-5.7,0-8.6,0c0,0-0.3,2.1,2.2,2c1.3,0,2.6,0,3.9,0
			c1.9,0.1,3.4,1.6,3.5,3.5c0,1.1,0,2.3,0,3.4c0,1.3-0.3,1.5-1.6,1.6c-0.9,0-1.5,0-2.4,0c-0.6,0-1.8,0.5-1.8,1.4c0,0,0,0.3,0,0.8
			c2.7,0,5.3,0,8,0C17.8,23.5,17.8,20.6,17.8,17.7z"/>
	</g>
	<path class="st0" d="M1.1,13.7c0.8,0,1.6,0,2.3,0c0,2.5,0,5,0,7.5c0,1,1.2,2.6,2.1,2.6c0.9,0,1.8,0.4,1.7,1.6c0,0.3,0,0.6,0,0.9
		c-1,0-2.1,0-3.1,0c-1.1-1.1-2.1-2.2-3.2-3.3C1,20,1.1,16.8,1.1,13.7z"/>
	<path class="st0" d="M118.3,20.3c-0.7-0.6-1.5-0.9-2.2-1.3c-0.5-0.2-0.8-0.6-0.7-1.1c0.1-0.5,0.6-0.6,1.1-0.7
		c0.7-0.1,1.3,0.3,1.9,0.3c0.6-1.5-0.6-1.5-1.5-1.6c-1.4-0.2-2.8,0.5-3.2,1.6c-0.4,1.1,0.1,2.1,1.5,2.9c0.4,0.2,0.8,0.4,1.2,0.6
		c0.5,0.2,1,0.5,0.8,1.1c-0.2,0.7-0.8,0.9-1.4,0.8c-0.7-0.1-1.3-0.4-2-0.6c-0.1,1.6,0,1.7,1.5,1.8c1.6,0.2,3-0.3,3.6-1.7
		C119.3,21.2,118.6,20.6,118.3,20.3z"/>
	<path class="st0" d="M44.2,15.9c-0.2,0-0.5,0-0.7,0c-1.2,0-1.3,0.3-1.3,1.3c0,1.3,0,2.7,0,4c0,3,0,3,3.1,2.8
		c2.7-0.2,4.4-2.7,3.7-5.2C48.3,16.8,46.9,15.9,44.2,15.9z M47.3,20.8c-0.3,1.4-1.7,2.2-3.1,1.9c-0.5-0.1-0.5-0.3-0.5-0.7
		c0-0.7,0-1.5,0-2.2c0-0.5,0-0.9,0-1.4c0-1.3,0.1-1.4,1.5-1.2C46.9,17.4,47.7,18.9,47.3,20.8z"/>
	<path class="st0" d="M108.9,19.9c0.9-0.7,1.3-1.6,0.9-2.6c-0.4-1.1-1.4-1.3-2.4-1.3c-0.8,0-1.6,0-2.4,0c-0.5,0-0.7,0.2-0.7,0.7
		c0,1.4,0,2.8,0,4.2c0,1-0.2,2.1,0.2,2.8c0.5,0.8,2.1,0.6,3.2,0.5c1.1-0.1,2-0.5,2.3-1.5C110.4,21.5,110.1,20.5,108.9,19.9z
		 M106.8,17.1c0.7,0.1,1.6,0,1.6,1c0,1-0.9,1.1-1.7,1.2c-1.1,0.1-1-0.6-1-1.2C105.7,17.3,105.9,17.1,106.8,17.1z M106.7,22.8
		c-1,0.1-0.9-0.5-0.9-1.2c0-0.6-0.1-1.1,1-1.1c0.8,0,1.8,0.1,1.8,1.1C108.6,22.8,107.6,22.7,106.7,22.8z"/>
	<path class="st0" d="M97.1,15.9c-0.5,0-1.1-0.3-1.3,0.4c-0.8,2.5-1.7,5-2.5,7.5c1.1,0.3,1.8,0.1,2-1c0.1-0.6,0.4-0.7,1-0.7
		c0.5,0,1,0,1.4,0c0.6-0.1,1,0.1,1.1,0.8c0.1,1.3,1,1.2,2,1c-0.9-2.5-1.7-5-2.5-7.5C97.9,15.8,97.5,15.9,97.1,15.9z M96.4,19
		c0.2-0.5,0.3-1,0.6-1.8c0.4,1.5,0.7,2.6,1.1,3.7c-1.2,0.1-2.2,0-2.2,0S96.1,20,96.4,19z"/>
	<path class="st0" d="M61.9,15.9c-0.5,0-1.1-0.3-1.3,0.4c-0.8,2.5-1.7,5-2.5,7.5c1.1,0.3,1.8,0.1,2-1c0.1-0.6,0.4-0.7,1-0.7
		c0.5,0,1,0,1.4,0c0.6-0.1,1,0.1,1.1,0.8c0.1,1.3,1,1.2,2,1c-0.9-2.5-1.7-5-2.5-7.5C62.8,15.8,62.3,15.9,61.9,15.9z M61.2,19
		c0.2-0.5,0.3-1,0.6-1.8c0.4,1.5,0.7,2.6,1.1,3.7c-1.2,0.1-2.2,0-2.2,0S60.9,20,61.2,19z"/>
	<path class="st0" d="M36.2,17.2l-1.1,2.4c-0.4-0.8-1.1-2.3-1.1-2.3c-0.5-1.2-1-1.6-2.4-1.1c0.4,0.8,0.9,1.6,1.3,2.3
		c0.8,1.5,1.8,2.9,1.5,4.7c-0.1,0.6,0,0.9,0.8,0.9c0.9,0,0.8-0.5,0.7-1c-0.2-1.5,0.3-2.8,1.1-4c0.6-1,1.1-2,1.7-3
		C37.2,15.7,36.7,16,36.2,17.2z"/>
	<path class="st0" d="M27.7,22.6c-0.5,0-1.4,0-1.4,0c-0.8,0-1-0.3-0.9-1c0.1-1.5,0-3,0-4.5c0-0.5,0.2-1.3-0.7-1.3
		c-1,0-0.8,0.7-0.8,1.3c0,0.9,0,2.9,0,3.1c0.1,1.2-0.2,3,0.2,3.6c0.4,0.5,2.4,0.3,3.7,0.2c0.6,0,0.9-0.1,0.9-0.7
		C28.6,22.5,28.2,22.6,27.7,22.6z"/>
	<path class="st0" d="M89.5,22.6c-0.6,0-1.1,0-1.7,0c-0.7,0.1-0.9-0.2-0.8-0.9c0-1.7,0-3.5,0-5.2c0-0.6-0.3-0.7-0.8-0.7
		c-0.5,0-0.8,0.1-0.8,0.7c0,1.1,0,2.2,0,3.6c0.1,1.1-0.2,2.6,0.3,3.5c0.3,0.6,2.3,0.4,3.6,0.3c0,0,0.1,0,0.1,0
		c0.6,0.1,0.7-0.3,0.7-0.8C90.2,22.7,89.9,22.6,89.5,22.6z"/>
	<path class="st0" d="M54.4,19.9c0-1.1,0-2.2,0-3.3c0-0.6-0.3-0.7-0.8-0.7c-0.5,0-0.8,0-0.8,0.7c0,2.2,0,4.5,0,6.7
		c0,0.5,0.1,0.8,0.7,0.8c0.5,0,0.9,0,0.9-0.7C54.4,22.2,54.4,21,54.4,19.9z"/>
	<path class="st0" d="M75.8,16.8c0-0.5,0.1-0.9-0.7-0.9c-0.7,0-0.9,0.2-0.8,0.9c0,1.6,0,3.2,0,5c-1.1-1.9-2.1-3.6-3.1-5.3
		c-0.4-0.8-1.1-0.4-1.7-0.5c-0.5,0-0.4,0.4-0.4,0.7c0,2.2,0,4.5,0,6.7c0,0.6,0.3,0.7,0.8,0.7c0.5,0,0.8-0.1,0.8-0.7c0-1,0-4,0-4.8
		l0-0.3c0.9,1.6,2,3.5,2.9,5.1c0.4,0.8,1.2,0.6,1.8,0.5c0.5,0,0.3-0.7,0.3-1.1C75.9,20.9,75.8,18.8,75.8,16.8z"/>
	<path class="st0" d="M12.3,21.3H6.4c-0.5,0-0.8-0.4-0.8-0.8v-1.1c0-0.5,0.4-0.8,0.8-0.8h5.9c0.5,0,0.8,0.4,0.8,0.8v1.1
		C13.1,20.9,12.7,21.3,12.3,21.3z"/>
</g>
</svg>
