<?xml version="1.0" encoding="utf-8"?>
<!-- Generator: Adobe Illustrator 28.2.0, SVG Export Plug-In . SVG Version: 6.00 Build 0)  -->
<svg version="1.1" id="Layer_1" xmlns="http://www.w3.org/2000/svg" xmlns:xlink="http://www.w3.org/1999/xlink" x="0px" y="0px"
	 viewBox="0 0 120 40" style="enable-background:new 0 0 120 40;" xml:space="preserve">
<style type="text/css">
	.st0{fill:#FCFCFC;}
</style>
<g>
	<path class="st0" d="M7.6,12.7c-3.3,1.1-5.1,3.7-6.4,6.7c-0.6,1.4-0.7,2.9-1.2,4.2c0,0.6,0,1.1,0,1.7c1-0.5,1.9-1,2.9-1.6
		c0.5-0.3,0.7-0.3,1,0.3c0.9,1.5,2.2,2.5,3.8,3c4.8,1.3,9.2-2,9.5-6.9C17.5,15,12.4,11.1,7.6,12.7z"/>
	<path class="st0" d="M76.1,18.1c0-1.8-0.7-3.3-2.5-3.9c-1.7-0.6-3.4-0.5-4.7,1c-0.3,0.4-0.5,0.4-0.9,0c-1.8-1.8-3.9-1.8-6.1,0.1
		c0.2-1.1-0.2-1.3-1-1.2c-0.4,0-0.7,0-1.1,0c-0.5,0-0.8,0.1-0.8,0.7c0,3.3,0.1,6.5,0.1,9.8c0,0.5,0.2,0.7,0.7,0.7c0.4,0,0.7,0,1.1,0
		c0.9,0.1,1.2-0.2,1.1-1.1c-0.1-1.8,0-3.7,0-5.5c0.1-1.6,0.8-2.4,2.1-2.3c1.2,0,2,0.9,2,2.4c0,1.5,0,3,0,4.5c0,2,0,2,2,2
		c0.8,0,0.9-0.3,0.9-1c0-1.9,0-3.8,0-5.7c0-1.3,0.8-2.2,1.9-2.3c1.3-0.1,2.1,0.7,2.2,2.1c0.1,1.6,0,3.3,0.1,4.9c0,2.2-0.5,1.8,2,1.9
		c0.7,0,0.9-0.2,0.9-0.9C76.1,22.3,76.1,20.2,76.1,18.1z"/>
	<path class="st0" d="M28.2,13.9c-1.5-0.1-2.6,0.5-3.9,1.7c0.4-1.3,0-1.6-1-1.5c-0.2,0-0.5,0-0.7,0c-0.8-0.1-1.1,0.2-1.1,1
		c0,4.2,0,8.4,0,12.6c0,2.1,0,2,2.1,2c0.7,0,0.9-0.2,0.8-0.9c0-1.5,0-3.1,0-4.7c3,1.8,5.6,1.6,7.3-0.5c2-2.4,2.1-5.7,0-8
		C30.9,14.6,29.7,14,28.2,13.9z M27.4,22.8c-1.8,0.1-3-1.5-3.1-3.2c0-1.7,1.5-3.1,3.1-3.1c1.8,0,3.1,1.4,3.1,3.2
		C30.4,21.5,29.1,22.8,27.4,22.8z"/>
	<path class="st0" d="M45.8,14.7c0-0.2,0.1-0.6-0.2-0.6c-0.8-0.1-1.5-0.1-2.3,0c-0.6,0.1-0.2,0.8-0.5,1.1c-2.4-2-4.8-1.9-7.1,0.3
		c-1.9,1.8-2.1,5.6-0.5,7.9c1.8,2.4,4.2,2.7,7.7,0.7c-0.4,1.3,0.4,1.2,1.2,1.2c0.3,0,0.6,0,0.8,0c0.6,0.1,0.7-0.2,0.7-0.7
		C45.8,21.3,45.8,18,45.8,14.7z M40.1,22.8c-1.7,0-3.1-1.4-3.1-3.2c0-1.7,1.4-3.1,3.1-3.1c1.8,0,3.1,1.3,3.1,3.2
		C43.2,21.5,41.9,22.8,40.1,22.8z"/>
	<path class="st0" d="M83.3,13.9c-2.9,0-5.1,1.9-5.7,5c-0.4,1.7,0.4,4.9,3.3,6.1c2.2,0.9,5.3,0.7,7.1-1.4c0.1-0.2,0.3-0.4,0.2-0.5
		c-0.6-0.4-1.2-0.8-1.8-1.1c-0.4-0.3-0.6,0.1-0.9,0.4c-1.5,1.3-4.2,0.7-5-1c-0.3-0.6-0.2-0.8,0.5-0.7c1.2,0,2.4,0,3.6,0
		c1.1,0,2.2-0.1,3.3,0c1.1,0.1,1.2-0.4,1.2-1.3C88.9,16.1,86.5,13.9,83.3,13.9z M80.5,18.4c0.5-1.4,1.5-2.1,2.9-2.1
		c1.5,0,2.3,0.6,2.9,2.1C84.3,18.4,82.4,18.4,80.5,18.4z"/>
	<path class="st0" d="M100.8,17.4c-0.1-1.4-0.8-2.4-2-3c-1.9-0.9-3.7-0.6-5.4,1c0.3-1.3-0.3-1.4-1.1-1.3c-0.2,0-0.5,0-0.7,0
		c-0.7-0.1-1,0.2-1,0.9c0,2.8,0,5.6,0,8.3c0,2.2-0.4,1.9,2,1.9c0.8,0,0.9-0.2,0.9-1c0-1.7,0-3.3,0-5c0-0.7,0-1.5,0.6-2.1
		c0.7-0.7,1.5-1.1,2.5-0.8c0.9,0.3,1.5,0.9,1.5,1.9c0.1,1.7,0.1,3.3,0.1,5c0,2.1,0,2.1,2.2,1.9c0.5,0,0.7-0.2,0.7-0.7
		C100.8,22.1,101,19.8,100.8,17.4z"/>
	<path class="st0" d="M55.2,14.7c-0.8,2.1-1.7,4.2-2.6,6.6c-0.9-2.2-1.7-4.3-2.5-6.3c-0.2-0.7-0.6-1-1.3-0.9c-0.4,0-0.7,0-1.1,0
		c-1-0.1-1,0.2-0.7,1.1c1.3,3,2.5,5.9,3.8,8.9c0.3,0.7,0.3,1.3,0,1.9c-0.5,1.2-1,2.4-1.3,3.7c0.6,0,1.2-0.1,1.8,0
		c0.8,0.1,1.2-0.2,1.4-1c0.4-1.2,0.9-2.4,1.3-3.5c1.3-3.4,2.6-6.7,3.8-10.1c0.1-0.3,0.3-0.6,0.1-0.9C57.8,13.7,55.4,14.2,55.2,14.7z
		"/>
	<path class="st0" d="M116.9,18.7c-0.9-0.2-1.8-0.5-2.8-0.7c-0.4-0.1-0.7-0.4-0.7-0.9c0-0.4,0.3-0.7,0.7-0.8c1-0.3,1.9-0.2,2.7,0.5
		c0.4,0.4,0.7,0.4,1,0.1c0.4-0.3,0.8-0.5,1.2-0.7c0.6-0.3,0.4-0.4,0-0.7c-1.1-1.1-2.4-1.6-4-1.5c-0.4,0-0.7,0-1.1,0
		c-1.8,0.1-3.5,1.6-3.6,3.2c-0.1,1.6,1,2.8,3.1,3.3c0.9,0.2,1.9,0.5,2.8,0.7c0.4,0.1,0.7,0.3,0.7,0.8c0,0.5-0.3,0.8-0.7,1
		c-0.9,0.4-2.6,0.1-3.2-0.7c-0.4-0.5-0.7-0.4-1.2-0.2c-0.4,0.2-0.7,0.5-1.1,0.7c-0.7,0.3-0.6,0.5-0.2,1c1.8,1.9,4,2,6.3,1.5
		c1.9-0.4,3-1.9,2.9-3.5C119.9,20.1,118.9,19.1,116.9,18.7z"/>
	<path class="st0" d="M108.2,22.7c-1.1,0.3-1.6-0.1-1.7-1.3c-0.1-0.9,0-1.9,0-2.9c0-2,0-2,2-2c0.3,0,0.7,0.2,0.9-0.3
		c0.5-1.4-0.1-2.2-1.5-2.2c-0.1,0-0.2,0-0.4,0c-0.8,0.1-1.1-0.1-1-1c0.1-0.9,0-1.8,0-2.8c-2.4,0.8-2.6,1.1-2.8,3.1
		c-0.1,0.9-0.7,0.7-1.1,0.6c-1.5-0.2-0.8,1-1,1.6c-0.2,0.8,0.2,1.1,1,0.9c0.9-0.2,1.1,0.2,1.1,1.1c0,1.5-0.1,3.1,0.1,4.6
		c0.4,2.7,2.7,4,5.2,2.9c0.3-0.2,1.2-0.3,0.9-0.8C109.4,23.8,109.7,22.4,108.2,22.7z"/>
</g>
</svg>
