<?xml version="1.0" encoding="utf-8"?>
<!-- Generator: Adobe Illustrator 28.2.0, SVG Export Plug-In . SVG Version: 6.00 Build 0)  -->
<svg version="1.1" id="Layer_1" xmlns="http://www.w3.org/2000/svg" xmlns:xlink="http://www.w3.org/1999/xlink" x="0px" y="0px"
	 viewBox="0 0 120 40" style="enable-background:new 0 0 120 40;" xml:space="preserve">
<style type="text/css">
	.st0{fill:#FFFFFF;}
</style>
<g>
	<g>
		<path class="st0" d="M20,20c1.6,0,3.2,0.1,4.8,0c0.8,0,0.9,0.3,0.9,0.9c-0.3,5.4-4.5,10.4-10,11.6c-6.9,1.5-14-3-15.4-9.8
			c-1.4-7.1,3.1-14,10.2-15.3c2.3-0.4,2.4-0.4,2.3,1.9c0,1.3,0.1,2.5-0.1,3.8c0,0,0,0.1-0.1,0.1c-0.2,0.3-0.6,0.3-0.9,0.3
			c-3.1,0.6-5.2,2.8-5.6,6c-0.3,2.6,1.4,5.6,3.9,6.6c4.1,1.8,8.5-0.6,9.3-5c0.1-0.4,0.2-0.7,0.4-1C19.9,20.1,19.9,20,20,20z"/>
		<path class="st0" d="M12.8,13c2.2,0,4.3,0,6.5-0.1c0.6,0,0.7,0.3,0.7,0.8c0,2.1,0,4.2,0,6.3h0c-0.3,0.4-0.7,0.4-1,0.4
			c-1.8,0-3.5,0-5.3,0c-1,0-1.2-0.2-1.2-1.2c-0.1-1.7,0-3.4,0-5.2C12.4,13.7,12.4,13.3,12.8,13L12.8,13z"/>
	</g>
	<g>
		<path class="st0" d="M45.5,18.8c1.2,0,2.4,0,3.6,0c0.3,0,0.6,0,0.7,0.5c0.3,4.2-1.1,7.7-4.8,9.7c-3.4,1.9-7.9,1.4-10.7-1.2
			c-3.1-2.8-4.2-7-2.7-10.8c1.4-3.6,5.2-6.1,9.1-6c2.5,0.1,4.7,1,6.5,2.8c0.5,0.4,0.5,0.7-0.1,1c-0.1,0.1-0.2,0.2-0.3,0.3
			c-0.5,0.4-1,1.1-1.7,1.3c-0.7,0.2-1.1-0.7-1.6-1c-2.8-1.6-6.3-0.8-8.1,1.8c-1.8,2.6-1.2,6.2,1.3,8.1c2.5,2,6.1,1.6,8.1-0.7
			c0.5-0.6,1.2-1.4,0.9-2.1c-0.2-0.5-1.3-0.2-1.9-0.2c-2.6,0-2.6,0-2.6-2.7c0-0.7,0.2-0.9,0.9-0.9C43.4,18.9,44.4,18.8,45.5,18.8z"
			/>
		<path class="st0" d="M70,22c0-1.3,0-2.5,0-3.8c0-0.6-0.2-0.9-0.8-0.8c-1,0.2-1.3-0.3-1.1-1.2c0-0.1,0-0.3,0-0.4
			c-0.2-1,0.1-1.6,1.3-1.4c0.5,0.1,0.7-0.2,0.7-0.7c0-0.1,0-0.3,0-0.4c0-2.5,0-2.5,2.5-2.3c0.5,0,0.6,0.2,0.6,0.6c0,0.7,0,1.5,0,2.2
			c0,0.4,0.1,0.6,0.6,0.6c0.9,0,1.8,0,2.7,0c0.3,0,0.6-0.1,0.6,0.3c0,0.8,0,1.5,0,2.3c0,0.4-0.3,0.3-0.6,0.3c-0.8,0-1.7,0-2.5,0
			c-0.6,0-0.8,0.2-0.8,0.8c0,2.1,0,4.1,0,6.2c0,1.9,0.7,2.4,2.5,2.2c1.3-0.1,1.3-0.1,1.3,1.2c0,0.7-0.2,1-0.9,1.2
			c-1.3,0.4-2.5,0.4-3.7,0.1C71,28.8,70,27.5,70,25.9C69.9,24.6,70,23.3,70,22C70,22,70,22,70,22z"/>
		<path class="st0" d="M99.4,22.5c0-1.9,0-3.8,0-5.7c0-0.6,0.1-0.9,0.9-0.9c2.6,0,2.6-0.1,2.6,2.5c0,3.2,0,6.5,0,9.7
			c0,0.8-0.2,0.9-1,0.9c-2.5,0-2.5,0-2.5-2.5C99.4,25.2,99.4,23.8,99.4,22.5z"/>
		<path class="st0" d="M101.1,14.4c-1.7,0-1.7,0-1.7-1.6c0-1.8,0-1.8,1.8-1.8c1.6,0,1.6,0,1.6,1.6c0,0,0,0.1,0,0.1
			C102.8,14.4,102.8,14.4,101.1,14.4z"/>
		<path class="st0" d="M66.3,16.5c0-2.1,0-2.1-2.1-2.1c-0.7,0-1.3,0-1.1,1c-4.4-2.1-8-1.6-10.6,1.6c-2.2,2.8-2.2,6.8,0.1,9.6
			c2.5,3.1,6.2,3.6,10.4,1.5c0.2,0.9,0.2,0.9,1.2,0.9c0.3,0,0.6,0,0.9,0c0.9,0.1,1.3-0.2,1.2-1.2C66.3,24.1,66.3,20.3,66.3,16.5z
			 M58.6,26.2c-2.5,0-4.5-2.1-4.4-4.7c0.1-2.5,2.1-4.4,4.6-4.4c2.5,0.1,4.5,2.1,4.5,4.6C63.2,24.3,61.1,26.2,58.6,26.2z"/>
		<path class="st0" d="M82,22.8c1.7,0,3.5,0,5.2,0c1.6,0,3.3,0,4.9,0c1.3,0,1.3,0,1.2-1.3c-0.1-3.7-2.8-6.9-6.5-7.5
			c-3.5-0.6-7.1,1.5-8.4,4.9c-1.3,3.4,0,7.3,3.1,9.3c3.1,2,7.2,1.4,9.8-1.3c1.3-1.4,1.3-1.4-0.3-2.2c-0.1,0-0.2-0.1-0.3-0.1
			c-0.7-0.5-1.1-0.4-1.8,0.3c-2.2,2.4-6,1.7-7.4-1.1C81.3,23.1,81.3,22.8,82,22.8z M85.4,17.2c2-0.1,3.7,1,4.4,2.9
			c-2.8,0-5.5,0-8.2,0C82,18.4,83.5,17.2,85.4,17.2z"/>
		<path class="st0" d="M112.3,14c-4.3,0-7.7,3.4-7.7,7.7c0,4.2,3.5,7.7,7.7,7.7c4.2,0,7.7-3.5,7.7-7.7C120,17.4,116.5,14,112.3,14z
			 M112.2,26.2c-2.5,0-4.5-2.1-4.4-4.7c0-2.5,2.1-4.4,4.6-4.4c2.6,0.1,4.5,2.1,4.4,4.7C116.8,24.3,114.7,26.3,112.2,26.2z"/>
	</g>
</g>
</svg>
