<?xml version="1.0" encoding="utf-8"?>
<!-- Generator: Adobe Illustrator 28.2.0, SVG Export Plug-In . SVG Version: 6.00 Build 0)  -->
<svg version="1.1" id="Layer_1" xmlns="http://www.w3.org/2000/svg" xmlns:xlink="http://www.w3.org/1999/xlink" x="0px" y="0px"
	 viewBox="0 0 120 40" style="enable-background:new 0 0 120 40;" xml:space="preserve">
<style type="text/css">
	.st0{fill:#FFFFFF;}
</style>
<g>
	<path class="st0" d="M85.1,30.7V0.3h6.1v30.4H85.1z"/>
	<path class="st0" d="M14,39.7H0.9V9.3h12.6c6.1,0,9.7,3.3,9.7,8.5c0,3.4-2.3,5.5-3.9,6.3c1.9,0.9,4.3,2.8,4.3,6.8
		C23.6,36.6,19.6,39.7,14,39.7z M13,14.6H7v7h6c2.6,0,4-1.4,4-3.5C17,16,15.6,14.6,13,14.6z M13.4,26.9H7v7.5h6.4
		c2.8,0,4.1-1.7,4.1-3.8C17.5,28.6,16.2,26.9,13.4,26.9z"/>
	<path class="st0" d="M42.2,27.2v12.4h-6.1V27.2L26.7,9.3h6.6l5.8,12.2L45,9.3h6.6L42.2,27.2z"/>
	<path class="st0" d="M68.9,39.7H55.8V9.3h12.6c6.1,0,9.7,3.3,9.7,8.5c0,3.4-2.3,5.5-3.9,6.3c1.9,0.9,4.3,2.8,4.3,6.8
		C78.5,36.6,74.5,39.7,68.9,39.7z M67.9,14.6h-6v7h6c2.6,0,4-1.4,4-3.5C71.9,16,70.5,14.6,67.9,14.6z M68.3,26.9h-6.4v7.5h6.4
		c2.8,0,4.1-1.7,4.1-3.8C72.4,28.6,71,26.9,68.3,26.9z"/>
	<path class="st0" d="M110.9,14.6v25.1h-6.1V14.6h-8.2V9.3h22.4v5.3H110.9z"/>
</g>
</svg>
