<?xml version="1.0" encoding="utf-8"?>
<!-- Generator: Adobe Illustrator 28.2.0, SVG Export Plug-In . SVG Version: 6.00 Build 0)  -->
<svg version="1.1" id="Layer_1" xmlns="http://www.w3.org/2000/svg" xmlns:xlink="http://www.w3.org/1999/xlink" x="0px" y="0px"
	 viewBox="0 0 120 40" style="enable-background:new 0 0 120 40;" xml:space="preserve">
<style type="text/css">
	.st0{fill:#FFFFFF;}
</style>
<g>
	<path class="st0" d="M51.85,1.87c0.01-0.82-0.1-1.26-1.11-1.22c-0.9,0.04-1.31,0.18-1.28,1.21c0.07,2.67,0.02,5.34,0.02,8.01
		c-0.08,0.02-0.15,0.03-0.23,0.05c-0.12-0.23-0.24-0.47-0.36-0.7c-1.28-2.6-2.6-5.18-3.82-7.8c-0.54-1.17-1.48-0.69-2.26-0.7
		c-0.94-0.01-0.51,0.83-0.51,1.27c-0.04,3.92,0.01,7.84-0.04,11.76c-0.01,0.93,0.19,1.29,1.2,1.28c0.92-0.01,1.22-0.29,1.19-1.18
		c-0.05-1.61-0.01-3.23-0.01-4.84c0-1.05,0-2.11,0-3.16c0.51,0.39,0.72,0.78,0.92,1.19c1.18,2.39,2.41,4.76,3.51,7.18
		c0.53,1.16,1.46,0.8,2.25,0.74c0.66-0.05,0.5-0.85,0.51-1.32C51.85,9.71,51.82,5.79,51.85,1.87z"/>
	<path class="st0" d="M78.57,0.69c-1.05-0.03-1.42,0.22-1.39,1.35c0.08,2.81,0.02,5.62-0.03,8.42c-0.02,1.09-0.49,1.97-1.61,2.32
		c-0.92,0.29-1.74,0.09-2.38-0.64c-0.58-0.66-0.7-1.47-0.7-2.32c0.01-2.72-0.03-5.43,0.02-8.15c0.02-0.84-0.31-1.04-1.05-0.95
		c-0.58,0.07-1.36-0.27-1.33,0.83c0.08,3.13-0.16,6.26,0.13,9.39c0.24,2.63,2,4.27,4.49,4.32c2.55,0.05,4.38-1.47,4.66-4.1
		c0.18-1.68,0.11-7.96,0.15-9.38C79.55,1.06,79.42,0.72,78.57,0.69z"/>
	<path class="st0" d="M35.29,12.62c-0.55,0.04-1.12-0.07-1.65,0.02c-1.45,0.24-1.86-0.34-1.76-1.76c0.15-2.29-0.28-1.94,1.99-1.98
		c0.32-0.01,0.65-0.02,0.97,0c0.88,0.08,1.4-0.02,1.42-1.19c0.02-1.2-0.52-1.25-1.39-1.17c-0.46,0.04-0.93-0.06-1.38,0.02
		c-1.39,0.25-1.68-0.36-1.6-1.64c0.13-2.08-0.23-1.79,1.87-1.82c0.6-0.01,1.2-0.04,1.79,0.01c1.08,0.09,0.86-0.65,0.89-1.27
		c0.03-0.64,0.05-1.16-0.89-1.12c-1.65,0.07-3.32,0.07-4.97,0c-0.92-0.04-1.05,0.36-1.04,1.14c0.04,1.98,0.01,3.96,0.01,5.94
		c0,1.93,0.07,3.87-0.03,5.8c-0.06,1.19,0.37,1.5,1.48,1.42c1.42-0.09,2.86-0.08,4.28,0c1,0.06,1.37-0.19,1.37-1.27
		C36.65,12.62,36.12,12.55,35.29,12.62z"/>
	<path class="st0" d="M105.01,12.62c-0.55,0.04-1.12-0.07-1.65,0.02c-1.45,0.24-1.86-0.34-1.76-1.76c0.15-2.29-0.28-1.94,1.99-1.98
		c0.32-0.01,0.65-0.02,0.97,0c0.88,0.08,1.4-0.02,1.42-1.19c0.02-1.2-0.52-1.25-1.39-1.17c-0.46,0.04-0.93-0.06-1.38,0.02
		c-1.39,0.25-1.68-0.36-1.6-1.64c0.13-2.08-0.23-1.79,1.87-1.82c0.6-0.01,1.2-0.04,1.79,0.01c1.08,0.09,0.86-0.65,0.89-1.27
		c0.03-0.64,0.05-1.16-0.89-1.12c-1.65,0.07-3.32,0.07-4.97,0c-0.92-0.04-1.05,0.36-1.04,1.14c0.04,1.98,0.01,3.96,0.01,5.94
		c0,1.93,0.07,3.87-0.03,5.8c-0.06,1.19,0.37,1.5,1.48,1.42c1.42-0.09,2.86-0.08,4.28,0c1,0.06,1.37-0.19,1.37-1.27
		C106.37,12.62,105.84,12.55,105.01,12.62z"/>
	<path class="st0" d="M24.68,0.75c-0.81-0.43-2.09,0.14-2.37,1.02c-0.96,3.05-1.92,6.11-2.88,9.16c-0.09,0-0.18,0-0.28,0.01
		c-0.14-0.43-0.28-0.86-0.41-1.29C17.92,6.96,17.04,4.3,16.3,1.6c-0.4-1.46-1.52-0.95-2.23-0.8c-0.69,0.15-0.17,0.89-0.04,1.3
		c1.24,3.89,2.54,7.77,3.79,11.66c0.24,0.76,0.44,1.25,1.44,1.26c1.03,0.01,1.38-0.43,1.58-1.29c0.14-0.58,0.35-1.14,0.54-1.71
		c1.11-3.41,2.23-6.81,3.32-10.22C24.82,1.48,25.25,1.05,24.68,0.75z"/>
	<path class="st0" d="M64.39,0.7c-2.25,0.08-4.51,0.06-6.77,0.01c-0.87-0.02-1.22,0.18-1.21,1.13c0.01,0.93,0.22,1.39,1.22,1.25
		c0.36-0.05,0.74,0.03,1.1-0.02c0.78-0.1,1.03,0.19,1,0.98c-0.06,1.61-0.02,3.22-0.02,4.83c0,1.66,0.06,3.32-0.02,4.97
		c-0.05,0.97,0.35,1.14,1.2,1.15c0.86,0.01,1.22-0.18,1.2-1.14c-0.06-2.81-0.02-5.61-0.02-8.42c0-2.29,0-2.36,2.27-2.33
		c1.05,0.01,1.07-0.49,1.07-1.26C65.42,1.11,65.35,0.67,64.39,0.7z"/>
	<path class="st0" d="M92.06,9.93c-0.36-0.71-0.44-1.17,0.22-1.86c1.43-1.49,1.37-3.36,0.7-5.17c-0.66-1.77-2.17-2.23-3.92-2.18
		c-0.78,0.03-1.58,0.08-2.35-0.01c-0.98-0.12-1.13,0.33-1.12,1.18c0.03,3.92,0.02,7.83,0.01,11.75c0,0.79-0.07,1.39,1.09,1.39
		c1.11,0,1.36-0.42,1.24-1.38c-0.06-0.45-0.01-0.92-0.01-1.38c0-0.55-0.33-2.74,0.55-2.81c0.62-0.05,1.02,0.11,1.27,0.75
		c0.45,1.15,1.13,2.23,1.48,3.4c0.4,1.34,1.26,1.46,2.4,1.39c0.72-0.04,0.73-0.29,0.46-0.84C93.39,12.75,92.77,11.32,92.06,9.93z
		 M88.77,7.09C88.16,7.22,87.82,7,87.9,6.24c0.06-0.59-0.44-3.11,0.5-3.22c0.94-0.11,1.97-0.13,2.46,0.99
		C91.57,5.64,90.62,7.1,88.77,7.09z"/>
	<g>
		<path class="st0" d="M58.02,23.1c-0.61,0.01-0.66,0.36-0.65,0.8c0,0.32,0,0.64,0,0.97c0,2.49,0.05,4.97-0.02,7.46
			c-0.07,2.47-1.55,3.82-3.73,3.54c-1.64-0.22-2.68-1.62-2.7-3.77c-0.03-2.72,0-5.43-0.01-8.15c0-0.39,0.12-0.85-0.57-0.84
			c-0.55,0.01-0.73,0.21-0.73,0.73c0.04,3.08-0.05,6.17,0.13,9.24c0.15,2.58,2,4.15,4.45,4.11c2.53-0.04,4.28-1.71,4.42-4.34
			c0.08-1.47,0.01-2.94,0.01-4.42c0.01,0,0.02,0,0.03,0c0-1.52-0.01-3.04,0-4.56C58.68,23.42,58.64,23.09,58.02,23.1z"/>
		<path class="st0" d="M99.38,35.61c-1.25,0.01-2.49-0.02-3.74,0.01c-0.56,0.01-0.84-0.11-0.82-0.75c0.04-1.24,0.04-2.49,0-3.73
			c-0.02-0.6,0.21-0.8,0.81-0.78c1.11,0.04,2.21,0,3.32,0.01c0.47,0.01,0.81-0.05,0.78-0.66c-0.03-0.55-0.38-0.54-0.76-0.54
			c-1.06,0-2.12-0.04-3.18,0.01c-0.69,0.03-1.02-0.13-0.97-0.9c0.06-1.01,0.05-2.03,0-3.04c-0.03-0.66,0.18-0.9,0.86-0.87
			c1.15,0.05,2.31,0,3.46,0.02c0.54,0.01,0.9-0.08,0.87-0.74c-0.04-0.68-0.53-0.51-0.91-0.51c-1.57-0.01-3.14,0.03-4.7-0.02
			c-0.76-0.03-0.93,0.27-0.91,0.96c0.04,1.98,0.01,3.96,0.01,5.95c0,1.98,0.01,3.97-0.01,5.95c-0.01,0.57,0.05,0.97,0.79,0.96
			c1.71-0.04,3.41-0.02,5.12-0.01c0.48,0,0.79-0.08,0.79-0.67C100.2,35.63,99.83,35.61,99.38,35.61z"/>
		<path class="st0" d="M24.87,29.96c-0.96-0.71-2.06-1.22-2.94-2.05c-0.68-0.64-0.92-1.4-0.62-2.25c0.3-0.83,0.96-1.35,1.86-1.44
			c0.73-0.07,1.48-0.12,2.19,0.12c0.35,0.12,0.72,0.36,0.84-0.25c0.08-0.42,0.13-0.85-0.46-0.96c-0.59-0.11-1.17-0.21-1.49-0.27
			c-2.18-0.03-3.71,0.91-4.24,2.43c-0.56,1.6-0.07,2.89,1.63,4.15c0.7,0.52,1.47,0.95,2.19,1.44c1.56,1.07,2,2.17,1.44,3.48
			c-0.53,1.25-1.98,1.82-3.67,1.43c-0.27-0.06-0.52-0.18-0.79-0.26c-0.3-0.08-0.7-0.57-0.87,0.05c-0.1,0.36-0.31,0.83,0.33,1.16
			c1.92,1,4.83,0.36,5.97-1.4C27.43,33.54,26.89,31.45,24.87,29.96z"/>
		<path class="st0" d="M40.42,36.33c2.73-2.5,3.51-6.71,1.95-10.23c-0.91-2.05-2.5-3.15-4.74-3.2c-2.11-0.05-3.97,1.26-4.78,3.33
			c-1,2.55-0.94,5.14,0.03,7.68c0.74,1.93,2.19,3.17,4.28,3.12C38.51,37,39.29,37.56,40,38.5c0.54,0.72,1.2,1.13,2.37,0.76
			c-0.7-0.76-1.32-1.43-1.92-2.1C40.21,36.91,39.94,36.77,40.42,36.33z M34.56,34.1c-1.58-2.66-1.59-5.46-0.04-8.12
			c1.48-2.54,4.85-2.45,6.33,0.09c0.71,1.22,1.02,2.55,0.92,3.93c0.08,1.56-0.25,2.98-1.12,4.23C39.1,36.49,35.96,36.46,34.56,34.1z
			"/>
		<path class="st0" d="M85.69,31.61c-0.44-0.79-0.33-1.21,0.35-1.8c1.32-1.13,1.6-2.82,0.94-4.55c-0.59-1.56-1.85-2.08-3.38-2.13
			c-0.78-0.03-1.57,0.05-2.35-0.03c-1-0.1-1.39,0.19-1.33,1.27c0.09,1.84,0.03,3.69,0.03,5.53c0,1.8-0.05,3.6,0.03,5.39
			c0.03,0.54-0.25,1.64,0.61,1.57c0.75-0.05,0.58-1.52,0.58-1.52c0.08-0.91-0.25-4.35,0.43-4.37c0.93-0.02,2.53-0.31,2.93,0.91
			c0.49,1.48,1.25,2.86,1.86,4.3c0.26,0.62,0.73,0.92,1.3,0.67c0.57-0.25,0.08-0.81-0.07-1.14C87.03,34.33,86.42,32.93,85.69,31.61z
			 M83.87,29.68c-2.59,0.23-2.68,0.22-2.68-2.65c0-0.09-0.13-2.48,0.87-2.64c2.48-0.4,3.61,0.38,3.89,2.04
			C86.21,28.01,85.43,29.54,83.87,29.68z"/>
		<path class="st0" d="M70.31,24.09c-0.19-0.54-0.29-0.98-1.06-1c-0.83-0.03-0.99,0.49-1.19,1.05c-1.41,3.83-2.83,7.67-4.21,11.51
			c-0.14,0.39-0.76,0.94,0.05,1.23c0.69,0.24,0.91-0.32,1.13-0.88c1.05-2.77,1.06-2.77,4.09-2.77c2.97,0,2.97,0,4.1,2.79
			c0.02,0.04,0.04,0.09,0.05,0.13c0.12,0.61,0.52,0.92,1.09,0.74c0.75-0.24,0.24-0.74,0.11-1.12
			C73.08,31.87,71.68,27.99,70.31,24.09z M66.5,31.92c0.86-2.39,1.68-4.67,2.65-7.37c0.95,2.71,1.75,5,2.58,7.37
			C69.94,31.92,68.31,31.92,66.5,31.92z"/>
	</g>
</g>
</svg>
