<?xml version="1.0" encoding="utf-8"?>
<!-- Generator: Adobe Illustrator 28.2.0, SVG Export Plug-In . SVG Version: 6.00 Build 0)  -->
<svg version="1.1" id="Layer_1" xmlns="http://www.w3.org/2000/svg" xmlns:xlink="http://www.w3.org/1999/xlink" x="0px" y="0px"
	 viewBox="0 0 100 100" style="enable-background:new 0 0 100 100;" xml:space="preserve">
<style type="text/css">
	.st0{fill:url(#SVGID_1_);}
	.st1{fill:#FEFEFE;}
</style>
<g>
	<linearGradient id="SVGID_1_" gradientUnits="userSpaceOnUse" x1="50" y1="-0.6957" x2="50" y2="98.7234">
		<stop  offset="0" style="stop-color:#29ABED"/>
		<stop  offset="1" style="stop-color:#229ED9"/>
	</linearGradient>
	<rect class="st0" width="100" height="100"/>
	<path class="st1" d="M44.83,41.4c7.48-3.07,14.95-6.14,22.43-9.19c1.54-0.63,3.11-1.2,4.7-1.67c4.25-1.25,5.69-0.01,5.19,4.33
		c-0.26,2.2-0.48,4.41-0.71,6.61c-1.6,9.41-3.17,18.82-4.82,28.22c-1.08,6.14-3.7,7.19-8.88,3.68c-4.54-3.08-9.1-6.15-13.64-9.22
		c-3.49-2.36-3.67-3.76-0.65-6.7c4.39-4.27,8.85-8.48,13.27-12.72c0.52-0.49,1.01-1.01,1.48-1.56c0.35-0.41,0.83-0.87,0.28-1.44
		c-0.41-0.42-0.89-0.21-1.31,0.03c-0.69,0.4-1.38,0.8-2.04,1.24c-6.09,4.06-12.23,8.05-18.24,12.22c-3.04,2.11-6.15,2.81-9.69,1.64
		c-2.19-0.73-4.43-1.31-6.61-2.03c-1.17-0.39-2.71-0.62-2.82-2.18c-0.12-1.69,1.45-2.14,2.65-2.68c4.5-2.02,9.04-3.96,13.55-5.94
		C40.93,43.19,42.87,42.29,44.83,41.4z"/>
</g>
</svg>
