<?xml version="1.0" encoding="utf-8"?>
<!-- Generator: Adobe Illustrator 28.2.0, SVG Export Plug-In . SVG Version: 6.00 Build 0)  -->
<svg version="1.1" id="Layer_1" xmlns="http://www.w3.org/2000/svg" xmlns:xlink="http://www.w3.org/1999/xlink" x="0px" y="0px"
	 viewBox="0 0 100 100" style="enable-background:new 0 0 100 100;" xml:space="preserve">
<style type="text/css">
	.st0{fill:#5663EE;}
	.st1{fill:#FFFFFF;}
</style>
<path class="st0" d="M50,100c-16.3,0-32.6,0-49,0c-0.8,0-1-0.1-1-1C0,66.3,0,33.6,0,0.9C0,0.2,0.2,0,1,0c32.7,0,65.4,0,98,0
	c0.7,0,1,0.1,1,0.9c0,32.7,0,65.4,0,98.2c0,0.8-0.2,0.9-0.9,0.9C82.7,100,66.4,100,50,100z"/>
<path class="st1" d="M80.6,47.3c-1.6-6.4-4.4-12.2-8.1-17.6c-0.1-0.1-0.2-0.2-0.4-0.3c-4.1-1.9-8.3-3.2-12.8-4c-0.2,0-0.3,0-0.5,0.2
	c-0.5,0.9-1,1.9-1.4,2.9c-0.1,0.3-0.2,0.3-0.5,0.3c-1.9-0.3-3.8-0.4-5.8-0.5c-2.8-0.1-5.5,0.1-8.3,0.5c-0.2,0-0.3,0-0.4-0.3
	c-0.4-1-0.9-2-1.4-2.9c-0.1-0.2-0.2-0.3-0.5-0.2c-4.4,0.8-8.7,2.1-12.8,4c-0.1,0.1-0.3,0.2-0.3,0.3c-1.5,2.3-2.9,4.7-4.1,7.1
	c-3.7,7.5-5.6,15.5-5.6,23.2c0,2.4,0.1,4.2,0.2,6c0,0.2,0.1,0.3,0.3,0.5c4.8,3.5,10.1,6.2,15.7,8c0.2,0.1,0.4,0,0.5-0.2
	c1.1-1.6,2.2-3.3,3.1-5c0.2-0.4,0.2-0.4-0.2-0.6c-1.6-0.6-3.2-1.4-4.7-2.2c-0.3-0.2-0.3-0.3,0-0.5c0.3-0.2,0.5-0.4,0.8-0.6
	c0.2-0.1,0.3-0.2,0.5-0.1c1,0.4,2,0.8,3,1.2c7,2.5,14.1,3,21.3,1.4c2.7-0.6,5.3-1.5,7.8-2.6c0.2-0.1,0.3-0.1,0.5,0.1
	c0.2,0.2,0.5,0.4,0.7,0.6c0.3,0.2,0.3,0.3,0,0.5c-1.5,0.9-3.1,1.6-4.7,2.2c-0.3,0.1-0.3,0.2-0.2,0.5c0.9,1.8,2,3.5,3.1,5.1
	c0.1,0.2,0.2,0.2,0.4,0.1c5.7-1.8,11-4.5,15.9-8c0.1-0.1,0.2-0.2,0.2-0.4c0-0.7,0.1-1.5,0.2-2.2C82.5,58.3,82,52.8,80.6,47.3z
	 M42.9,57.6c-2.4,2.1-5.8,1.8-7.8-0.7c-1-1.3-1.5-2.8-1.6-4.6c0-1.9,0.8-3.8,2.4-5.1c2.3-1.8,5.4-1.5,7.4,0.6
	C45.9,50.5,45.6,55.1,42.9,57.6z M64.3,57.6c-2.2,1.9-5.3,1.8-7.4-0.3c-2.5-2.5-2.6-6.9-0.2-9.5c2.5-2.7,6.6-2.4,8.7,0.7
	c0.8,1.2,1.2,2.5,1.2,4.4C66.5,54.4,65.8,56.2,64.3,57.6z"/>
</svg>
