<?xml version="1.0" encoding="utf-8"?>
<!-- Generator: Adobe Illustrator 28.2.0, SVG Export Plug-In . SVG Version: 6.00 Build 0)  -->
<svg version="1.1" id="Layer_1" xmlns="http://www.w3.org/2000/svg" xmlns:xlink="http://www.w3.org/1999/xlink" x="0px" y="0px"
	 viewBox="0 0 100 100" style="enable-background:new 0 0 100 100;" xml:space="preserve">
<style type="text/css">
	.st0{fill:#FFFFFF;}
</style>
<g>
	<rect width="100" height="100"/>
	<path class="st0" d="M76.47,76.62c-6.87-10.01-13.73-20.02-20.64-30c-0.54-0.78-0.42-1.21,0.15-1.82c1.35-1.47,2.65-2.99,3.95-4.5
		c3.88-4.51,7.76-9.02,11.64-13.54c1.26-1.47,2.51-2.95,3.92-4.61c-1.41,0-2.58,0.04-3.74-0.02c-0.71-0.04-1.21,0.17-1.68,0.72
		c-2.69,3.17-5.41,6.31-8.11,9.46c-2.92,3.4-5.84,6.8-8.79,10.23c-0.22-0.26-0.42-0.46-0.58-0.69c-4.3-6.27-8.61-12.54-12.89-18.83
		c-0.43-0.63-0.88-0.91-1.67-0.9c-3.92,0.05-7.84,0.02-11.77,0.02c-1.08,0-2.15,0-3.34,0c0.15,0.26,0.2,0.36,0.27,0.45
		c6.77,9.87,13.53,19.75,20.34,29.61c0.51,0.74,0.44,1.18-0.13,1.77c-0.84,0.88-1.63,1.82-2.42,2.75
		c-4.28,4.98-8.55,9.96-12.83,14.93c-1.71,1.99-3.42,3.98-5.28,6.14c0.83,0,1.43-0.06,2.02,0.01c1.86,0.23,3.2-0.28,4.46-1.87
		c3.16-3.99,6.58-7.77,9.9-11.64c2.31-2.69,4.63-5.37,7-8.11c4.83,7.05,9.59,13.99,14.34,20.95c0.37,0.54,0.8,0.68,1.43,0.67
		c4.82-0.03,9.64-0.01,14.46-0.02c0.21,0,0.49,0.15,0.65-0.18C76.92,77.29,76.7,76.95,76.47,76.62z M63.68,74.37
		c-0.4,0-0.56-0.3-0.74-0.55c-11.1-15.9-22.19-31.8-33.29-47.7c-0.04-0.05-0.04-0.13-0.08-0.29c2.25,0,4.48,0.02,6.71-0.01
		c0.56-0.01,0.77,0.35,1.02,0.71c10.91,15.62,21.83,31.25,32.75,46.87c0.18,0.26,0.35,0.53,0.62,0.96
		C68.27,74.37,65.98,74.36,63.68,74.37z"/>
</g>
</svg>
