<?xml version="1.0" encoding="utf-8"?>
<!-- Generator: Adobe Illustrator 28.2.0, SVG Export Plug-In . SVG Version: 6.00 Build 0)  -->
<svg version="1.1" id="Layer_1" xmlns="http://www.w3.org/2000/svg" xmlns:xlink="http://www.w3.org/1999/xlink" x="0px" y="0px"
	 viewBox="0 0 100 100" style="enable-background:new 0 0 100 100;" xml:space="preserve">
<style type="text/css">
	.st0{fill:#00DFFE;}
</style>
<g>
	<path class="st0" d="M50.01,99.98c-16.32,0-32.64-0.01-48.96,0.02C0.26,100,0,99.92,0,99.01C0.03,66.32,0.03,33.64,0.01,0.95
		C0.01,0.16,0.2,0,0.97,0c32.68,0.02,65.36,0.02,98.04,0C99.73,0,100,0.08,100,0.93c-0.03,32.73-0.03,65.45,0,98.18
		c0,0.75-0.16,0.89-0.9,0.89C82.74,99.97,66.38,99.98,50.01,99.98z"/>
	<path d="M46.74,40c5.53,0,11.07,0.01,16.6-0.01c0.5,0,0.85,0.15,1.2,0.5c5.77,5.77,11.56,11.52,17.32,17.28
		c1.37,1.37,1.34,3.13-0.04,4.52c-7.42,7.47-14.84,14.94-22.26,22.4c-0.32,0.32-0.61,0.66-1.14,0.65
		c-5.78-0.01-11.56-0.01-17.69-0.01c0.91-0.91,1.62-1.62,2.33-2.33c6.62-6.56,13.24-13.12,19.87-19.68
		c0.89-0.88,1.75-1.79,2.69-2.61c0.63-0.55,0.57-0.88,0-1.44c-6.03-6.03-12.04-12.09-18.05-18.14c-0.31-0.32-0.67-0.59-1-0.88
		C46.62,40.19,46.68,40.09,46.74,40z"/>
	<path d="M53.28,59.99c-5.61,0-11.22-0.01-16.83,0.01c-0.49,0-0.75-0.27-1.05-0.57c-5.75-5.73-11.5-11.45-17.24-17.19
		c-1.39-1.39-1.39-3.15-0.03-4.52c7.42-7.47,14.84-14.94,22.26-22.41c0.39-0.39,0.76-0.69,1.38-0.69
		c5.58,0.02,11.15,0.01,16.73,0.02c0.15,0,0.3,0.05,0.52,0.1c-1.51,1.53-2.93,3.01-4.39,4.46c-6.7,6.65-13.41,13.31-20.15,19.93
		c-0.73,0.72-0.63,1.07,0.04,1.72c6.38,6.2,12.73,12.44,19.1,18.67C53.52,59.67,53.4,59.83,53.28,59.99z"/>
</g>
</svg>
