<?xml version="1.0" encoding="utf-8"?>
<!-- Generator: Adobe Illustrator 28.2.0, SVG Export Plug-In . SVG Version: 6.00 Build 0)  -->
<svg version="1.1" id="Layer_1" xmlns="http://www.w3.org/2000/svg" xmlns:xlink="http://www.w3.org/1999/xlink" x="0px" y="0px"
	 viewBox="0 0 100 100" style="enable-background:new 0 0 100 100;" xml:space="preserve">
<style type="text/css">
	.st0{fill:#2354E5;}
	.st1{fill:#FEFEFE;}
	.st2{fill:#17E5A1;}
	.st3{fill:#FDFDFE;}
</style>
<g>
	<rect class="st0" width="100" height="100"/>
	<g>
		<path class="st1" d="M58.1,38.61c1.88,0,3.77,0.06,5.65-0.03c0.94-0.04,1.04,0.31,1,1.1c-0.3,6.34-5.27,12.1-11.71,13.54
			c-8.06,1.8-16.29-3.48-17.91-11.49c-1.69-8.33,3.66-16.36,11.91-17.89c2.74-0.51,2.75-0.51,2.73,2.21
			c-0.01,1.46,0.1,2.92-0.07,4.38c-0.02,0.04-0.04,0.09-0.06,0.13c-0.29,0.33-0.7,0.3-1.08,0.37c-3.67,0.71-6.1,3.32-6.54,7.02
			c-0.36,3.02,1.68,6.49,4.55,7.71c4.84,2.06,9.94-0.69,10.88-5.86c0.08-0.43,0.23-0.8,0.52-1.13
			C58.01,38.66,58.05,38.63,58.1,38.61z"/>
		<path class="st1" d="M20.82,65.36c1.17,0,2.34,0,3.51,0c0.34,0,0.62-0.01,0.65,0.48c0.27,4.06-1.12,7.55-4.65,9.48
			c-3.34,1.83-7.67,1.32-10.47-1.16c-3.05-2.7-4.07-6.84-2.6-10.55c1.41-3.55,5.04-5.97,8.87-5.85c2.47,0.08,4.59,1.01,6.38,2.73
			c0.44,0.42,0.5,0.7-0.06,1.02c-0.11,0.06-0.19,0.17-0.29,0.26c-0.53,0.43-1,1.04-1.61,1.23c-0.69,0.22-1.04-0.67-1.59-1
			c-2.7-1.57-6.14-0.81-7.94,1.8c-1.73,2.5-1.15,6.07,1.29,7.94c2.48,1.91,5.93,1.6,7.9-0.71c0.51-0.6,1.18-1.36,0.92-2.02
			c-0.21-0.53-1.23-0.19-1.88-0.2c-2.56-0.03-2.53-0.01-2.54-2.62c0-0.71,0.22-0.88,0.88-0.85C18.68,65.4,19.75,65.36,20.82,65.36z"
			/>
		<path class="st1" d="M44.63,68.43c0-1.24-0.03-2.47,0.01-3.7c0.02-0.62-0.19-0.85-0.77-0.74c-0.99,0.19-1.27-0.28-1.12-1.18
			c0.02-0.13,0.02-0.26,0-0.39c-0.16-0.98,0.09-1.57,1.24-1.35c0.52,0.1,0.7-0.17,0.64-0.66c-0.02-0.13,0-0.26,0-0.39
			c0-2.43,0-2.41,2.46-2.27c0.46,0.03,0.63,0.17,0.62,0.62c-0.02,0.71,0.01,1.43-0.01,2.14c-0.01,0.42,0.14,0.57,0.56,0.56
			c0.88-0.02,1.76-0.01,2.63,0c0.25,0,0.56-0.06,0.56,0.34c0.01,0.75,0.01,1.5,0,2.24c-0.01,0.41-0.33,0.32-0.57,0.32
			c-0.81,0.01-1.63,0.04-2.44-0.01c-0.62-0.04-0.77,0.19-0.76,0.77c0.03,2.01,0.01,4.03,0.01,6.05c0.01,1.81,0.66,2.38,2.48,2.19
			c1.29-0.14,1.25-0.14,1.3,1.2c0.03,0.68-0.22,0.97-0.84,1.17c-1.22,0.4-2.43,0.43-3.65,0.12c-1.37-0.35-2.3-1.63-2.35-3.23
			c-0.04-1.27-0.01-2.53-0.01-3.8C44.64,68.43,44.64,68.43,44.63,68.43z"/>
		<path class="st2" d="M49.7,30.44c2.53-0.02,5.07-0.02,7.6-0.06c0.72-0.01,0.76,0.39,0.76,0.93c0,2.44,0.02,4.87,0.04,7.31
			c0,0,0.01,0,0.01,0c-0.31,0.42-0.76,0.46-1.22,0.47c-2.07,0.03-4.14,0.05-6.22-0.01c-1.14-0.04-1.36-0.26-1.4-1.4
			c-0.06-2.01-0.04-4.01-0.01-6.02c0.01-0.46,0.06-0.91,0.45-1.23L49.7,30.44z"/>
		<path class="st1" d="M73.33,68.96c0-1.85,0.02-3.7-0.01-5.54c-0.01-0.63,0.11-0.91,0.83-0.92c2.5-0.02,2.5-0.05,2.5,2.44
			c0,3.14-0.02,6.29,0.02,9.43c0.01,0.75-0.22,0.91-0.93,0.91c-2.4-0.02-2.4,0-2.4-2.43C73.33,71.56,73.33,70.26,73.33,68.96z"/>
		<path class="st3" d="M74.98,61.07c-1.64,0-1.64,0-1.64-1.6c0-1.71,0-1.71,1.73-1.71c1.59,0,1.59,0,1.59,1.56c0,0.03,0,0.06,0,0.1
			C76.65,61.07,76.65,61.07,74.98,61.07z"/>
		<path class="st1" d="M41.1,63.13c0-2.08,0-2.05-2.06-2.09c-0.68-0.01-1.22-0.01-1.05,0.93c-4.33-2.08-7.84-1.54-10.31,1.55
			c-2.16,2.69-2.13,6.65,0.06,9.36c2.42,3,6,3.53,10.17,1.5c0.18,0.88,0.18,0.88,1.15,0.88c0.29,0,0.59-0.04,0.88,0.01
			c0.91,0.14,1.22-0.16,1.2-1.14C41.07,70.47,41.1,66.8,41.1,63.13z M33.51,72.57c-2.48-0.03-4.38-2.03-4.33-4.55
			c0.05-2.45,2.03-4.33,4.49-4.29c2.44,0.05,4.38,2.02,4.35,4.45C37.99,70.66,35.99,72.6,33.51,72.57z"/>
		<path class="st1" d="M56.39,69.25c1.69,0.03,3.38,0.01,5.07,0.01c1.59,0,3.18,0,4.78,0c1.23,0,1.23,0,1.2-1.24
			c-0.07-3.64-2.72-6.69-6.35-7.31c-3.41-0.58-6.94,1.47-8.18,4.75c-1.27,3.36-0.01,7.13,3.02,9.03c3.07,1.93,7.03,1.41,9.51-1.26
			c1.28-1.37,1.27-1.38-0.34-2.19c-0.09-0.04-0.18-0.07-0.26-0.13c-0.67-0.49-1.12-0.42-1.74,0.25c-2.13,2.3-5.88,1.67-7.17-1.12
			C55.66,69.49,55.66,69.24,56.39,69.25z M59.63,63.74c1.95-0.11,3.61,0.93,4.33,2.8c-2.73,0-5.38,0-8.04,0
			C56.35,64.97,57.87,63.83,59.63,63.74z"/>
		<path class="st1" d="M85.9,60.65c-4.21,0-7.52,3.33-7.51,7.55c0.01,4.11,3.39,7.46,7.53,7.46c4.09,0,7.47-3.4,7.48-7.53
			C93.41,64.01,90.04,60.65,85.9,60.65z M85.79,72.57c-2.47-0.04-4.35-2.03-4.31-4.57c0.04-2.43,2.04-4.32,4.5-4.26
			c2.49,0.06,4.37,2.04,4.32,4.56C90.26,70.7,88.24,72.61,85.79,72.57z"/>
	</g>
</g>
</svg>
