<?xml version="1.0" encoding="utf-8"?>
<!-- Generator: Adobe Illustrator 28.0.0, SVG Export Plug-In . SVG Version: 6.00 Build 0)  -->
<svg version="1.1" id="Layer_1" xmlns="http://www.w3.org/2000/svg" xmlns:xlink="http://www.w3.org/1999/xlink" x="0px" y="0px"
	 viewBox="0 0 30 30" style="enable-background:new 0 0 30 30;" xml:space="preserve">
<style type="text/css">
	.st0{fill:#30251A;}
	.st1{fill:#9B774A;}
	.st2{fill:#FC5000;}
	.st3{fill:#FB5000;}
	.st4{fill:#EBCFA8;}
</style>
<g>
	<path class="st0" d="M14.72,29.1c-2.27-0.01-4.75-0.37-7.08-1.48c-3.6-1.72-5.71-4.59-6.38-8.5c-0.4-2.31-0.25-4.58,0.6-6.78
		c0.08-0.21-0.05-0.26-0.15-0.35c-2.38-2.08-1.75-5.91,1.17-7.07C4.33,4.34,5.7,4.54,6.97,5.46C7.12,5.57,7.19,5.64,7.29,5.4
		c0.15-0.35,0.44-0.6,0.74-0.83c1.37-1.07,2.94-1.66,4.62-2c0.02,0,0.04,0,0.06-0.01c0.38-0.06,0.8-0.02,0.73-0.64
		c-0.03-0.27,0.23-0.51,0.47-0.68c0.62-0.44,1.58-0.44,2.2,0c0.31,0.23,0.54,0.52,0.5,0.92c-0.03,0.3,0.12,0.31,0.32,0.34
		c1.34,0.2,2.6,0.61,3.8,1.25c0.48,0.26,0.94,0.55,1.35,0.9c0.25,0.21,0.5,0.43,0.64,0.73c0.09,0.21,0.14,0.23,0.33,0.08
		c1.8-1.36,4.32-1.06,5.76,0.68c1.43,1.72,1.23,4.28-0.45,5.79c-0.21,0.18-0.25,0.32-0.15,0.58c0.76,2.03,0.89,4.13,0.6,6.26
		c-0.29,2.16-1.06,4.13-2.46,5.83c-1.62,1.98-3.74,3.17-6.17,3.85C18.48,28.92,16.75,29.1,14.72,29.1z M2.92,10.2
		c0.08-0.03,0.11-0.11,0.16-0.17C3.8,8.98,4.68,8.07,5.7,7.3c0.29-0.2,0.57-0.42,0.87-0.6c0.17-0.11,0.2-0.17,0.04-0.31
		C5.8,5.66,4.85,5.4,3.79,5.62c-1.66,0.35-2.7,1.76-2.59,3.45c0.05,0.78,0.39,1.46,0.93,2.02c0.08,0.08,0.17,0.21,0.27,0.02
		C2.57,10.81,2.79,10.53,2.92,10.2z M27.08,10.2c0.16,0.28,0.32,0.56,0.46,0.85c0.11,0.22,0.21,0.18,0.34,0.03
		c0.81-0.9,1.1-1.93,0.81-3.11c-0.34-1.36-1.59-2.32-2.89-2.4c-0.93-0.05-1.72,0.21-2.41,0.82c-0.16,0.14-0.14,0.2,0.04,0.31
		c0.3,0.18,0.58,0.4,0.87,0.6c1.02,0.77,1.9,1.68,2.63,2.73C26.97,10.09,27,10.17,27.08,10.2z M15.02,28.15
		c0.9,0.01,1.79-0.06,2.68-0.18c1.86-0.24,3.62-0.75,5.25-1.7c1.74-1.02,3.07-2.44,3.93-4.26c1.12-2.39,1.38-4.9,0.9-7.48
		c-0.62-3.32-2.54-5.73-5.44-7.39c-0.15-0.08-0.24-0.07-0.35,0.06c-0.36,0.39-0.81,0.66-1.29,0.88c-1.43,0.64-2.96,0.8-4.49,0.87
		C14.84,9,13.49,8.94,12.14,8.71C10.85,8.5,9.57,8.19,8.5,7.4C8.02,7.04,7.7,7.08,7.23,7.38c-2.22,1.42-3.85,3.3-4.68,5.83
		c-0.63,1.91-0.7,3.85-0.35,5.81c0.68,3.85,2.85,6.52,6.46,8.02C10.7,27.88,12.84,28.14,15.02,28.15z M15.02,3.13
		c-0.48,0.01-0.97,0.02-1.45,0.08c-1.7,0.23-3.3,0.75-4.73,1.72C8.55,5.13,8.29,5.35,8.06,5.61C7.93,5.77,7.97,5.92,8.05,6.08
		c0.07,0.15,0.2,0.17,0.35,0.15c2.08-0.31,4.18-0.41,6.28-0.44c1.23-0.02,2.46,0.03,3.69,0.11c1.06,0.07,2.12,0.16,3.17,0.32
		c0.16,0.02,0.31,0.06,0.41-0.13c0.09-0.18,0.11-0.34-0.05-0.51c-0.28-0.3-0.59-0.55-0.93-0.77C19.15,3.66,17.15,3.15,15.02,3.13z
		 M21.01,6.96c-3.92-0.5-7.84-0.51-11.77-0.06C9.27,7.01,9.35,7.02,9.4,7.05c0.38,0.2,0.78,0.37,1.2,0.49
		c2.7,0.77,5.44,0.81,8.19,0.32C19.58,7.71,20.34,7.46,21.01,6.96z M14.96,2.33c0.16,0.01,0.39,0.02,0.63,0.04
		c0.09,0.01,0.18,0,0.22-0.1c0.04-0.09,0.03-0.17-0.02-0.25c-0.26-0.43-1.3-0.44-1.57-0.01c-0.05,0.08-0.06,0.17-0.03,0.25
		c0.04,0.1,0.13,0.11,0.22,0.1C14.57,2.36,14.72,2.35,14.96,2.33z"/>
	<path class="st1" d="M15.02,28.15c-2.18-0.01-4.32-0.27-6.36-1.12c-3.61-1.5-5.78-4.16-6.46-8.02c-0.35-1.96-0.28-3.9,0.35-5.81
		c0.83-2.53,2.46-4.41,4.68-5.83C7.7,7.08,8.02,7.04,8.5,7.4c1.07,0.79,2.35,1.09,3.64,1.31c1.35,0.23,2.7,0.29,4.07,0.23
		c1.54-0.07,3.07-0.23,4.49-0.87c0.48-0.22,0.93-0.49,1.29-0.88c0.12-0.12,0.2-0.14,0.35-0.06c2.9,1.67,4.82,4.07,5.44,7.39
		c0.48,2.57,0.22,5.09-0.9,7.48c-0.86,1.83-2.19,3.24-3.93,4.26c-1.62,0.95-3.39,1.46-5.25,1.7C16.81,28.09,15.92,28.16,15.02,28.15
		z M16.19,15.66c-0.14-0.36-0.28-0.47-0.65-0.47c-0.25,0-0.51,0-0.76,0c-0.36,0-0.52,0.12-0.65,0.47c-0.43,0.06-0.85,0.16-1.24,0.35
		c-0.84,0.4-1.32,1.03-1.28,2c0.03,0.76,0.28,1.45,0.65,2.1c1.07,1.9,3.45,2.03,4.78,1.11c1.11-0.77,1.59-1.91,1.68-3.21
		c0.07-0.89-0.38-1.52-1.15-1.94C17.14,15.85,16.68,15.72,16.19,15.66z M11.98,14.51c0-0.61-0.46-1.06-1.08-1.05
		c-0.58,0-1.05,0.48-1.05,1.06c0,0.58,0.49,1.08,1.07,1.07C11.51,15.59,11.98,15.11,11.98,14.51z M20.75,14.23
		c0.01-0.35-0.2-0.62-0.51-0.65c-0.66-0.05-1.27,0.12-1.81,0.5c-0.32,0.23-0.38,0.59-0.18,0.88c0.2,0.29,0.56,0.38,0.89,0.18
		c0.3-0.17,0.6-0.27,0.95-0.28C20.51,14.85,20.75,14.6,20.75,14.23z"/>
	<path class="st2" d="M15.02,3.13c2.14,0.01,4.13,0.53,5.95,1.67c0.34,0.22,0.66,0.47,0.93,0.77c0.15,0.17,0.14,0.33,0.05,0.51
		c-0.1,0.19-0.25,0.15-0.41,0.13c-1.05-0.16-2.11-0.25-3.17-0.32c-1.23-0.08-2.46-0.13-3.69-0.11c-2.1,0.03-4.2,0.14-6.28,0.44
		c-0.15,0.02-0.27,0-0.35-0.15C7.97,5.92,7.93,5.77,8.06,5.61c0.23-0.26,0.49-0.49,0.78-0.68c1.43-0.97,3.03-1.49,4.73-1.72
		C14.05,3.15,14.53,3.14,15.02,3.13z"/>
	<path class="st3" d="M21.01,6.96c-0.67,0.5-1.43,0.75-2.21,0.89c-2.75,0.5-5.49,0.46-8.19-0.32c-0.42-0.12-0.82-0.29-1.2-0.49
		C9.35,7.02,9.27,7.01,9.24,6.9C13.17,6.45,17.09,6.46,21.01,6.96z"/>
	<path class="st1" d="M24.3,7.3c-0.29-0.2-0.57-0.42-0.87-0.6c-0.17-0.11-0.2-0.17-0.04-0.31c0.69-0.61,1.49-0.88,2.41-0.82
		c1.3,0.08,2.55,1.04,2.89,2.4c0.3,1.18,0,2.22-0.81,3.11c-0.14,0.15-0.24,0.18-0.34-0.03c-0.14-0.29-0.31-0.57-0.46-0.85
		c0.25-0.39,0.48-0.78,0.49-1.27c0.02-0.82-0.29-1.46-1-1.87c-0.72-0.42-1.45-0.38-2.15,0.06C24.36,7.16,24.29,7.2,24.3,7.3z"/>
	<path class="st1" d="M2.92,10.2c-0.13,0.33-0.35,0.61-0.51,0.92c-0.1,0.19-0.19,0.06-0.27-0.02c-0.54-0.57-0.88-1.24-0.93-2.02
		c-0.12-1.69,0.93-3.1,2.59-3.45c1.06-0.23,2,0.04,2.82,0.76c0.16,0.14,0.14,0.2-0.04,0.31C6.27,6.88,5.99,7.1,5.7,7.3
		c0.01-0.07-0.03-0.11-0.08-0.15C5.06,6.69,4.16,6.64,3.45,7.03C2.78,7.4,2.36,8.22,2.42,8.93C2.45,9.41,2.67,9.81,2.92,10.2z"/>
	<path class="st4" d="M2.92,10.2c-0.25-0.39-0.46-0.79-0.5-1.27C2.36,8.22,2.78,7.4,3.45,7.03c0.71-0.39,1.61-0.34,2.18,0.11
		C5.67,7.19,5.71,7.23,5.7,7.3c-1.02,0.77-1.9,1.68-2.63,2.73C3.03,10.09,3,10.17,2.92,10.2z"/>
	<path class="st4" d="M24.3,7.3c-0.01-0.1,0.06-0.14,0.13-0.18c0.7-0.44,1.43-0.48,2.15-0.06c0.71,0.41,1.02,1.05,1,1.87
		c-0.01,0.49-0.25,0.88-0.49,1.27c-0.08-0.03-0.11-0.11-0.16-0.17C26.2,8.98,25.32,8.07,24.3,7.3z"/>
	<path class="st3" d="M14.96,2.33c-0.23,0.02-0.39,0.03-0.55,0.04c-0.09,0.01-0.18,0-0.22-0.1c-0.03-0.09-0.02-0.17,0.03-0.25
		c0.27-0.43,1.3-0.43,1.57,0.01c0.05,0.08,0.06,0.17,0.02,0.25c-0.04,0.1-0.13,0.1-0.22,0.1C15.35,2.35,15.11,2.34,14.96,2.33z"/>
	<path class="st4" d="M16.19,15.66c0.48,0.06,0.95,0.19,1.38,0.42c0.78,0.41,1.22,1.05,1.15,1.94c-0.1,1.3-0.57,2.44-1.68,3.21
		c-1.33,0.92-3.71,0.79-4.78-1.11c-0.37-0.65-0.62-1.34-0.65-2.1c-0.04-0.97,0.44-1.6,1.28-2c0.39-0.19,0.81-0.29,1.24-0.35
		c-0.02,0.26,0.12,0.45,0.31,0.61c0.15,0.13,0.2,0.27,0.19,0.47c-0.01,0.51,0,1.03-0.01,1.54c0,0.11,0.04,0.23-0.04,0.33
		c-0.12-0.04-0.16-0.13-0.23-0.2c-0.22-0.23-0.51-0.26-0.74-0.08c-0.22,0.17-0.26,0.48-0.1,0.74c0.1,0.16,0.24,0.29,0.39,0.4
		c0.87,0.65,2.24,0.48,2.85-0.35c0.2-0.28,0.17-0.6-0.06-0.79c-0.24-0.19-0.54-0.15-0.76,0.1c-0.06,0.07-0.1,0.17-0.24,0.17
		c0-0.59,0.01-1.18,0-1.77c-0.01-0.25,0.04-0.46,0.25-0.62C16.12,16.07,16.2,15.88,16.19,15.66z"/>
	<path class="st0" d="M16.19,15.66c0.01,0.22-0.07,0.41-0.25,0.54c-0.21,0.16-0.26,0.37-0.25,0.62c0.02,0.59,0,1.18,0,1.77
		c0.14,0,0.18-0.1,0.24-0.17c0.22-0.25,0.52-0.29,0.76-0.1c0.24,0.19,0.26,0.52,0.06,0.79c-0.6,0.83-1.97,1-2.85,0.35
		c-0.15-0.11-0.29-0.24-0.39-0.4c-0.17-0.26-0.13-0.57,0.1-0.74c0.23-0.18,0.52-0.15,0.74,0.08c0.07,0.07,0.11,0.16,0.23,0.2
		c0.07-0.1,0.04-0.22,0.04-0.33c0-0.51-0.01-1.03,0.01-1.54c0-0.19-0.05-0.34-0.19-0.47c-0.18-0.16-0.33-0.35-0.31-0.61
		c0.13-0.35,0.29-0.47,0.65-0.47c0.25,0,0.51,0,0.76,0C15.92,15.19,16.06,15.3,16.19,15.66z"/>
	<path class="st0" d="M11.98,14.51c0,0.6-0.47,1.08-1.06,1.08c-0.58,0-1.08-0.49-1.07-1.07c0-0.58,0.47-1.05,1.05-1.06
		C11.52,13.45,11.98,13.9,11.98,14.51z"/>
	<path class="st0" d="M20.75,14.23c-0.01,0.37-0.25,0.62-0.67,0.64c-0.34,0.01-0.65,0.11-0.95,0.28c-0.33,0.19-0.69,0.11-0.89-0.18
		c-0.2-0.29-0.14-0.65,0.18-0.88c0.54-0.38,1.15-0.55,1.81-0.5C20.56,13.61,20.76,13.88,20.75,14.23z"/>
</g>
</svg>
